<?xml version="1.0" standalone="no"?>
<!DOCTYPE svg PUBLIC "-//W3C//DTD SVG 1.1//EN" "http://www.w3.org/Graphics/SVG/1.1/DTD/svg11.dtd" >
<svg>
<metadata>
Created by FontForge 20090914 at Thu Feb 23 18:37:19 2012
 By ffonts
Generated by Fontographer 3.5
</metadata>
<defs>
<font id="BazookaRegular" horiz-adv-x="0" >
  <font-face 
    font-family="Bazooka"
    font-weight="5"
    font-stretch="normal"
    units-per-em="1000"
    panose-1="0 0 0 0 0 0 0 0 0 0"
    ascent="800"
    descent="-200"
    x-height="697"
    cap-height="700"
    bbox="-93 -258 923 892"
    underline-thickness="20"
    underline-position="-190"
    unicode-range="U+0020-U+F002"
  />
<missing-glyph horiz-adv-x="800" 
d="M50 0v800h700v-800h-700zM700 50v700h-600v-700h600z" />
    <glyph glyph-name=".notdef" horiz-adv-x="800" 
d="M50 0v800h700v-800h-700zM700 50v700h-600v-700h600z" />
    <glyph glyph-name=".null" 
 />
    <glyph glyph-name="nonmarkingreturn" horiz-adv-x="278" 
 />
    <glyph glyph-name="space" unicode=" " horiz-adv-x="278" 
 />
    <glyph glyph-name="exclam" unicode="!" horiz-adv-x="345" 
d="M340 694q6 -6 6 -15q0 -13 -15 -46l-18 -49l-3 -8l-14 -42l-1 -7l-18 -49l-16 -44l-5 -13l-8 -24l-13 -31l-11 -27l-12 -28q-19 -46 -23 -53t-11 -11t-14 -5t-30 -1l-31 1q-25 0 -30.5 4.5t-5.5 25.5l7 42l29 167l8 46l4 16l20.5 92.5t8.5 47.5q1 10 21.5 16t45.5 6h34h5
h20h20q15 0 29 -0.5t21 -10.5zM178 100l-2 -19q-5 -32 -17.5 -51.5t-32.5 -30.5q-7 -5 -19 -8t-21 -3q-25 0 -43.5 14t-23.5 39l-2 27l3 21q7 33 24.5 54.5t36 27t29.5 5.5q29 0 48.5 -20.5t19.5 -55.5z" />
    <glyph glyph-name="quotedbl" unicode="&#x22;" horiz-adv-x="411" 
d="M467 651l-11 -20l-17 -30l-7 -13l-18 -31l-7 -12l-26 -42l-13 -23l-12 -18q-16 -25 -23.5 -33.5t-16.5 -10.5q-9 -4 -21 -4q-16 0 -26 8t-10 21v18l3 21.5t7.5 36.5l7.5 30t12 36l19 51q15 41 30.5 51.5t59.5 10.5l13 -1l22 -1q39 -3 39 -27q0 -8 -5 -18zM267 651
l-11 -20l-17 -30l-7 -13l-18 -31l-7 -12l-26 -42l-13 -23l-12 -18q-16 -25 -23.5 -33.5t-16.5 -10.5q-9 -4 -21 -4q-16 0 -26 8t-10 21v18l3 21.5t7.5 36.5l7.5 30t12 36l19 51q15 41 30.5 51.5t59.5 10.5l13 -1l22 -1q39 -3 39 -27q0 -8 -5 -18z" />
    <glyph glyph-name="numbersign" unicode="#" horiz-adv-x="576" 
d="M441 497l-14 -69h-110l-36 -165h111l-15 -69h-110l-42 -194h-69l42 194h-84l-41 -194h-69l41 194h-110l14 69h111l35 165h-111l15 69h111l41 194h69l-41 -194h83l41 194h69l-41 -194h110zM248 428h-84l-35 -165h83z" />
    <glyph glyph-name="dollar" unicode="$" horiz-adv-x="469" 
d="M440 556l-10 -35q-9 -30 -16 -40t-21 -10q-9 0 -27 5l-8 2l-28 6l-17 2q-22 0 -30.5 -1t-19 -8t-10.5 -22t14 -26l32 -22q30 -16 53 -41t32 -46t9 -62q0 -36 -23.5 -70t-40.5 -47t-35.5 -21t-29 -10.5t-19.5 -2.5l-8 -31q-14 -53 -29 -67t-56 -14h-6l-36 1q-53 0 -53 40
q0 7 3 16.5t11 28.5l1 3l11 35l-13 4q-46 19 -46 38q0 10 8 32l13 38q9 26 13.5 33t14.5 7q5 0 15.5 -2.5t27.5 -8.5l14 -3q32 -7 55 -7q29 0 38.5 10.5t9.5 21.5q0 16 -8.5 22t-20.5 13l-21 12l-18 11q-19 12 -53 43t-34 83q0 12 5 62.5t94 75.5l21 5l10 3l10 32l8 29
q7 11 32 19q14 2 27 2l25 -2l39 -6q23 -2 32 -8.5t9 -21.5q0 -11 -4 -26l-5 -13q12 -5 17 -5l8 -2l12 -2q26 -4 26 -28q0 -11 -4 -24z" />
    <glyph glyph-name="percent" unicode="%" horiz-adv-x="630" 
d="M320 652l4 -25.5t1 -20.5q0 -29 -17.5 -92.5t-59 -106t-83.5 -42.5q-5 0 -39.5 6.5t-46.5 88.5l-2 20v19.5t5.5 46t18.5 72.5t35.5 60t46 38.5t48.5 12.5q32 0 57 -21t32 -56zM495 694q-15 -44 -42 -105.5t-73.5 -158t-91.5 -201l-80.5 -191t-57.5 -86.5q-12 0 -22 4.5
t-13 10.5q-3 7 0 18t22 51l20 50l18 41l73 173l135 319t41.5 83.5t36.5 27.5h7q31 0 31 -18q0 -9 -4 -18zM543 196q0 -24 -2 -46t-16.5 -71t-55.5 -89t-85 -40q-28 0 -49.5 15t-31 35t-12.5 51l-1 22q0 49 5.5 72t26.5 65t44 66t47 30.5t40 6.5q34 0 55.5 -23.5t28 -42
t6.5 -51.5zM243 636q-5 12 -17 12q-4 0 -10 -4t-8.5 -8t-14.5 -30l-10 -22l-7 -24l-12 -31q-10 -31 -10 -48q0 -6 2 -14l6 -13q6 -9 16 -3q4 4 8 7t8 10l15 27l2 3l8 21t8 24l12 46q6 24 6 35q0 6 -2 12zM457 219q-5 9 -16 9q-6 0 -13 -5q-7 -8 -11.5 -17t-7.5 -16l-15 -31
l-1 -3l-11 -35l-7 -30q-5 -21 -5 -31l4 -20q1 -6 7.5 -8t12.5 1q4 2 10 9t11 17l13 24l2 3l10 32l7 21l3 12l6 33q4 13 4 23q0 7 -3 12z" />
    <glyph glyph-name="ampersand" unicode="&#x26;" horiz-adv-x="560" 
d="M515 277l-10 -34q-10 -29 -15 -34.5t-26 -7.5l-32 -1l-31 -4l11 -4q36 -17 36 -35q0 -11 -9 -26l-16 -24l-2 -4q-38 -51 -85.5 -75t-86 -31.5t-78.5 -7.5q-38 4 -69.5 16t-75.5 48.5t-44 120.5q0 16 7.5 60t31 83t50.5 56t40 23.5t25 10.5l-6 10q-25 46 -25 88
q0 36 24 87t82.5 81t106.5 30q9 -1 13 -1q74 0 118.5 -36t48 -65.5t3.5 -35.5v-11q0 -29 -13 -42t-46 -17l-30 -3q-7 -1 -14.5 -1.5t-10.5 -0.5q-18 0 -24 8t-6 30q0 11 -10 23t-36 12q-19 0 -37 -21.5t-18 -42.5q0 -22 20 -37l12 -7l25 -11q3 -3 3.5 -7.5t-2.5 -12.5
l-5 -19l-1 -3l-6 -14l-5 -15l-4 -9l-9 -19q-8 -18 -16.5 -24t-32 -13t-35 -13.5t-24 -16.5t-21.5 -23t-14.5 -30.5t-5.5 -32.5q0 -12 10 -35.5t47 -23.5q22 0 55.5 14.5t49.5 51.5l-8 -1q-35 0 -35 13q0 7 10 32l10 29l3 6q15 36 30 48t44 12l33 -1h11h31h6l36 -3
q32 0 43 -4.5t11 -19.5q0 -5 -1.5 -12.5t-5.5 -20.5z" />
    <glyph glyph-name="quotesingle" unicode="'" horiz-adv-x="211" 
d="M267 651l-11 -20l-17 -30l-7 -13l-18 -31l-7 -12l-26 -42l-13 -23l-12 -18q-16 -25 -23.5 -33.5t-16.5 -10.5q-9 -4 -21 -4q-16 0 -26 8t-10 21v18l3 21.5t7.5 36.5l7.5 30t12 36l19 51q15 41 30.5 51.5t59.5 10.5l13 -1l22 -1q39 -3 39 -27q0 -8 -5 -18z" />
    <glyph glyph-name="parenleft" unicode="(" horiz-adv-x="329" 
d="M395 723q0 -21 -3.5 -25.5t-20.5 -10.5t-44 -20t-52 -42t-48 -76l-7 -19l-6 -13l-10 -29l-12 -35l-12 -33l-13 -43l-9 -27l-9 -35q-5 -16 -9 -33.5l-8 -36.5q-9 -62 -9 -99q0 -23 4.5 -52.5t15 -53t36.5 -58.5l14 -15q3 -3 3 -9q0 -7 -7 -20l-6 -7q-16 -16 -26 -16
q-15 0 -35 20.5t-26.5 30t-18.5 29t-20.5 42.5t-15 52t-8 48.5t-1.5 43.5l3 31l1 11l2 20l9 43l9 42l3 16l7 26l7 26l4 15q5 20 11 40q9 22 13 35l9 29l3 6l2 4l14 30l13 27l17 29l4 5l13 20q17 26 31 41t32.5 29t28.5 20t22 10q53 23 78 23q27 0 27 -36z" />
    <glyph glyph-name="parenright" unicode=")" horiz-adv-x="323" 
d="M243 277q-44 -143 -96 -220t-114 -103.5t-84 -26.5q-19 0 -29 12t-7 31q3 16 12 23l39 15q12 5 17 7.5t33.5 22.5t52.5 57.5t52 119.5l28 80l23 73l4 16l9 38q13 56 13 77q0 78 -12 117t-24.5 55.5l-18.5 25t-15 17.5q-6 6 4 27t35 21q10 0 16.5 -5.5t11 -11t28.5 -32
t45 -78.5t21 -121q0 -95 -44 -237z" />
    <glyph glyph-name="asterisk" unicode="*" horiz-adv-x="336" 
d="M364 580q4 -8 4 -18q0 -31 -37 -37.5t-41 -5.5l-5 -3q0 -15 4.5 -27.5t4.5 -24.5q0 -29 -20.5 -33.5t-24.5 -4.5q-27 0 -39 32t-21 32q-10 0 -38 -20q-10 -4 -18 -4t-17.5 4t-15.5 15t-6 24q1 6 3.5 13.5t18.5 24.5t19 18q2 1 0 6.5t-13 16t-16.5 18t-7.5 14.5t-2 11
q0 14 10 24t26 10q15 0 32 -5l33 -10q1 0 4.5 6.5l14.5 27.5l11 13q14 9 26 9q10 0 25 -9t15 -31q0 -5 -4 -25q-6 -17 -6 -25t11 -10t41 -2q17 0 29 -24z" />
    <glyph glyph-name="plus" unicode="+" horiz-adv-x="600" 
d="M583 283q0 -31 -18.5 -48.5t-51.5 -17.5h-147v-147q0 -31 -17.5 -50.5t-48.5 -19.5q-32 0 -49 19t-17 51v147h-147q-31 0 -50.5 18.5t-19.5 47.5q0 31 18.5 48.5t51.5 17.5h147v147q0 31 17.5 50.5t48.5 19.5q32 0 49 -19t17 -51v-147h147q32 0 51 -17t19 -49z" />
    <glyph glyph-name="comma" unicode="," horiz-adv-x="204" 
d="M114 118l-10 -19l-18 -31l-6 -12l-19 -32l-6 -11l-26 -42l-14 -23l-11 -18q-14 -22 -23 -32t-18 -13.5t-19 -3.5q-15 0 -26 9t-11 21v18l9 56l20 68l20 51q14 40 30.5 51t58.5 11l13 -1l22 -2q39 -3 39 -27q0 -6 -5 -18z" />
    <glyph glyph-name="hyphen" unicode="-" horiz-adv-x="329" 
d="M307 370l-9 -32l-1 -3l-1 -5l-10 -28q-12 -35 -24.5 -41t-78.5 -6q-36 0 -65.5 -0.5t-53.5 -0.5q-37 0 -44 3t-10 19q-2 10 2 24l7 23l3 10l2 5l10 30q13 34 22.5 40.5t45.5 6.5h41l54 1l27 -1h29l12 -1l39 -1q8 -6 8 -19q0 -7 -5 -24z" />
    <glyph glyph-name="hyphen" unicode="&#xad;" horiz-adv-x="329" 
d="M307 370l-9 -32l-1 -3l-1 -5l-10 -28q-12 -35 -24.5 -41t-78.5 -6q-36 0 -65.5 -0.5t-53.5 -0.5q-37 0 -44 3t-10 19q-2 10 2 24l7 23l3 10l2 5l10 30q13 34 22.5 40.5t45.5 6.5h41l54 1l27 -1h29l12 -1l39 -1q8 -6 8 -19q0 -7 -5 -24z" />
    <glyph glyph-name="period" unicode="." horiz-adv-x="200" 
d="M108 105q0 -16 -2 -26l-3 -15l-6 -16q-23 -45 -65 -51l-14 -1q-50 0 -55 27t-5 37q0 33 19 64q20 36 40 42t31 6q27 0 43.5 -17.5t16.5 -49.5z" />
    <glyph glyph-name="slash" unicode="/" horiz-adv-x="276" 
d="M336 659l-15 -29l-7 -15l-268 -509l-44 -81q-10 -17 -16.5 -25.5t-25.5 -8.5q-33 -4 -33 25q0 7 1 11l18 34l307 592q15 28 26 38.5t21 8.5q41 -8 41 -23q0 -9 -5 -18z" />
    <glyph glyph-name="zero" unicode="0" horiz-adv-x="581" 
d="M535 552q4 -26 4.5 -39t0.5 -27q0 -32 -2 -57t-8.5 -64t-22 -91t-48.5 -110t-93 -113t-124 -55q-52 0 -87.5 14.5t-75 66t-39.5 200.5l6 51q15 90 41 156.5t67 120t98 82t118 28.5q49 -4 82 -27q36 -23 54 -52.5t29 -83.5zM386 481v16q0 21 -9.5 42t-31.5 21
q-16 0 -34 -15t-33 -40t-30 -60l-9 -24q-7 -18 -12 -35t-15.5 -68t-10.5 -77v-18.5t5 -33.5t37 -26q10 0 21.5 7t24.5 23t32.5 51t33.5 79l6 19l6 21l4 22l5 19l8 42l1 13z" />
    <glyph glyph-name="one" unicode="1" horiz-adv-x="394" 
d="M360 604l-9 -36l-15 -57l-15 -53l-10 -41l-44 -159l-44 -159q-14 -61 -25.5 -80.5t-37.5 -19.5q-11 0 -18 1l-22 2l-9 2l-5 1l-25 5q-44 9 -44 34q0 9 3 21l8 33l7 28l3 13l18 74l40 146l20 70l2 8l7 28q-11 4 -14 5t-17 10l-19 11q-16 9 -16 21q0 9 9 26l24 26l99 121
q13 16 35 16q10 0 16 -1l30 -4l10 -1l22 -5q25 -6 34.5 -14t9.5 -26q0 -14 -8 -46z" />
    <glyph glyph-name="two" unicode="2" horiz-adv-x="539" 
d="M483 460q-11 -34 -32.5 -72.5t-60.5 -91.5l-33 -41l-4 -4l-61 -65l-8 -8l-25 -28l25 -1h12q43 0 58.5 1.5t23.5 2.5t15 1q42 0 42 -31q0 -14 -6 -35l-1 -3l-11 -37q-14 -43 -51 -43l-23 -2h-5l-40 -2l-17 -1h-110h-6l-35 3q-38 0 -50.5 7.5t-28.5 39.5l-5 11l-2 3l-10 23
q-5 13 -7 20t-2 11q0 14 27 40l49.5 47.5t55.5 58t49.5 57.5t52 72t50.5 78.5t15 46.5q0 31 -27 31q-19 0 -44 -22l-9 -11l-18 -27q-2 -4 -11 -5t-42 -1l-38 2q-32 0 -45 6.5t-13 25.5q0 15 9 41l10 24q38 76 93 98.5t83 26.5t49 4q39 0 107.5 -24t68.5 -138q0 -22 -3 -42.5
t-11 -46.5z" />
    <glyph glyph-name="three" unicode="3" horiz-adv-x="550" 
d="M494 459q-29 -60 -93 -87l-19 -7q39 -19 61 -58t22 -86q0 -36 -11.5 -70t-51.5 -86.5t-98.5 -62t-78.5 -9.5h-17q-7 1 -10 1q-11 0 -18.5 1.5t-62.5 17.5t-75.5 71t-20.5 72q0 52 12.5 73t32.5 23.5t27 2.5q5 0 29.5 -4t34 -11t9.5 -28v-7v-16q-1 -11 10 -29.5t36 -18.5
q20 0 45 16.5t30 41t5 39.5q0 31 -20.5 44.5t-31 17.5t-19.5 7l-9 3q-13 2 -13 25q0 13 8 37l3 8l4 18q11 37 24.5 47t58.5 10q2 2 6 5t15 15t17 23t6 23q0 16 -10.5 28.5t-24.5 12.5q-19 0 -27 -3.5t-23.5 -22t-29 -24.5t-34.5 -6h-19l-12 1l-18 2q-45 6 -45 35q0 11 8 25
l11 20l3 6l10 13.5t9 9.5q61 71 113.5 77.5t63 7t15.5 0.5q17 0 57.5 -4.5t83.5 -48.5t43 -106q0 -41 -21 -85z" />
    <glyph glyph-name="four" unicode="4" horiz-adv-x="577" 
d="M527 466l-43 -144l18 -6q13 -5 19.5 -9t6.5 -19q0 -14 -7 -38l-4 -13l-1 -5l-11 -28q-13 -34 -20 -40t-40 -9l-12 -1l-13 -51l-4 -19l-11 -32l-15 -50q-6 -6 -13 -8.5t-21 -2.5q-12 0 -32 3l-32 6l-6 1l-25 6q-26 5 -26 23q0 7 3 21l8 32l2 8l4 23l4 16l3 14l4 18l-29 1
h-30l-44 1h-13q-52 0 -70 10t-37 40.5t-25.5 43t-9 23t-2.5 19.5q0 17 14 38.5t69 92.5l45 65l48 68l79 102.5t54 33.5q10 0 28 -5.5t56.5 -19t38.5 -33.5q0 -13 -20 -42l-22 -36h21l43 -4q77 -11 77 -55q0 -18 -7 -39zM371 530l-23 -29l-10 -13l-11 -14l-21 -29l-18 -24
l-13 -17l-17 -20l-53 -60h18h17l16 -1l16 -1l15 -1l16 -2l17 49l17 53l6 17l11 37z" />
    <glyph glyph-name="five" unicode="5" horiz-adv-x="568" 
d="M538 638l-4 -27l-2 -6l-1 -4l-8 -29q-7 -23 -13.5 -29.5t-26.5 -6.5l-27 -2l-61 1l-40 1l-18 1l-59 -2l-9 -29l-9 -29l-2 -9l-3 -12q2 2 8.5 5t28 11.5t49.5 8.5q42 0 79.5 -28t55 -66.5t17.5 -92.5q0 -22 -5 -68t-44 -104.5t-91.5 -94t-85 -38.5l-43.5 -4t-16 -1
q-34 0 -91.5 17.5t-80.5 74.5t-23 86q0 25 13.5 37.5t40.5 16.5l21 2h9h30q30 0 41 -8.5t18 -35t46 -26.5q15 0 35 7t34.5 26.5t22.5 56.5l3 15q1 4 1 12q0 32 -21 53t-53 21l-17 -2q-17 -5 -31 -13l-29 -17q-9 0 -18 9l-4 5l-9 12l-20 27l-2 2l-3 4l-16 25q-19 28 -19 35
q2 9 3 18l27 95l14 56l1 3l20 62q5 22 11 26.5t29 4.5l64 1h65l51 -1h78l50 -1h15q27 0 27 -27q0 -10 -3 -25z" />
    <glyph glyph-name="six" unicode="6" horiz-adv-x="532" 
d="M490 226l-7 -26q-6 -19 -13.5 -37t-25.5 -49.5t-60.5 -67.5t-82 -47.5t-72.5 -11.5q-51 0 -94.5 23t-61 51.5t-21.5 40t-10.5 40.5t-6.5 56q0 26 9.5 85t34 111.5t41.5 81t66 93t84.5 98.5t66.5 34q13 0 31 -5l35 -10l9 -2q12 -2 35 -12t23 -27q0 -12 -14 -28l-20 -19
l-10 -10l-20 -21l-19 -21l-10 -11l-9 -10l-19 -23l-19 -23l-9 -11l-13 -16l-13 -18q9 3 22 4.5t28 1.5q70 0 111 -41t41 -114q0 -11 -1 -23t-6 -36zM330 233q2 18 2 24q0 28 -21 28l-17 -2q-10 -2 -13 -2q-13 0 -13 30l-1 3l-1 23l-2 22l-5 20l-10 -21t-20.5 -50.5
t-16.5 -62.5t-5 -48q0 -13 6.5 -30.5t27.5 -17.5t51 27l13 11q22 26 25 46z" />
    <glyph glyph-name="seven" unicode="7" horiz-adv-x="524" 
d="M521 538l-2 -3l-52 -69l-50 -73l-31 -46l-18 -29q-47 -73 -63 -100l-38 -64q-53 -101 -74 -137t-56 -36q-19 0 -55 11l-18 7q-48 22 -48 39q0 7 4 14l5 8l13 26l20 35l19 33l82 139q71 120 94.5 156.5t59.5 79.5l-29 -1l-22 -2l-20 -1l-27 -2l-5 -1l-43 -1l-16 -1l-30 -2
h-16q-37 3 -46.5 7t-9.5 18q0 10 3 25l8 33l1 5l4 13l11 33q14 30 25 36t56 6l56 1l236 -2q10 0 19.5 -7.5t24.5 -28.5l7 -11l4 -9l14 -26q14 -28 14 -42t-11 -31z" />
    <glyph glyph-name="eight" unicode="8" horiz-adv-x="580" 
d="M545 578l-22 -27l-5 -6l-22 -26l-8 -10q15 -19 22 -41q12 -29 12 -46q0 -28 -41 -53l-18 -11l-11 -7l-3 -2l-18 -12l-7 -5l-16 -8l14 -22q33 -56 33 -113q0 -33 -18 -87t-75 -78.5t-88.5 -30t-69.5 -5.5q-89 0 -137.5 40.5t-48.5 105.5q0 15 3.5 38t23 52.5t51.5 59.5
t63 53l17 12l-26 36l-22 40q-21 47 -21 90q0 68 46 117t104 59.5t90 10.5q56 0 112 -17t79.5 -33.5t23.5 -35.5q0 -16 -17 -38zM428 517q-12 10 -28.5 19.5t-30 14t-27.5 7t-25 2.5q-25 -2 -39 -16t-14 -36q0 -4 2 -16q12 -39 40 -56l22 16l22 16l16 11l7 4l10 6l18 11l10 7
zM291 206q-3 19 -22 32l-25 -14l-6 -5l-17 -14q-27 -21 -27 -39t14 -29.5t33 -7.5q10 3 21 7q32 18 32 50q0 9 -3 20z" />
    <glyph glyph-name="nine" unicode="9" horiz-adv-x="532" 
d="M491 551q6 -32 6 -64q0 -71 -34 -167l-19 -46q-14 -30 -31 -58.5t-67.5 -94t-84.5 -98t-67 -32.5q-15 0 -30 4l-34 10l-10 3q-6 2 -12 3t-26 9.5t-20 27.5q0 12 14 26l21 19q44 43 115 131l16 20l10 13l-29 -5q-7 -1 -12.5 -1h-7.5q-70 0 -111.5 41.5t-41.5 115.5
q0 39 10.5 74t21 58t30.5 51.5t50 54t70.5 42.5t85.5 17q69 0 121.5 -42.5t65.5 -111.5zM323 516q-11 26 -32 26t-51 -26l-12 -12q-6 -7 -14 -20t-10 -24t-2 -26q0 -28 21 -28q10 0 18 2t11 2q13 0 13 -30l2 -26l1 -22q2 -10 5 -20l24 53q18 50 23.5 80.5t5.5 49.5
q0 12 -3 21z" />
    <glyph glyph-name="colon" unicode=":" horiz-adv-x="224" 
d="M192 360q0 -11 -1 -21t-5 -19l-7 -17q-22 -46 -64 -51l-14 -1q-50 0 -55 27t-5 38q0 30 18 63q24 38 44 43t28 5q27 0 44 -18t17 -49zM118 105q0 -16 -2 -26l-3 -15l-7 -16q-22 -45 -64 -51l-14 -1q-50 0 -55 27t-5 38q0 31 15 57t26 36t24 14t24 4q28 0 44.5 -17.5
t16.5 -49.5z" />
    <glyph glyph-name="semicolon" unicode=";" horiz-adv-x="226" 
d="M201 360q0 -9 -1 -20t-4 -20l-7 -17q-22 -46 -64 -51l-15 -1q-50 0 -54.5 26.5t-4.5 36.5q0 32 20 67.5t41 40.5t29 5q26 0 43 -18t17 -49zM135 118l-10 -19l-18 -31l-6 -12l-19 -32l-6 -11l-26 -42l-14 -23l-11 -18q-14 -22 -23 -32t-18 -13.5t-19 -3.5q-15 0 -26 9
t-11 21v18l9 56l9 33.5t12 34.5l19 51q14 40 30.5 51t58.5 11l14 -1l22 -2q38 -3 38 -27q0 -6 -5 -18z" />
    <glyph glyph-name="less" unicode="&#x3c;" horiz-adv-x="600" 
d="M577 85q0 -28 -15 -44t-40 -16q-14 0 -25 2.5t-30 11.5l-407 187q-15 7 -26 23t-11 34q0 19 10 34t27 23l407 187q16 8 30 11t25 3q24 0 39.5 -16t15.5 -44q0 -22 -9 -36t-38 -27l-322 -135l322 -135q29 -12 38 -27t9 -36z" />
    <glyph glyph-name="equal" unicode="=" horiz-adv-x="600" 
d="M583 401q0 -31 -18.5 -48.5t-51.5 -17.5h-426q-32 0 -51 17t-19 49q0 31 18.5 48.5t51.5 17.5h426q32 0 51 -17t19 -49zM583 165q0 -31 -18.5 -48.5t-51.5 -17.5h-426q-32 0 -51 17t-19 49q0 31 18.5 48.5t51.5 17.5h426q32 0 51 -17t19 -49z" />
    <glyph glyph-name="greater" unicode="&#x3e;" horiz-adv-x="600" 
d="M577 283q0 -19 -10 -34t-27 -23l-407 -187q-16 -8 -30 -11t-25 -3q-24 0 -39.5 16t-15.5 44q0 22 9 36t38 27l322 135l-322 135q-29 12 -38 27t-9 36q0 28 15 44t40 16q14 0 25 -2.5t30 -11.5l407 -187q15 -7 26 -23t11 -34z" />
    <glyph glyph-name="question" unicode="?" horiz-adv-x="485" 
d="M491 539q0 -14 -4 -29.5t-13.5 -40.5t-18.5 -38t-34 -38l-4 -4l-70 -64l-11 -10q-23 -21 -35 -35.5t-19 -25.5l-24 -42q-4 -11 -38 -15l-20 -2l-23 -2l-29 -1q-21 0 -32 11t-9 29q3 21 20 60t49 76t110 95q27 18 30.5 35t3.5 22q0 33 -36 38h-13q-19 -3 -32 -18t-26 -52
l-3 -10q-2 -6 -9 -9.5t-26 -3.5l-34 -1q-45 0 -60 9t-15 35q0 8 3 19.5t10.5 32t15.5 34t28.5 41t60 49t93.5 21.5q102 0 158 -45t56 -121zM239 85q0 -13 -13.5 -53t-73.5 -40q-36 0 -58 20t-22 53q0 9 1 14l3 13q10 34 36 54t55 17q35 -3 53.5 -23.5t18.5 -54.5z" />
    <glyph glyph-name="at" unicode="@" horiz-adv-x="800" 
d="M765 422q0 -113 -72 -198.5t-178 -85.5q-59 0 -59 50q-22 -23 -52.5 -36.5t-73.5 -13.5q-50 0 -90.5 48t-40.5 122q0 103 57.5 171.5t137.5 68.5q43 0 71.5 -14.5t50.5 -47.5l4 18q5 20 18 28t29 8q19 0 31.5 -11.5t12.5 -31.5l-4 -28l-31 -172q-2 -12 -3.5 -19.5
t-2.5 -16.5q0 -19 19 -19q32 0 59 39t27 113q0 117 -71.5 180.5t-189.5 63.5q-114 0 -192.5 -82.5t-78.5 -200.5q0 -128 78.5 -204.5t201.5 -76.5q59 0 107 14.5t65 28.5t25.5 17t14.5 3q14 0 26 -11t12 -26q0 -16 -21 -36.5t-85 -50t-144 -29.5q-162 0 -275 105t-113 266
q0 158 111.5 265.5t270.5 107.5q146 0 247 -84t101 -222zM487 356q0 35 -19.5 56.5t-56.5 21.5q-41 0 -69.5 -30.5t-28.5 -70.5q0 -38 16 -59.5t51 -21.5q50 0 78.5 29.5t28.5 74.5z" />
    <glyph glyph-name="A" unicode="A" horiz-adv-x="538" 
d="M444 395q0 -46 -3.5 -140.5t-3.5 -134.5l-3 -46l-1 -14l-1 -26v-10q0 -11 -13 -21.5t-35 -10.5l-34 -2h-16q-16 0 -32 5t-24 17.5t-8 36.5l2 60l1 23l1 17l1 30v26l1 20l-3 -6l-10 -20q-13 -24 -26.5 -32t-43.5 -8q-15 0 -21 2l-10 -21l-11 -27l-19 -40l-4 -9
q-17 -43 -28.5 -57t-31.5 -14q-10 0 -16 1t-17 4t-17 4.5t-15 6.5q-16 4 -24 11q-32 18 -32 36q0 9 8 31l15 35l6 12l8 24q-11 2 -15.5 6.5t-4.5 17.5q0 18 12 66l4 13l2 7l10 32q10 30 19.5 35.5t49.5 5.5h9l8 14l5 12l4 6l21 47l4 9l32 63l49 94q39 76 55.5 96.5
t42.5 20.5q6 0 22 -2l27 -4l11 -2q63 -8 76.5 -29t13.5 -116zM300 494l-11 -26l-2 -6l-34 -97l-2 -6l-7 -22h43l3 27l3 26l3 27l1 26l2 25z" />
    <glyph glyph-name="B" unicode="B" horiz-adv-x="553" 
d="M539 471q-14 -71 -95 -125l-23 -14l7 -8l12 -16q36 -51 36 -98q0 -32 -13.5 -68t-42.5 -66t-80 -55l-31 -12q-21 -8 -42 -13t-43 -7h-62q-33 0 -50 1.5t-31 15.5l-3 4l-22 26l-31 39q-18 23 -21 36v9l1 4l25 109q14 62 26 105l24 85l22 75q-11 0 -27 -5l-34 -11
q-16 0 -16 21q0 12 13 68.5t36 78.5t91 39t113 17h18q12 -2 18 -2q10 0 22.5 -3t62.5 -13t97.5 -58t47.5 -117q0 -19 -5 -42zM354 473q2 10 2 13q0 22 -13 33t-28 15.5t-44 4.5h-11q-14 0 -26 -0.5t-30 -5.5l-37 -12l10 -1l34 -4q19 -5 37.5 -13.5t20.5 -14.5q1 -5 1 -12
q-3 -13 -4 -19l-17 -58h8q6 0 25 6t34.5 16.5t24.5 22.5t13 29zM286 181q11 22 11 34q0 19 -19.5 31t-24 19.5t-4.5 29.5l-4 31l-5 20l-6 -13l-5 -15.5t-5 -20.5l-40 -154l9 -2h7q63 0 86 40z" />
    <glyph glyph-name="C" unicode="C" horiz-adv-x="487" 
d="M496 571q0 -61 -16.5 -89t-50 -35.5t-53.5 -7.5q-47 0 -52 30l8 31q3 12 2 21q0 17 -17 19q-15 2 -31.5 -14t-39.5 -62l-17 -37q-13 -37 -20.5 -62.5t-10.5 -50.5q-12 -68 -12 -96q0 -17 7.5 -27.5t23.5 -10.5q9 0 15.5 5t12.5 13.5t23 42.5l5 14q8 17 21 24.5t36 7.5
q11 0 18 -1h9l30 -3q41 -4 41 -36q0 -11 -2 -18l-7 -28l-3 -9q-36 -128 -99 -160.5t-90 -38.5t-51 -6q-80 0 -123 69.5t-43 210.5q5 53 21.5 116t34.5 104.5t83 131t193 89.5q73 0 113.5 -35.5t40.5 -101.5z" />
    <glyph glyph-name="D" unicode="D" horiz-adv-x="579" 
d="M536 292q-39 -108 -103.5 -169t-112 -88t-87 -40t-69.5 -13q-36 0 -63.5 16t-52.5 50l-39 51q-5 7 -5 20q0 27 34 170l8 29l55 199l-15 -2l-11 -4l-26 -11q-5 -3 -9 -2q-8 1 -12 7.5t-1 15.5l5 17l28 96q9 30 28.5 40.5t72 19.5t82.5 9q12 0 28.5 -1.5t81 -8.5t135.5 -83
t71 -191q0 -58 -23 -127zM355 320q16 45 16 85q0 65 -43 101t-122 36l-15 -1l-26 -2l7 -1l6 -2l32 -8q33 -11 45.5 -21.5t12.5 -33.5q0 -16 -6.5 -42t-18 -62t-17.5 -58t-14 -62l-16 -74l11 2q66 9 95.5 51.5t38 59t14.5 32.5z" />
    <glyph glyph-name="E" unicode="E" horiz-adv-x="492" 
d="M530 644l-3 -15l-7 -26l-3 -10l-11 -35q-11 -31 -20 -36t-54 -5l-31 1q-17 3 -48 3l-9 1h-38l-18 1l-27 1q-14 1 -49 -4l35 -14q35 -15 35 -31q0 -6 -3 -15l-6 -26l-5 -20l61 -1l57 -1q40 0 55.5 -6.5t15.5 -25.5q0 -12 -6 -32l-9 -32l-2 -10l-8 -21q-9 -28 -17.5 -34.5
t-41.5 -6.5h-43.5t-39.5 1h-17l-54 -1l-6 -16l-4 -12l-4 -12l-5 -21l-4 -20l-3 -10l31 -1h16h13h36t31 1q44 0 60.5 -6.5t16.5 -26.5q0 -10 -5 -28l-10 -41q-10 -37 -23.5 -48.5t-47.5 -11.5l-87 2h-87q-41 0 -57.5 6t-43 36.5t-26.5 70.5q0 25 9 61l10 37l10 38
q-34 0 -34 37q0 9 3 21l5 24l3 15q8 40 23 58t36 18q7 0 11 -1l13 34l5 15l5 21l5 21l4 14l-12 1q-43 6 -43 26q0 5 4 21l5 23l3 9l5 21q16 48 25 63.5t69 15.5h36h61h13l42 -1h32l36 -1l38 -1h7l44 -1q49 0 49 -33z" />
    <glyph glyph-name="F" unicode="F" horiz-adv-x="437" 
d="M489 622l-11 -42q-9 -33 -19.5 -43.5t-33.5 -10.5l-42 3l-122 2l-53 -1l35 -14q16 -8 28 -15t12 -23q0 -12 -6 -44l-5 -20h48h49q36 0 48 -5t12 -23q0 -10 -5 -33l-5 -26l-2 -7l-11 -32q-11 -29 -17.5 -36.5t-18.5 -7.5l-149 1l-5 -21l-6 -26l-25 -91l-4 -14l-10 -33
l-15 -45q-9 -20 -36 -20q-11 0 -25 3l-19 4l-11 3l-27 7q-45 12 -45 40q0 6 4 24l17 50l21 79l8 32l2 9l-8 2q-29 9 -29 26q0 7 5 27l9 35l4 12q17 49 23.5 57.5t26 10t22.5 8.5l24 107l-23 3h-5q-18 0 -27.5 2.5t-9.5 17.5q0 14 12 46l14 42q13 42 27.5 49.5t84.5 7.5h56
l43 -1l54 -1l18 -1l79 -7q52 0 52 -30q0 -13 -8 -37z" />
    <glyph glyph-name="G" unicode="G" horiz-adv-x="561" 
d="M543 545q0 -43 -12.5 -60t-53.5 -23l-35 -6l-18 -3q-20 -3 -33 -3q-40 0 -40 27q0 5 2 15l1 23q-2 25 -30 25q-11 0 -29.5 -7t-38 -34t-41.5 -79l-15 -38q-12 -42 -17.5 -75t-5.5 -59q0 -43 10.5 -66t31.5 -23q19 0 38.5 19.5t19.5 43.5q-8 -4 -13 -4q-35 0 -35 30
q0 10 3 22l6 26l2 8l8 34q4 18 12.5 25.5t32.5 12.5l15 3l28 6h4l75 7l32 1l7 1l37 -2q47 0 47 -29q0 -4 -2 -14l-8 -37l-8 -34q-12 -40 -51 -40q-3 -24 -7.5 -38t-17.5 -42t-21.5 -41t-34 -45t-73.5 -57.5t-101 -25.5h-14q-6 1 -9 1q-82 9 -131.5 70.5t-49.5 171.5
q0 29 4 64t9.5 59l9.5 40t12 36q17 51 31 81.5t35.5 62t48.5 56.5t60 41.5t56.5 23.5t48.5 9q188 0 215 -140z" />
    <glyph glyph-name="H" unicode="H" horiz-adv-x="603" 
d="M608 593l-9 -35l-11 -38l-28 -100l-56 -204l-13 -40l-18 -61l-32 -100q-8 -12 -20 -17.5t-33 -5.5q-8 1 -12 1l-32 2l-15 2q-22 4 -40 12t-18 28q0 7 3 18l17 54l15 56l31 111l7 24l10 30q-8 -9 -13 -17.5t-7 -12.5l-11 -17l-8 -15q-18 -31 -55 -31h-4h-27l-29 -1l-6 -23
l-5 -17l-21 -85l-11 -42q-11 -44 -23 -60t-37 -16q-5 0 -21 2l-14 2l-29 6q-24 5 -36 10t-17 20q-4 7 -4 16q0 11 10 45l12 43l10 40l15 59q-16 2 -27 12.5t-11 28.5q0 10 3 25l6 26l1 3l11 34q10 31 20 42t36 18l16 3l5 22l5 19l24 82l11 31l19 57q19 58 55 58
q11 0 46.5 -7t55.5 -18t20 -35q0 -19 -14 -61l-3 -7l-16 -49l-2 -4l-16 -52l-14 -44l44 -2l39 -1l37 -1l7 23l6 18l36 130l13 45q10 37 19 49.5t30 12.5q13 0 36 -6l34 -6l5 -2q53 -11 53 -54q0 -11 -5 -33z" />
    <glyph glyph-name="I" unicode="I" horiz-adv-x="300" 
d="M311 594l-32 -109l-15 -55l-15 -54l-15 -57l-25 -101l-38 -151q-11 -45 -22 -58.5t-41 -13.5q-6 0 -25.5 2t-24.5 3t-32 9t-42 21t-15 36q0 6 1 12.5t5 18.5l19 74l21 77l30 103l14 50l14 49q16 61 28 101.5t24 75.5l3 9l9 26q9 22 19.5 30t35.5 8q17 0 44 -3l29 -5
q34 -8 46 -16.5t12 -28.5q0 -18 -12 -53z" />
    <glyph glyph-name="J" unicode="J" horiz-adv-x="473" 
d="M486 618l-23 -84l-3 -13l-27 -97l-21 -76l-8 -29l-16 -64l-11 -45q-27 -109 -77.5 -161.5t-132.5 -52.5q-30 0 -52.5 2t-87.5 24.5t-65 125.5q0 18 0.5 34t6.5 47l7 26q14 55 25 65.5t54 10.5h12l13 -2l21 -3l3 -1l20 -3q23 -4 23 -26q0 -8 -3 -19l-3 -11l-6 -21l-4 -14
l-3 -14l-2 -10q-2 -12 -2 -25q0 -7 2 -16.5t19 -9.5q7 0 18 6.5t18.5 19.5t17.5 51l9 35l9 34l7 30l11 39l16 60l21 76l5 18l13 49l7 32l4 14l4 16q13 38 26 51.5t39 13.5q12 0 27 -3l21 -4l22 -5q49 -8 49 -46q0 -11 -3 -25z" />
    <glyph glyph-name="K" unicode="K" horiz-adv-x="563" 
d="M579 667q19 -7 28 -15t9 -21q0 -16 -13 -45t-40.5 -78t-65.5 -94l-26 -28q-39 -41 -71 -62.5t-65 -31.5l-15 -4l8 -17l12 -16q10 -14 21.5 -33.5t40.5 -74.5l22 -40l18 -37l8 -13l25 -51q0 -13 -7.5 -23.5t-26.5 -20.5l-23 -12l-5 -4l-4 -1l-27 -12q-25 -10 -36 -10
q-25 0 -65 81l-26 51l-12 26l-36 72l-2 3q-5 12 -12 23.5l-13 20.5q-4 -40 -10 -65q-10 -34 -16 -59l-8 -32l-2 -8l-12 -41q-6 -6 -24 -6q-10 0 -16 1l-37 7l-29.5 7.5t-19.5 7.5q-20 8 -28.5 12.5t-8.5 16.5q0 6 3 17.5t4 17.5l11 41l9 36l22 84l7 21l28 97l5 21l14 47
l9 38l8 32l15 57q27 95 37 124t42 29q12 0 30 -3l34 -5l8 -2l17 -5q27 -9 36 -19t6 -25l-2 -6l-11 -36l-7 -27l-5 -15l-27 -83l-8 -24l-6 -17q8 -3 13 -3q14 0 43 22l34 28q44 39 71 88t37 74t16 36.5t24 11.5q11 0 40 -8l15 -4l5 -2z" />
    <glyph glyph-name="L" unicode="L" horiz-adv-x="453" 
d="M377 101l-5 -18l-6 -23q-11 -39 -25 -52t-45 -13l-192 4q-11 0 -23 6t-26.5 17.5t-19.5 16.5t-20.5 25.5t-15.5 54.5q0 27 17 103l6 26l7 22l23 87l38 137l11 37l19 63l11 41l3 9l17 49q12 14 42 14q21 0 43 -7l15 -5l30 -9q24 -7 31 -12.5t7 -16.5l-2 -12l-4 -19l-1 -6
l-2 -7l-24 -81l-12 -38l-14 -50l-48 -179l-12 -47l-11 -43l27 -1l37 -1l69 -1q8 0 17 1t13 1q36 0 36 -24q0 -14 -11 -49z" />
    <glyph glyph-name="M" unicode="M" horiz-adv-x="785" 
d="M738 603l-8 -76l-1 -8l-5 -44l-7 -50l-10 -96l-9 -96l-3 -30l-7 -66q-7 -67 -9 -83.5t-8 -28.5t-17.5 -22.5t-45.5 -10.5q-7 0 -16 1t-30.5 3t-41.5 8t-20 39q0 17 5.5 51.5l8.5 52.5l1 5l7 45l15 86l3 17l7 26l7 43l-15 -25l-11 -21l-6 -12l-19 -38l-26 -47l-16 -30
l-32 -59l-46 -87q-19 -34 -33 -44.5t-40 -10.5q-72 0 -91 23t-19 96l3 73v4l2 16l3 28l3 78l1 5l3 31v34l-11 -38l-12 -41l-11 -39l-8 -33l-4 -16l-13 -56l-4 -14l-15 -57q-17 -60 -27 -76.5t-36 -16.5q-12 0 -21 2t-14 2l-16 4q-34 11 -44 18t-10 23t6 42q8 26 11 42l18 71
l3 11l25 81l21 74l24 80l20 65l7 21q9 33 29 84l4 10l10 24q15 35 26.5 42.5t49.5 7.5l33 -4q51 -6 71 -23t20 -52l4 -54l1 -15l2 -81v-26v-21v-17v-14v-12q0 -19 -1 -37t-4 -33l-2 -17l-3 -20l34 71l23 49l8 16l32 64l11 19l26 45l25 43l11 19l5 9l13 21l2 4l18 26
q22 36 55 36q13 0 38 -5l28 -6l7 -1l14 -5q27 -11 36.5 -21.5t9.5 -31.5z" />
    <glyph glyph-name="N" unicode="N" horiz-adv-x="615" 
d="M609 598l-25 -110l-26 -111l-11 -39l-19 -70l-32 -110q-22 -65 -27.5 -82.5t-4.5 -25.5v-5l4 -14q2 -8 2 -11q0 -24 -50 -24q-5 -1 -25 1q-12 0 -23.5 3t-18.5 5l-9 3l-18 6q-26 11 -34.5 27.5t-16.5 70.5l-3 23l-10 60l-7 36l-7 46l-7 42l-6 39l-4 23l-7 40l-4 -29
l-2 -17l-9 -55l-2 -14l-1 -6l-12 -62l-15 -62l-1 -7l-3 -14l-15 -56l-13 -54l-4 -12q-10 -38 -45 -38q-5 0 -41 5t-58 16.5t-22 35.5q0 14 8 41l1 3l11 38l37 150l35 137l11 44l38 139l9 30q7 22 15.5 45t27.5 23q9 0 37 -5l31 -8q49 -16 64 -26t25 -34l11 -27l6 -18l5 -14
q11 -28 15.5 -49t11.5 -69v-6l9 -72l1 -5l3 -22l2 24l1 19q5 38 13 74.5l12 55.5l22 83l20 73q10 22 38 22q13 0 29 -4l13 -4l32 -9q43 -14 43 -47q0 -11 -5 -36z" />
    <glyph glyph-name="O" unicode="O" horiz-adv-x="580" 
d="M555 493q0 -51 -6.5 -98t-24 -109.5t-45.5 -114.5t-72.5 -97t-87 -67.5t-89.5 -22.5q-17 0 -74 7.5t-101.5 84t-44.5 165.5q0 83 32 191l21 55q31 70 76 120.5t84 70t69 27.5t46 8q21 -2 27.5 -6.5t6.5 -20.5l-2 -24l-2 -37l42 35l10 9l20 16q23 19 41 19q23 0 45 -38
q12 -24 20.5 -67.5t8.5 -105.5zM368 473l-1 10l-1 23q-4 42 -15 68l-2 -7l-5 -13q-3 -11 -5 -14.5t-3 -5.5l-31 -20q-33 -23 -62.5 -73t-38.5 -91.5t-11.5 -62t-2.5 -34.5q0 -32 11 -56.5t39 -24.5q15 0 32.5 15.5t39.5 55t31.5 71.5t14 56t6.5 44z" />
    <glyph glyph-name="P" unicode="P" horiz-adv-x="516" 
d="M499 357q-28 -56 -68.5 -94.5t-89.5 -57.5l-9 -2l-29 -10q-25 -7 -34 -7q-29 0 -29 48l-1 29l-1 5v15v19q-4 -9 -8 -20t-6 -21v-4l-9 -37l-1 -3l-10 -39l-3 -12l-17 -74l-3 -13l-7 -29l-12 -42q-12 -17 -41 -17l-19 2l-27 4l-6 1l-12 3q-30 7 -41.5 15.5t-11.5 24.5
q0 6 4 24l14 63l2 6l16 62l19 76l36 138l8 26l1 8l6 19l3 14l3 13q-6 -7 -13.5 -12.5t-17.5 -8t-21 -2.5q-16 0 -27.5 8t-11.5 17q0 19 2 28l5 38l7 28q24 70 67 93t165 23h25.5t69 -8.5t113 -66.5t54.5 -141q0 -62 -34 -129zM343 421q12 23 12 43q0 47 -33.5 54.5t-43 8
t-14.5 0.5q-17 0 -26.5 -1t-31.5 -6l-25 -5l14 -3q47 -12 65.5 -24.5t18.5 -32.5q0 -12 -6 -30l-8 -31l-10 -30q20 3 39 12q38 26 49 45z" />
    <glyph glyph-name="Q" unicode="Q" horiz-adv-x="586" 
d="M552 626q13 -45 13 -118q0 -46 -5 -89t-20.5 -103.5t-45.5 -116t-80 -108.5l-13 -13l10 -12l7 -9l17 -24q8 -12 10.5 -18.5t2.5 -12.5q0 -12 -11.5 -24.5t-42.5 -34.5l-21 -15l-10 -9q-23 -18 -38 -18q-13 0 -27 12l-43 53l-3 4l-11 13l-22 -1q-94 0 -137 52.5t-57.5 97
t-14.5 100.5q0 60 29 175.5t114.5 207t192.5 91.5q2 1 7 1q35 0 35 -27q0 -12 -6 -33t-11 -29h13l32 30l3 2l32 24q28 20 47 20q35 0 54 -68zM372 440q3 29 3 53q0 17 -1 33t-6 43l-13 -23l-6 -18q-14 -6 -22.5 -11t-28.5 -21q-28 -20 -42.5 -47.5t-22 -43t-25 -61.5
t-17.5 -90v-5l1 -31q0 -10 3 -18.5t7 -13t12 -4.5t12 5l15 19q12 25 29 25q9 0 27 -8l5 -4l12 18q15 24 23.5 44.5t16.5 51.5l5 21l4 19q2 9 4.5 30z" />
    <glyph glyph-name="R" unicode="R" horiz-adv-x="572" 
d="M526 390q-19 -45 -48.5 -76.5t-84.5 -64.5l-21 -13l14 -21l12 -20l9 -15l15 -25l15 -25l9 -17l12 -21l10 -20l21 -42q8 -18 8 -27q0 -13 -10 -23t-38 -26l-33 -16q-4 -2 -17 -7.5t-21 -5.5q-9 0 -17.5 8t-19.5 27q-4 4 -10 16l-9 16l-7 16l-19 30l-30 56l-4 7l-24 43
l-9 15l-19 36l-49 -189q-2 -8 -13.5 -11.5t-39.5 -3.5h-7l-24 3l-13 2l-11 2q-33 8 -44.5 16t-11.5 25l2 17l19 81l13 46l88 327l-41 -9q-9 -2 -15.5 -3t-10.5 -1q-21 0 -21 24l2 22l7 31l4 14l2 7l10 27q10 31 21 39t57 19l54 13l55 8l27 2q56 0 84 -3.5t58 -15.5l26 -11
q53 -29 82 -75t29 -104q0 -52 -23 -104zM347 522q-8 6 -15.5 9.5t-23.5 7t-28 3.5t-63 -8l-51 -11l12 -2l13 -3l21 -4l5 -1q34 -6 47.5 -15.5t13.5 -28.5q0 -12 -4 -27l-7 -30l-2 -7l-11 -36v-8q24 0 43.5 10t28 16t29.5 24.5t21 56.5q0 35 -29 54z" />
    <glyph glyph-name="S" unicode="S" horiz-adv-x="439" 
d="M479 608l-1 -7l-8 -37q-8 -41 -19 -52.5t-46 -16.5l-44 -1q-55 0 -55 19q0 4 4 16h-15q-45 -6 -45 -39q0 -8 3.5 -19.5t7.5 -18l27 -43.5l13 -23q57 -103 57 -165q0 -21 -6 -57.5t-24 -68t-48 -55.5t-58 -34.5t-58 -14t-40.5 -3.5h-16.5q-13 0 -27 0.5t-28 0.5h-9l-6 1
l-33 5q-32 4 -42 19.5t-10 55.5l3 19l5 28l2 15l8 33q10 44 21 55t45 11h4l34 -2q29 0 37.5 -3.5t8.5 -19.5q0 -11 -3 -31l-3 -12q3 -1 7.5 -1.5t8.5 -0.5q54 0 54 41q0 13 -4 25l-9 27l-26 46l-21 37l-22 35l-6 9q-16 30 -24 54.5t-8 48.5q0 43 30 91l16 24
q30 37 73.5 62.5t83 33.5t57 9t43.5 1h14q59 0 81 -11.5t22 -44.5q0 -10 -1 -16.5t-4 -24.5z" />
    <glyph glyph-name="T" unicode="T" horiz-adv-x="470" 
d="M532 636l-9 -31l-1 -7l-11 -38q-5 -20 -16 -27t-36 -7h-15q-7 1 -11 1l-99 3h-25l-23 -1l31 -12l9 -2l16 -7q14 -5 23.5 -12.5t9.5 -26.5q0 -25 -22 -95l-2 -6l-23 -85l-8 -31l-17 -59l-2 -6l-20 -88l-2 -7l-14 -52q-8 -27 -21.5 -37.5t-44.5 -10.5q-6 0 -28 2l-12 1
l-7 2l-28 7q-21 5 -32 10.5t-11 26.5q0 10 5 30l5 16l26 89l5 16l13 51l18 69q26 98 40 135l17 53q4 11 4 19q0 14 -10 14l-43 -3l-47 1q-35 0 -49 7.5t-14 29.5q0 15 4 31l3 17l3 15l8 23q11 30 23.5 37t55.5 7h39h24l48 -1l37 -1h36l75 -1l72 -3q33 0 45 -5.5t12 -22.5
q0 -13 -4 -28z" />
    <glyph glyph-name="U" unicode="U" horiz-adv-x="589" 
d="M594 612l-18 -79l-7 -26l-14 -53l-16 -59l-4 -18l-23 -78l-18 -60l-5 -17q-10 -36 -22.5 -65t-53 -99t-160.5 -70q-20 0 -30 1t-32.5 6t-35.5 10t-46.5 26t-54.5 53t-27 85l-2 26q0 10 1 22t5 30l5 37l3 13l4 17l17 70l57 233l14 58q6 14 25.5 20.5t52.5 6.5l12 -2l33 -4
q33 -5 44.5 -12t11.5 -24q0 -11 -3.5 -24.5t-5.5 -23.5l-5 -22l-8 -29l-14 -50l-11 -44l-9 -36l-10 -42l-14 -57l-4 -19l-8 -38q-10 -47 -10 -57q0 -8 6.5 -25t33.5 -17q6 0 21.5 2t29.5 27t41 119l14 52l4 17l3 11l13 53l42 152l5 23l4 12q1 3 1.5 5t12 22.5t45.5 20.5
q8 -1 12 -1l20 -2l15 -2q37 -4 52.5 -13.5t15.5 -30.5q0 -11 -5 -31z" />
    <glyph glyph-name="V" unicode="V" horiz-adv-x="504" 
d="M524 522q-23 -59 -55.5 -127t-79.5 -153l-16 -26l-51 -89q-49 -87 -68.5 -113.5t-39.5 -26.5q-12 0 -30 6l-14 4l-28 9q-37 11 -45.5 24t-8.5 71q-3 17 -4.5 52.5t-1.5 59.5l-1 50l1 95l-2 232v29q0 48 7.5 63.5t33.5 15.5q6 0 15 -1t44.5 -5.5t55.5 -18t20 -58.5
q0 -29 -3.5 -59.5t-4 -48t-0.5 -31.5l-4 -98v-19v-5l-5 -32v-37l4 10l5 11l19.5 43t11.5 29l5 11l24 61l40 98.5t28 66.5l12 35l4 11q9 18 19.5 26.5t27.5 8.5q14 0 29 -4l15 -3l31 -6q28 -7 38.5 -14t10.5 -24q0 -22 -39 -123z" />
    <glyph glyph-name="W" unicode="W" horiz-adv-x="798" 
d="M848 609l-9 -29l-4 -10q-12 -34 -29.5 -76l-47.5 -110l-18 -40l-17 -38l-27 -54l-29 -60l-16 -32l-46 -92q-24 -46 -39.5 -61.5t-40.5 -15.5l-23 2q-70 9 -84 24t-14 84l-1 42v24l1 66l4 67l1 21l1 47l-8 -19l-6 -14l-4 -10l-13 -32l-6 -13l-11 -26l-6 -11l-28 -56
l-7 -14l-27 -62l-5 -10q-38 -71 -49.5 -89t-36.5 -18q-12 0 -50 6.5t-54.5 19.5t-16.5 46l-2 60v15v88l4 377v11l2 38q0 46 46 46q13 0 30 -3l22 -4l24 -5q31 -6 41 -18.5t10 -43.5l-1 -39l-1 -17l-2 -55l-7 -111l-2 -23l-4 -31v-6l-1 -23l14 34l11 27l7 20l36 91l2 6l20 50
l26 63q21 50 37 67t47 17q16 0 37 -3l20 -4l16 -3q26 -4 32 -14t6 -49l1 -64l-1 -24l-1 -58v-31l-2 -29l-2 -48l-2 -32l-1 -15q13 23 22 44t26 64l29 75l5 9l21 47l26 62l4 9l10 24q9 23 18 31.5t25 8.5q5 0 14.5 -1.5l15.5 -2.5l23 -5l4 -1l5 -1l22 -7q43 -15 43 -37
q0 -8 -9 -33z" />
    <glyph glyph-name="X" unicode="X" horiz-adv-x="511" 
d="M508 612l-166 -285l5 -16l15 -41q28 -81 57 -145t29 -95q0 -17 -10 -25t-33 -11l-27 -2l-15 -1q-47 0 -69 16.5t-39 69.5l-17 55l-11 33q-4 -16 -9 -28.5l-10 -24.5l-3 -5l-23 -46q-18 -39 -36.5 -54.5t-48.5 -15.5q-9 0 -22.5 1.5t-55.5 10t-42 33.5q0 18 21 48l53 85
l5 9l26 47l9 14l41 67l5 8l16 30l-10 33l-6 18l-16 48l-19 49l-7 20l-18.5 57t-13 43.5t-6.5 44.5q0 40 45 40h12q9 -2 14 -2l36 -5l15 -2q38 -5 45.5 -13.5t19.5 -54.5l9 -40l3 -12l6 -28l5 -24l29 50l8 18l16 30q22 49 36.5 65.5t36.5 16.5q10 0 27 -3l47 -9q54 -9 54 -36
q0 -14 -13 -36z" />
    <glyph glyph-name="Y" unicode="Y" horiz-adv-x="459" 
d="M513 624l-6 -22l-236 -470l-60 -116l-5 -5q-19 -22 -44 -22q-10 0 -25 3l-19 5l-24 7q-56 14 -56 39q0 11 8 29l13 28l2 4l9 16l14 26l20 42l8 18l17 35l-3 21l-2 15l-20 96l-8 49l-19 102l-4 23l-5 30q-9 51 -9 78q0 48 35 48q10 0 15 -1l21 -4l14 -2l21 -4l13 -2
q31 -5 38.5 -15t12.5 -50l4 -28l2 -15l4 -31l2 -11l2 -44v-33q0 -13 -1 -20l26 62l29.5 68.5t26.5 56.5l16 28q15 25 25 33t29 8q13 0 31 -3l24 -4l10 -2l12 -4q26 -9 36.5 -17.5t10.5 -20.5q0 -7 -5 -24z" />
    <glyph glyph-name="Z" unicode="Z" horiz-adv-x="481" 
d="M482 590l5 -24t2 -16q0 -15 -6 -25q-10 -11 -15 -18l-51 -69l-38 -50l-13 -18l-53 -68l-19 -24l-35 -44l-36 -47l-16 -19l-8 -12l-14 -15l22 2h14h110q16 0 37 4q5 2 11 -6t5 -21q0 -14 -5 -32l-4 -12l-7 -30q-9 -30 -25.5 -39.5t-58.5 -9.5h-33l-203 3q-15 0 -24 9
t-23 39l-7 13l-6 16q-9 30 -9 43t4.5 20.5t18.5 25.5l31 43l2 3l7 8l37 44l121 160q3 6 12 17l30.5 37.5t33.5 39l30 30.5l-22 -2l-22 -1l-21 -1l-23 -1l-23 -1h-21h-30h-15l-44 1q-9 7 -6 27q0 5 2.5 16t7.5 31l8 23l4 13l2 7l7 19q7 16 14 21t26 5l6 1l123 2
q120 0 144.5 -6.5t39.5 -45.5l10 -30l2 -8z" />
    <glyph glyph-name="bracketleft" unicode="[" horiz-adv-x="320" 
d="M345 707q-5 -20 -21 -33t-36 -13h-55l-175 -654h55q35 0 35 -33q0 -3 -7.5 -30.5t-52.5 -27.5h-100q-43 0 -43 35q0 9 3 20l195 726q14 55 69 55h100q35 0 35 -32q0 -3 -2 -13z" />
    <glyph glyph-name="backslash" unicode="\" horiz-adv-x="276" 
d="M345 27q1 -4 1 -12q0 -27 -33 -24q-17 0 -23 5t-19 29l-44 81l-268 509l-7 15l-15 29q-5 12 -5 18q0 15 41 23q10 2 21 -8t26 -39l307 -592z" />
    <glyph glyph-name="bracketright" unicode="]" horiz-adv-x="320" 
d="M328 697l-195 -726q-14 -55 -69 -55h-100q-35 0 -35 32q0 3 3.5 18t19.5 28t36 13h55l175 654h-55q-35 0 -35 33q0 3 7.5 30.5t52.5 27.5h100q43 0 43 -35q0 -9 -3 -20z" />
    <glyph glyph-name="asciicircum" unicode="^" horiz-adv-x="600" 
d="M533 351q0 -14 -11.5 -25t-39.5 -11q-26 0 -41 8t-28 32l-113 207l-113 -207q-13 -23 -28.5 -31.5t-40.5 -8.5q-28 0 -39.5 11t-11.5 25q0 19 13 44l154 280q13 24 29 33.5t37 9.5t37 -9t29 -34l154 -280q13 -25 13 -44z" />
    <glyph glyph-name="underscore" unicode="_" horiz-adv-x="400" 
d="M400 -200h-407v35h407v-35z" />
    <glyph glyph-name="grave" unicode="`" horiz-adv-x="169" 
d="M293 774q4 -5 4 -14q0 -22 -16.5 -27.5t-21.5 -5.5q-9 0 -18.5 2.5t-18.5 5.5l-15 5l-20 7l-38 13l-10 4l-27 10l-11 5l-26 9l-17 6q-16 7 -16 20q0 11 14 25l13 12l7 7q28 26 44 26q8 0 19 -5t24 -13l39 -21q12 -8 25.5 -16t31 -22.5t24.5 -22.5q4 -2 10 -10z" />
    <glyph glyph-name="a" unicode="a" horiz-adv-x="538" 
d="M444 395q0 -46 -3.5 -140.5t-3.5 -134.5l-3 -46l-1 -14l-1 -26v-10q0 -11 -13 -21.5t-35 -10.5l-34 -2h-16q-16 0 -32 5t-24 17.5t-8 36.5l2 60l1 23l1 17l1 30v26l1 20l-3 -6l-10 -20q-13 -24 -26.5 -32t-43.5 -8q-15 0 -21 2l-10 -21l-11 -27l-19 -40l-4 -9
q-17 -43 -28.5 -57t-31.5 -14q-10 0 -16 1t-17 4t-17 4.5t-15 6.5q-16 4 -24 11q-32 18 -32 36q0 9 8 31l15 35l6 12l8 24q-11 2 -15.5 6.5t-4.5 17.5q0 18 12 66l4 13l2 7l10 32q10 30 19.5 35.5t49.5 5.5h9l8 14l5 12l4 6l21 47l4 9l32 63l49 94q39 76 55.5 96.5
t42.5 20.5q6 0 22 -2l27 -4l11 -2q63 -8 76.5 -29t13.5 -116zM300 494l-11 -26l-2 -6l-34 -97l-2 -6l-7 -22h43l3 27l3 26l3 27l1 26l2 25z" />
    <glyph glyph-name="b" unicode="b" horiz-adv-x="553" 
d="M539 471q-14 -71 -95 -125l-23 -14l7 -8l12 -16q36 -51 36 -98q0 -32 -13.5 -68t-42.5 -66t-80 -55l-31 -12q-21 -8 -42 -13t-43 -7h-62q-33 0 -50 1.5t-31 15.5l-3 4l-22 26l-31 39q-18 23 -21 36v9l1 4l25 109q14 62 26 105l24 85l22 75q-11 0 -27 -5l-34 -11
q-16 0 -16 21q0 12 13 68.5t36 78.5t91 39t113 17h18q12 -2 18 -2q10 0 22.5 -3t62.5 -13t97.5 -58t47.5 -117q0 -19 -5 -42zM354 473q2 10 2 13q0 22 -13 33t-28 15.5t-44 4.5h-11q-14 0 -26 -0.5t-30 -5.5l-37 -12l10 -1l34 -4q19 -5 37.5 -13.5t20.5 -14.5q1 -5 1 -12
q-3 -13 -4 -19l-17 -58h8q6 0 25 6t34.5 16.5t24.5 22.5t13 29zM286 181q11 22 11 34q0 19 -19.5 31t-24 19.5t-4.5 29.5l-4 31l-5 20l-6 -13l-5 -15.5t-5 -20.5l-40 -154l9 -2h7q63 0 86 40z" />
    <glyph glyph-name="c" unicode="c" horiz-adv-x="487" 
d="M496 571q0 -61 -16.5 -89t-50 -35.5t-53.5 -7.5q-47 0 -52 30l8 31q3 12 2 21q0 17 -17 19q-15 2 -31.5 -14t-39.5 -62l-17 -37q-13 -37 -20.5 -62.5t-10.5 -50.5q-12 -68 -12 -96q0 -17 7.5 -27.5t23.5 -10.5q9 0 15.5 5t12.5 13.5t23 42.5l5 14q8 17 21 24.5t36 7.5
q11 0 18 -1h9l30 -3q41 -4 41 -36q0 -11 -2 -18l-7 -28l-3 -9q-36 -128 -99 -160.5t-90 -38.5t-51 -6q-80 0 -123 69.5t-43 210.5q5 53 21.5 116t34.5 104.5t83 131t193 89.5q73 0 113.5 -35.5t40.5 -101.5z" />
    <glyph glyph-name="d" unicode="d" horiz-adv-x="579" 
d="M536 292q-39 -108 -103.5 -169t-112 -88t-87 -40t-69.5 -13q-36 0 -63.5 16t-52.5 50l-39 51q-5 7 -5 20q0 27 34 170l8 29l55 199l-15 -2l-11 -4l-26 -11q-5 -3 -9 -2q-8 1 -12 7.5t-1 15.5l5 17l28 96q9 30 28.5 40.5t72 19.5t82.5 9q12 0 28.5 -1.5t81 -8.5t135.5 -83
t71 -191q0 -58 -23 -127zM355 320q16 45 16 85q0 65 -43 101t-122 36l-15 -1l-26 -2l7 -1l6 -2l32 -8q33 -11 45.5 -21.5t12.5 -33.5q0 -16 -6.5 -42t-18 -62t-17.5 -58t-14 -62l-16 -74l11 2q66 9 95.5 51.5t38 59t14.5 32.5z" />
    <glyph glyph-name="e" unicode="e" horiz-adv-x="492" 
d="M530 644l-3 -15l-7 -26l-3 -10l-11 -35q-11 -31 -20 -36t-54 -5l-31 1q-17 3 -48 3l-9 1h-38l-18 1l-27 1q-14 1 -49 -4l35 -14q35 -15 35 -31q0 -6 -3 -15l-6 -26l-5 -20l61 -1l57 -1q40 0 55.5 -6.5t15.5 -25.5q0 -12 -6 -32l-9 -32l-2 -10l-8 -21q-9 -28 -17.5 -34.5
t-41.5 -6.5h-43.5t-39.5 1h-17l-54 -1l-6 -16l-4 -12l-4 -12l-5 -21l-4 -20l-3 -10l31 -1h16h13h36t31 1q44 0 60.5 -6.5t16.5 -26.5q0 -10 -5 -28l-10 -41q-10 -37 -23.5 -48.5t-47.5 -11.5l-87 2h-87q-41 0 -57.5 6t-43 36.5t-26.5 70.5q0 25 9 61l10 37l10 38
q-34 0 -34 37q0 9 3 21l5 24l3 15q8 40 23 58t36 18q7 0 11 -1l13 34l5 15l5 21l5 21l4 14l-12 1q-43 6 -43 26q0 5 4 21l5 23l3 9l5 21q16 48 25 63.5t69 15.5h36h61h13l42 -1h32l36 -1l38 -1h7l44 -1q49 0 49 -33z" />
    <glyph glyph-name="f" unicode="f" horiz-adv-x="437" 
d="M489 622l-11 -42q-9 -33 -19.5 -43.5t-33.5 -10.5l-42 3l-122 2l-53 -1l35 -14q16 -8 28 -15t12 -23q0 -12 -6 -44l-5 -20h48h49q36 0 48 -5t12 -23q0 -10 -5 -33l-5 -26l-2 -7l-11 -32q-11 -29 -17.5 -36.5t-18.5 -7.5l-149 1l-5 -21l-6 -26l-25 -91l-4 -14l-10 -33
l-15 -45q-9 -20 -36 -20q-11 0 -25 3l-19 4l-11 3l-27 7q-45 12 -45 40q0 6 4 24l17 50l21 79l8 32l2 9l-8 2q-29 9 -29 26q0 7 5 27l9 35l4 12q17 49 23.5 57.5t26 10t22.5 8.5l24 107l-23 3h-5q-18 0 -27.5 2.5t-9.5 17.5q0 14 12 46l14 42q13 42 27.5 49.5t84.5 7.5h56
l43 -1l54 -1l18 -1l79 -7q52 0 52 -30q0 -13 -8 -37z" />
    <glyph glyph-name="g" unicode="g" horiz-adv-x="561" 
d="M543 545q0 -43 -12.5 -60t-53.5 -23l-35 -6l-18 -3q-20 -3 -33 -3q-40 0 -40 27q0 5 2 15l1 23q-2 25 -30 25q-11 0 -29.5 -7t-38 -34t-41.5 -79l-15 -38q-12 -42 -17.5 -75t-5.5 -59q0 -43 10.5 -66t31.5 -23q19 0 38.5 19.5t19.5 43.5q-8 -4 -13 -4q-35 0 -35 30
q0 10 3 22l6 26l2 8l8 34q4 18 12.5 25.5t32.5 12.5l15 3l28 6h4l75 7l32 1l7 1l37 -2q47 0 47 -29q0 -4 -2 -14l-8 -37l-8 -34q-12 -40 -51 -40q-3 -24 -7.5 -38t-17.5 -42t-21.5 -41t-34 -45t-73.5 -57.5t-101 -25.5h-14q-6 1 -9 1q-82 9 -131.5 70.5t-49.5 171.5
q0 29 4 64t9.5 59l9.5 40t12 36q17 51 31 81.5t35.5 62t48.5 56.5t60 41.5t56.5 23.5t48.5 9q188 0 215 -140z" />
    <glyph glyph-name="h" unicode="h" horiz-adv-x="603" 
d="M608 593l-9 -35l-11 -38l-28 -100l-56 -204l-13 -40l-18 -61l-32 -100q-8 -12 -20 -17.5t-33 -5.5q-8 1 -12 1l-32 2l-15 2q-22 4 -40 12t-18 28q0 7 3 18l17 54l15 56l31 111l7 24l10 30q-8 -9 -13 -17.5t-7 -12.5l-11 -17l-8 -15q-18 -31 -55 -31h-4h-27l-29 -1l-6 -23
l-5 -17l-21 -85l-11 -42q-11 -44 -23 -60t-37 -16q-5 0 -21 2l-14 2l-29 6q-24 5 -36 10t-17 20q-4 7 -4 16q0 11 10 45l12 43l10 40l15 59q-16 2 -27 12.5t-11 28.5q0 10 3 25l6 26l1 3l11 34q10 31 20 42t36 18l16 3l5 22l5 19l24 82l11 31l19 57q19 58 55 58
q11 0 46.5 -7t55.5 -18t20 -35q0 -19 -14 -61l-3 -7l-16 -49l-2 -4l-16 -52l-14 -44l44 -2l39 -1l37 -1l7 23l6 18l36 130l13 45q10 37 19 49.5t30 12.5q13 0 36 -6l34 -6l5 -2q53 -11 53 -54q0 -11 -5 -33z" />
    <glyph glyph-name="i" unicode="i" horiz-adv-x="300" 
d="M311 594l-32 -109l-15 -55l-15 -54l-15 -57l-25 -101l-38 -151q-11 -45 -22 -58.5t-41 -13.5q-6 0 -25.5 2t-24.5 3t-32 9t-42 21t-15 36q0 6 1 12.5t5 18.5l19 74l21 77l30 103l14 50l14 49q16 61 28 101.5t24 75.5l3 9l9 26q9 22 19.5 30t35.5 8q17 0 44 -3l29 -5
q34 -8 46 -16.5t12 -28.5q0 -18 -12 -53z" />
    <glyph glyph-name="j" unicode="j" horiz-adv-x="473" 
d="M486 618l-23 -84l-3 -13l-27 -97l-21 -76l-8 -29l-16 -64l-11 -45q-27 -109 -77.5 -161.5t-132.5 -52.5q-30 0 -52.5 2t-87.5 24.5t-65 125.5q0 18 0.5 34t6.5 47l7 26q14 55 25 65.5t54 10.5h12l13 -2l21 -3l3 -1l20 -3q23 -4 23 -26q0 -8 -3 -19l-3 -11l-6 -21l-4 -14
l-3 -14l-2 -10q-2 -12 -2 -25q0 -7 2 -16.5t19 -9.5q7 0 18 6.5t18.5 19.5t17.5 51l9 35l9 34l7 30l11 39l16 60l21 76l5 18l13 49l7 32l4 14l4 16q13 38 26 51.5t39 13.5q12 0 27 -3l21 -4l22 -5q49 -8 49 -46q0 -11 -3 -25z" />
    <glyph glyph-name="k" unicode="k" horiz-adv-x="563" 
d="M579 667q19 -7 28 -15t9 -21q0 -16 -13 -45t-40.5 -78t-65.5 -94l-26 -28q-39 -41 -71 -62.5t-65 -31.5l-15 -4l8 -17l12 -16q10 -14 21.5 -33.5t40.5 -74.5l22 -40l18 -37l8 -13l25 -51q0 -13 -7.5 -23.5t-26.5 -20.5l-23 -12l-5 -4l-4 -1l-27 -12q-25 -10 -36 -10
q-25 0 -65 81l-26 51l-12 26l-36 72l-2 3q-5 12 -12 23.5l-13 20.5q-4 -40 -10 -65q-10 -34 -16 -59l-8 -32l-2 -8l-12 -41q-6 -6 -24 -6q-10 0 -16 1l-37 7l-29.5 7.5t-19.5 7.5q-20 8 -28.5 12.5t-8.5 16.5q0 6 3 17.5t4 17.5l11 41l9 36l22 84l7 21l28 97l5 21l14 47
l9 38l8 32l15 57q27 95 37 124t42 29q12 0 30 -3l34 -5l8 -2l17 -5q27 -9 36 -19t6 -25l-2 -6l-11 -36l-7 -27l-5 -15l-27 -83l-8 -24l-6 -17q8 -3 13 -3q14 0 43 22l34 28q44 39 71 88t37 74t16 36.5t24 11.5q11 0 40 -8l15 -4l5 -2z" />
    <glyph glyph-name="l" unicode="l" horiz-adv-x="453" 
d="M377 101l-5 -18l-6 -23q-11 -39 -25 -52t-45 -13l-192 4q-11 0 -23 6t-26.5 17.5t-19.5 16.5t-20.5 25.5t-15.5 54.5q0 27 17 103l6 26l7 22l23 87l38 137l11 37l19 63l11 41l3 9l17 49q12 14 42 14q21 0 43 -7l15 -5l30 -9q24 -7 31 -12.5t7 -16.5l-2 -12l-4 -19l-1 -6
l-2 -7l-24 -81l-12 -38l-14 -50l-48 -179l-12 -47l-11 -43l27 -1l37 -1l69 -1q8 0 17 1t13 1q36 0 36 -24q0 -14 -11 -49z" />
    <glyph glyph-name="m" unicode="m" horiz-adv-x="785" 
d="M738 603l-8 -76l-1 -8l-5 -44l-7 -50l-10 -96l-9 -96l-3 -30l-7 -66q-7 -67 -9 -83.5t-8 -28.5t-17.5 -22.5t-45.5 -10.5q-7 0 -16 1t-30.5 3t-41.5 8t-20 39q0 17 5.5 51.5l8.5 52.5l1 5l7 45l15 86l3 17l7 26l7 43l-15 -25l-11 -21l-6 -12l-19 -38l-26 -47l-16 -30
l-32 -59l-46 -87q-19 -34 -33 -44.5t-40 -10.5q-72 0 -91 23t-19 96l3 73v4l2 16l3 28l3 78l1 5l3 31v34l-11 -38l-12 -41l-11 -39l-8 -33l-4 -16l-13 -56l-4 -14l-15 -57q-17 -60 -27 -76.5t-36 -16.5q-12 0 -21 2t-14 2l-16 4q-34 11 -44 18t-10 23t6 42q8 26 11 42l18 71
l3 11l25 81l21 74l24 80l20 65l7 21q9 33 29 84l4 10l10 24q15 35 26.5 42.5t49.5 7.5l33 -4q51 -6 71 -23t20 -52l4 -54l1 -15l2 -81v-26v-21v-17v-14v-12q0 -19 -1 -37t-4 -33l-2 -17l-3 -20l34 71l23 49l8 16l32 64l11 19l26 45l25 43l11 19l5 9l13 21l2 4l18 26
q22 36 55 36q13 0 38 -5l28 -6l7 -1l14 -5q27 -11 36.5 -21.5t9.5 -31.5z" />
    <glyph glyph-name="n" unicode="n" horiz-adv-x="615" 
d="M609 598l-25 -110l-26 -111l-11 -39l-19 -70l-32 -110q-22 -65 -27.5 -82.5t-4.5 -25.5v-5l4 -14q2 -8 2 -11q0 -24 -50 -24q-5 -1 -25 1q-12 0 -23.5 3t-18.5 5l-9 3l-18 6q-26 11 -34.5 27.5t-16.5 70.5l-3 23l-10 60l-7 36l-7 46l-7 42l-6 39l-4 23l-7 40l-4 -29
l-2 -17l-9 -55l-2 -14l-1 -6l-12 -62l-15 -62l-1 -7l-3 -14l-15 -56l-13 -54l-4 -12q-10 -38 -45 -38q-5 0 -41 5t-58 16.5t-22 35.5q0 14 8 41l1 3l11 38l37 150l35 137l11 44l38 139l9 30q7 22 15.5 45t27.5 23q9 0 37 -5l31 -8q49 -16 64 -26t25 -34l11 -27l6 -18l5 -14
q11 -28 15.5 -49t11.5 -69v-6l9 -72l1 -5l3 -22l2 24l1 19q5 38 13 74.5l12 55.5l22 83l20 73q10 22 38 22q13 0 29 -4l13 -4l32 -9q43 -14 43 -47q0 -11 -5 -36z" />
    <glyph glyph-name="o" unicode="o" horiz-adv-x="580" 
d="M555 493q0 -51 -6.5 -98t-24 -109.5t-45.5 -114.5t-72.5 -97t-87 -67.5t-89.5 -22.5q-17 0 -74 7.5t-101.5 84t-44.5 165.5q0 83 32 191l21 55q31 70 76 120.5t84 70t69 27.5t46 8q21 -2 27.5 -6.5t6.5 -20.5l-2 -24l-2 -37l42 35l10 9l20 16q23 19 41 19q23 0 45 -38
q12 -24 20.5 -67.5t8.5 -105.5zM368 473l-1 10l-1 23q-4 42 -15 68l-2 -7l-5 -13q-3 -11 -5 -14.5t-3 -5.5l-31 -20q-33 -23 -62.5 -73t-38.5 -91.5t-11.5 -62t-2.5 -34.5q0 -32 11 -56.5t39 -24.5q15 0 32.5 15.5t39.5 55t31.5 71.5t14 56t6.5 44z" />
    <glyph glyph-name="p" unicode="p" horiz-adv-x="516" 
d="M499 357q-28 -56 -68.5 -94.5t-89.5 -57.5l-9 -2l-29 -10q-25 -7 -34 -7q-29 0 -29 48l-1 29l-1 5v15v19q-4 -9 -8 -20t-6 -21v-4l-9 -37l-1 -3l-10 -39l-3 -12l-17 -74l-3 -13l-7 -29l-12 -42q-12 -17 -41 -17l-19 2l-27 4l-6 1l-12 3q-30 7 -41.5 15.5t-11.5 24.5
q0 6 4 24l14 63l2 6l16 62l19 76l36 138l8 26l1 8l6 19l3 14l3 13q-6 -7 -13.5 -12.5t-17.5 -8t-21 -2.5q-16 0 -27.5 8t-11.5 17q0 19 2 28l5 38l7 28q24 70 67 93t165 23h25.5t69 -8.5t113 -66.5t54.5 -141q0 -62 -34 -129zM343 421q12 23 12 43q0 47 -33.5 54.5t-43 8
t-14.5 0.5q-17 0 -26.5 -1t-31.5 -6l-25 -5l14 -3q47 -12 65.5 -24.5t18.5 -32.5q0 -12 -6 -30l-8 -31l-10 -30q20 3 39 12q38 26 49 45z" />
    <glyph glyph-name="q" unicode="q" horiz-adv-x="586" 
d="M552 626q13 -45 13 -118q0 -46 -5 -89t-20.5 -103.5t-45.5 -116t-80 -108.5l-13 -13l10 -12l7 -9l17 -24q8 -12 10.5 -18.5t2.5 -12.5q0 -12 -11.5 -24.5t-42.5 -34.5l-21 -15l-10 -9q-23 -18 -38 -18q-13 0 -27 12l-43 53l-3 4l-11 13l-22 -1q-94 0 -137 52.5t-57.5 97
t-14.5 100.5q0 60 29 175.5t114.5 207t192.5 91.5q2 1 7 1q35 0 35 -27q0 -12 -6 -33t-11 -29h13l32 30l3 2l32 24q28 20 47 20q35 0 54 -68zM372 440q3 29 3 53q0 17 -1 33t-6 43l-13 -23l-6 -18q-14 -6 -22.5 -11t-28.5 -21q-28 -20 -42.5 -47.5t-22 -43t-25 -61.5
t-17.5 -90v-5l1 -31q0 -10 3 -18.5t7 -13t12 -4.5t12 5l15 19q12 25 29 25q9 0 27 -8l5 -4l12 18q15 24 23.5 44.5t16.5 51.5l5 21l4 19q2 9 4.5 30z" />
    <glyph glyph-name="r" unicode="r" horiz-adv-x="572" 
d="M526 390q-19 -45 -48.5 -76.5t-84.5 -64.5l-21 -13l14 -21l12 -20l9 -15l15 -25l15 -25l9 -17l12 -21l10 -20l21 -42q8 -18 8 -27q0 -13 -10 -23t-38 -26l-33 -16q-4 -2 -17 -7.5t-21 -5.5q-9 0 -17.5 8t-19.5 27q-4 4 -10 16l-9 16l-7 16l-19 30l-30 56l-4 7l-24 43
l-9 15l-19 36l-49 -189q-2 -8 -13.5 -11.5t-39.5 -3.5h-7l-24 3l-13 2l-11 2q-33 8 -44.5 16t-11.5 25l2 17l19 81l13 46l88 327l-41 -9q-9 -2 -15.5 -3t-10.5 -1q-21 0 -21 24l2 22l7 31l4 14l2 7l10 27q10 31 21 39t57 19l54 13l55 8l27 2q56 0 84 -3.5t58 -15.5l26 -11
q53 -29 82 -75t29 -104q0 -52 -23 -104zM347 522q-8 6 -15.5 9.5t-23.5 7t-28 3.5t-63 -8l-51 -11l12 -2l13 -3l21 -4l5 -1q34 -6 47.5 -15.5t13.5 -28.5q0 -12 -4 -27l-7 -30l-2 -7l-11 -36v-8q24 0 43.5 10t28 16t29.5 24.5t21 56.5q0 35 -29 54z" />
    <glyph glyph-name="s" unicode="s" horiz-adv-x="439" 
d="M479 608l-1 -7l-8 -37q-8 -41 -19 -52.5t-46 -16.5l-44 -1q-55 0 -55 19q0 4 4 16h-15q-45 -6 -45 -39q0 -8 3.5 -19.5t7.5 -18l27 -43.5l13 -23q57 -103 57 -165q0 -21 -6 -57.5t-24 -68t-48 -55.5t-58 -34.5t-58 -14t-40.5 -3.5h-16.5q-13 0 -27 0.5t-28 0.5h-9l-6 1
l-33 5q-32 4 -42 19.5t-10 55.5l3 19l5 28l2 15l8 33q10 44 21 55t45 11h4l34 -2q29 0 37.5 -3.5t8.5 -19.5q0 -11 -3 -31l-3 -12q3 -1 7.5 -1.5t8.5 -0.5q54 0 54 41q0 13 -4 25l-9 27l-26 46l-21 37l-22 35l-6 9q-16 30 -24 54.5t-8 48.5q0 43 30 91l16 24
q30 37 73.5 62.5t83 33.5t57 9t43.5 1h14q59 0 81 -11.5t22 -44.5q0 -10 -1 -16.5t-4 -24.5z" />
    <glyph glyph-name="t" unicode="t" horiz-adv-x="470" 
d="M532 636l-9 -31l-1 -7l-11 -38q-5 -20 -16 -27t-36 -7h-15q-7 1 -11 1l-99 3h-25l-23 -1l31 -12l9 -2l16 -7q14 -5 23.5 -12.5t9.5 -26.5q0 -25 -22 -95l-2 -6l-23 -85l-8 -31l-17 -59l-2 -6l-20 -88l-2 -7l-14 -52q-8 -27 -21.5 -37.5t-44.5 -10.5q-6 0 -28 2l-12 1
l-7 2l-28 7q-21 5 -32 10.5t-11 26.5q0 10 5 30l5 16l26 89l5 16l13 51l18 69q26 98 40 135l17 53q4 11 4 19q0 14 -10 14l-43 -3l-47 1q-35 0 -49 7.5t-14 29.5q0 15 4 31l3 17l3 15l8 23q11 30 23.5 37t55.5 7h39h24l48 -1l37 -1h36l75 -1l72 -3q33 0 45 -5.5t12 -22.5
q0 -13 -4 -28z" />
    <glyph glyph-name="u" unicode="u" horiz-adv-x="589" 
d="M594 612l-18 -79l-7 -26l-14 -53l-16 -59l-4 -18l-23 -78l-18 -60l-5 -17q-10 -36 -22.5 -65t-53 -99t-160.5 -70q-20 0 -30 1t-32.5 6t-35.5 10t-46.5 26t-54.5 53t-27 85l-2 26q0 10 1 22t5 30l5 37l3 13l4 17l17 70l57 233l14 58q6 14 25.5 20.5t52.5 6.5l12 -2l33 -4
q33 -5 44.5 -12t11.5 -24q0 -11 -3.5 -24.5t-5.5 -23.5l-5 -22l-8 -29l-14 -50l-11 -44l-9 -36l-10 -42l-14 -57l-4 -19l-8 -38q-10 -47 -10 -57q0 -8 6.5 -25t33.5 -17q6 0 21.5 2t29.5 27t41 119l14 52l4 17l3 11l13 53l42 152l5 23l4 12q1 3 1.5 5t12 22.5t45.5 20.5
q8 -1 12 -1l20 -2l15 -2q37 -4 52.5 -13.5t15.5 -30.5q0 -11 -5 -31z" />
    <glyph glyph-name="v" unicode="v" horiz-adv-x="504" 
d="M524 522q-23 -59 -55.5 -127t-79.5 -153l-16 -26l-51 -89q-49 -87 -68.5 -113.5t-39.5 -26.5q-12 0 -30 6l-14 4l-28 9q-37 11 -45.5 24t-8.5 71q-3 17 -4.5 52.5t-1.5 59.5l-1 50l1 95l-2 232v29q0 48 7.5 63.5t33.5 15.5q6 0 15 -1t44.5 -5.5t55.5 -18t20 -58.5
q0 -29 -3.5 -59.5t-4 -48t-0.5 -31.5l-4 -98v-19v-5l-5 -32v-37l4 10l5 11l19.5 43t11.5 29l5 11l24 61l40 98.5t28 66.5l12 35l4 11q9 18 19.5 26.5t27.5 8.5q14 0 29 -4l15 -3l31 -6q28 -7 38.5 -14t10.5 -24q0 -22 -39 -123z" />
    <glyph glyph-name="w" unicode="w" horiz-adv-x="798" 
d="M848 609l-9 -29l-4 -10q-12 -34 -29.5 -76l-47.5 -110l-18 -40l-17 -38l-27 -54l-29 -60l-16 -32l-46 -92q-24 -46 -39.5 -61.5t-40.5 -15.5l-23 2q-70 9 -84 24t-14 84l-1 42v24l1 66l4 67l1 21l1 47l-8 -19l-6 -14l-4 -10l-13 -32l-6 -13l-11 -26l-6 -11l-28 -56
l-7 -14l-27 -62l-5 -10q-38 -71 -49.5 -89t-36.5 -18q-12 0 -50 6.5t-54.5 19.5t-16.5 46l-2 60v15v88l4 377v11l2 38q0 46 46 46q13 0 30 -3l22 -4l24 -5q31 -6 41 -18.5t10 -43.5l-1 -39l-1 -17l-2 -55l-7 -111l-2 -23l-4 -31v-6l-1 -23l14 34l11 27l7 20l36 91l2 6l20 50
l26 63q21 50 37 67t47 17q16 0 37 -3l20 -4l16 -3q26 -4 32 -14t6 -49l1 -64l-1 -24l-1 -58v-31l-2 -29l-2 -48l-2 -32l-1 -15q13 23 22 44t26 64l29 75l5 9l21 47l26 62l4 9l10 24q9 23 18 31.5t25 8.5q5 0 14.5 -1.5l15.5 -2.5l23 -5l4 -1l5 -1l22 -7q43 -15 43 -37
q0 -8 -9 -33z" />
    <glyph glyph-name="x" unicode="x" horiz-adv-x="511" 
d="M508 612l-166 -285l5 -16l15 -41q28 -81 57 -145t29 -95q0 -17 -10 -25t-33 -11l-27 -2l-15 -1q-47 0 -69 16.5t-39 69.5l-17 55l-11 33q-4 -16 -9 -28.5l-10 -24.5l-3 -5l-23 -46q-18 -39 -36.5 -54.5t-48.5 -15.5q-9 0 -22.5 1.5t-55.5 10t-42 33.5q0 18 21 48l53 85
l5 9l26 47l9 14l41 67l5 8l16 30l-10 33l-6 18l-16 48l-19 49l-7 20l-18.5 57t-13 43.5t-6.5 44.5q0 40 45 40h12q9 -2 14 -2l36 -5l15 -2q38 -5 45.5 -13.5t19.5 -54.5l9 -40l3 -12l6 -28l5 -24l29 50l8 18l16 30q22 49 36.5 65.5t36.5 16.5q10 0 27 -3l47 -9q54 -9 54 -36
q0 -14 -13 -36z" />
    <glyph glyph-name="y" unicode="y" horiz-adv-x="459" 
d="M513 624l-6 -22l-236 -470l-60 -116l-5 -5q-19 -22 -44 -22q-10 0 -25 3l-19 5l-24 7q-56 14 -56 39q0 11 8 29l13 28l2 4l9 16l14 26l20 42l8 18l17 35l-3 21l-2 15l-20 96l-8 49l-19 102l-4 23l-5 30q-9 51 -9 78q0 48 35 48q10 0 15 -1l21 -4l14 -2l21 -4l13 -2
q31 -5 38.5 -15t12.5 -50l4 -28l2 -15l4 -31l2 -11l2 -44v-33q0 -13 -1 -20l26 62l29.5 68.5t26.5 56.5l16 28q15 25 25 33t29 8q13 0 31 -3l24 -4l10 -2l12 -4q26 -9 36.5 -17.5t10.5 -20.5q0 -7 -5 -24z" />
    <glyph glyph-name="z" unicode="z" horiz-adv-x="481" 
d="M482 590l5 -24t2 -16q0 -15 -6 -25q-10 -11 -15 -18l-51 -69l-38 -50l-13 -18l-53 -68l-19 -24l-35 -44l-36 -47l-16 -19l-8 -12l-14 -15l22 2h14h110q16 0 37 4q5 2 11 -6t5 -21q0 -14 -5 -32l-4 -12l-7 -30q-9 -30 -25.5 -39.5t-58.5 -9.5h-33l-203 3q-15 0 -24 9
t-23 39l-7 13l-6 16q-9 30 -9 43t4.5 20.5t18.5 25.5l31 43l2 3l7 8l37 44l121 160q3 6 12 17l30.5 37.5t33.5 39l30 30.5l-22 -2l-22 -1l-21 -1l-23 -1l-23 -1h-21h-30h-15l-44 1q-9 7 -6 27q0 5 2.5 16t7.5 31l8 23l4 13l2 7l7 19q7 16 14 21t26 5l6 1l123 2
q120 0 144.5 -6.5t39.5 -45.5l10 -30l2 -8z" />
    <glyph glyph-name="braceleft" unicode="{" horiz-adv-x="320" 
d="M358 719q-9 -36 -45 -36h-20q-35 0 -48 -46l-51 -193q-13 -48 -59.5 -77t-76.5 -29q26 -2 54 -24t28 -60q0 -6 -4 -24l-52 -193q-3 -12 -3 -21q0 -25 26 -25h20q28 0 28 -23q0 -3 -5.5 -26t-41.5 -23h-59q-36 0 -52 12t-16 39q0 21 9 53l59 223l3.5 14.5t1.5 14.5
q0 15 -7 19.5t-21 4.5q-15 0 -22.5 7.5t-7.5 19.5l2 11q4 16 17 27t31 11q19 0 31 9.5t21 43.5l60 223q15 57 39.5 80.5t75.5 23.5h59q28 0 28 -23q0 -3 -2 -13z" />
    <glyph glyph-name="bar" unicode="|" horiz-adv-x="259" 
d="M184 0h-104v800h104v-800z" />
    <glyph glyph-name="braceright" unicode="}" horiz-adv-x="320" 
d="M292 651l-59 -223q-3 -10 -4 -18t-1 -11q0 -15 7 -19.5t21 -4.5q15 0 22.5 -7.5t7.5 -19.5l-2 -11q-4 -16 -17 -27t-31 -11q-19 0 -31 -9.5t-21 -43.5l-60 -223q-15 -57 -39.5 -80.5t-75.5 -23.5h-59q-28 0 -28 23q0 3 5.5 26t41.5 23h20q35 0 48 46l51 193
q13 48 59.5 77t76.5 29q-26 2 -54 24t-28 60q0 6 4 24l52 193q3 12 3 21q0 25 -26 25h-20q-28 0 -28 23q0 3 5.5 26t41.5 23h59q36 0 52 -12t16 -39q0 -21 -9 -53z" />
    <glyph glyph-name="asciitilde" unicode="~" horiz-adv-x="600" 
d="M559 321q0 -53 -40.5 -95.5t-106.5 -42.5q-38 0 -122.5 34t-94.5 34q-27 0 -60 -30t-51 -30q-22 0 -32.5 15t-10.5 39q0 53 39.5 95.5t101.5 42.5q46 0 124 -34t99 -34q27 0 60 30t51 30q22 0 32.5 -15t10.5 -39z" />
    <glyph glyph-name="Adieresis" unicode="&#xc4;" horiz-adv-x="538" 
d="M444 395q0 -46 -3.5 -140.5t-3.5 -134.5l-3 -46l-1 -14l-1 -26v-10q0 -11 -13 -21.5t-35 -10.5l-34 -2h-16q-16 0 -32 5t-24 17.5t-8 36.5l2 60l1 23l1 17l1 30v26l1 20l-3 -6l-10 -20q-13 -24 -26.5 -32t-43.5 -8q-15 0 -21 2l-10 -21l-11 -27l-19 -40l-4 -9
q-17 -43 -28.5 -57t-31.5 -14q-10 0 -16 1t-17 4t-17 4.5t-15 6.5q-16 4 -24 11q-32 18 -32 36q0 9 8 31l15 35l6 12l8 24q-11 2 -15.5 6.5t-4.5 17.5q0 18 12 66l4 13l2 7l10 32q10 30 19.5 35.5t49.5 5.5h9l8 14l5 12l4 6l21 47l4 9l32 63l49 94q39 76 55.5 96.5
t42.5 20.5q6 0 22 -2l27 -4l11 -2q63 -8 76.5 -29t13.5 -116zM300 494l-11 -26l-2 -6l-34 -97l-2 -6l-7 -22h43l3 27l3 26l3 27l1 26l2 25zM516 823q1 -13 -4 -37l-6 -14q-20 -40 -58 -46l-13 -1q-45 0 -49.5 24.5t-4.5 34.5q0 12 4 27.5t13 30t16.5 19t20 9t19.5 5.5t13 1
q49 0 49 -53zM311 823q1 -13 -4 -37l-6 -14q-20 -40 -58 -46l-13 -1q-45 0 -49.5 24.5t-4.5 34.5q0 12 4 27.5t13 30t16.5 19t20 9t19.5 5.5t13 1q49 0 49 -53z" />
    <glyph glyph-name="Aring" unicode="&#xc5;" horiz-adv-x="538" 
d="M444 395q0 -46 -3.5 -140.5t-3.5 -134.5l-3 -46l-1 -14l-1 -26v-10q0 -11 -13 -21.5t-35 -10.5l-34 -2h-16q-16 0 -32 5t-24 17.5t-8 36.5l2 60l1 23l1 17l1 30v26l1 20l-3 -6l-10 -20q-13 -24 -26.5 -32t-43.5 -8q-15 0 -21 2l-10 -21l-11 -27l-19 -40l-4 -9
q-17 -43 -28.5 -57t-31.5 -14q-10 0 -16 1t-17 4t-17 4.5t-15 6.5q-16 4 -24 11q-32 18 -32 36q0 9 8 31l15 35l6 12l8 24q-11 2 -15.5 6.5t-4.5 17.5q0 18 12 66l4 13l2 7l10 32q10 30 19.5 35.5t49.5 5.5h9l8 14l5 12l4 6l21 47l4 9l32 63l49 94q39 76 55.5 96.5
t42.5 20.5q6 0 22 -2l27 -4l11 -2q63 -8 76.5 -29t13.5 -116zM300 494l-11 -26l-2 -6l-34 -97l-2 -6l-7 -22h43l3 27l3 26l3 27l1 26l2 25zM439 819v-22q0 -17 -2 -22.5l-7 -19.5q-12 -22 -36 -36.5t-48 -18.5q-15 1 -21 1q-54 0 -59.5 34.5t-7 45.5t-1.5 14q0 13 2.5 22.5
t12 25.5t24.5 26.5t31.5 16.5t32.5 6q33 0 56 -20t23 -53zM396 803q0 17 -12 27t-29 10q-4 0 -13 -3t-17.5 -8.5t-13.5 -15.5q-6 -8 -6 -24q0 -7 3.5 -26t30.5 -19l8 1q14 2 25.5 8.5t17.5 18.5l4 9q3 13 2 22z" />
    <glyph glyph-name="Ccedilla" unicode="&#xc7;" horiz-adv-x="487" 
d="M496 571q0 -61 -16.5 -89t-50 -35.5t-53.5 -7.5q-47 0 -52 30l8 31q3 12 2 21q0 17 -17 19q-15 2 -31.5 -14t-39.5 -62l-17 -37q-13 -37 -20.5 -62.5t-10.5 -50.5q-12 -68 -12 -96q0 -17 7.5 -27.5t23.5 -10.5q9 0 15.5 5t12.5 13.5t23 42.5l5 14q8 17 21 24.5t36 7.5
q11 0 18 -1h9l30 -3q41 -4 41 -36q0 -11 -2 -18l-7 -28l-3 -9q-36 -128 -100.5 -161.5t-94.5 -39.5q9 -5 12.5 -14t3.5 -26q0 -19 -5.5 -49.5t-23 -56t-53 -42t-68.5 -27.5q-8 -4 -18 -4q-13 0 -22.5 7.5t-9.5 19.5v16q0 3 28.5 14t36.5 30t8 26q0 17 -7.5 33.5t-11.5 24.5
q-2 12 -2 16q0 29 33 37q-112 40 -112 271q5 53 21.5 116t34.5 104.5t83 131t193 89.5q73 0 113.5 -35.5t40.5 -101.5z" />
    <glyph glyph-name="Eacute" unicode="&#xc9;" horiz-adv-x="492" 
d="M530 644l-3 -15l-7 -26l-3 -10l-11 -35q-11 -31 -20 -36t-54 -5l-31 1q-17 3 -48 3l-9 1h-38l-18 1l-27 1q-14 1 -49 -4l35 -14q35 -15 35 -31q0 -6 -3 -15l-6 -26l-5 -20l61 -1l57 -1q40 0 55.5 -6.5t15.5 -25.5q0 -12 -6 -32l-9 -32l-2 -10l-8 -21q-9 -28 -17.5 -34.5
t-41.5 -6.5h-43.5t-39.5 1h-17l-54 -1l-6 -16l-4 -12l-4 -12l-5 -21l-4 -20l-3 -10l31 -1h16h13h36t31 1q44 0 60.5 -6.5t16.5 -26.5q0 -10 -5 -28l-10 -41q-10 -37 -23.5 -48.5t-47.5 -11.5l-87 2h-87q-41 0 -57.5 6t-43 36.5t-26.5 70.5q0 25 9 61l10 37l10 38
q-34 0 -34 37q0 9 3 21l5 24l3 15q8 40 23 58t36 18q7 0 11 -1l13 34l5 15l5 21l5 21l4 14l-12 1q-43 6 -43 26q0 5 4 21l5 23l3 9l5 21q16 48 25 63.5t69 15.5h36h61h13l42 -1h32l36 -1l38 -1h7l44 -1q49 0 49 -33zM448 839q14 -14 14 -25q0 -13 -16 -20l-17 -6l-26 -9
l-11 -5l-27 -10l-10 -4l-38 -13l-20 -7l-15 -5q-27 -8 -38 -8q-4 0 -20.5 5.5t-16.5 28.5q0 8 5 14.5t8 8.5t15 13t19.5 17t24 16.5t23.5 14.5l39 21q29 18 43 18q16 0 44 -26l7 -7z" />
    <glyph glyph-name="Ntilde" unicode="&#xd1;" horiz-adv-x="615" 
d="M609 598l-25 -110l-26 -111l-11 -39l-19 -70l-32 -110q-22 -65 -27.5 -82.5t-4.5 -25.5v-5l4 -14q2 -8 2 -11q0 -24 -50 -24q-5 -1 -25 1q-12 0 -23.5 3t-18.5 5l-9 3l-18 6q-26 11 -34.5 27.5t-16.5 70.5l-3 23l-10 60l-7 36l-7 46l-7 42l-6 39l-4 23l-7 40l-4 -29
l-2 -17l-9 -55l-2 -14l-1 -6l-12 -62l-15 -62l-1 -7l-3 -14l-15 -56l-13 -54l-4 -12q-10 -38 -45 -38q-5 0 -41 5t-58 16.5t-22 35.5q0 14 8 41l1 3l11 38l37 150l35 137l11 44l38 139l9 30q7 22 15.5 45t27.5 23q9 0 37 -5l31 -8q49 -16 64 -26t25 -34l11 -27l6 -18l5 -14
q11 -28 15.5 -49t11.5 -69v-6l9 -72l1 -5l3 -22l2 24l1 19q5 38 13 74.5l12 55.5l22 83l20 73q10 22 38 22q13 0 29 -4l13 -4l32 -9q43 -14 43 -47q0 -11 -5 -36zM537 820q0 -14 -3.5 -20.5t-18.5 -21.5l-46 -40q-7 -7 -20 -10.5t-26 -3.5q-11 0 -28.5 6t-27.5 12l-20 12
t-30 6q-7 0 -14 -4.5t-21 -12.5t-20 -8q-6 1 -11 1q-11 0 -18 3.5t-17.5 14t-10.5 22.5q2 8 8.5 17t12 12t19 18.5t19.5 20t24.5 13.5t32.5 9q17 0 28 -3.5t21 -7.5t31 -14.5t28 -10.5q13 0 19.5 6l12.5 12l20 11.5t18 4.5q13 0 17.5 -3t11.5 -11.5t8 -13t1 -16.5z" />
    <glyph glyph-name="Odieresis" unicode="&#xd6;" horiz-adv-x="580" 
d="M555 493q0 -51 -6.5 -98t-24 -109.5t-45.5 -114.5t-72.5 -97t-87 -67.5t-89.5 -22.5q-17 0 -74 7.5t-101.5 84t-44.5 165.5q0 83 32 191l21 55q31 70 76 120.5t84 70t69 27.5t46 8q21 -2 27.5 -6.5t6.5 -20.5l-2 -24l-2 -37l42 35l10 9l20 16q23 19 41 19q23 0 45 -38
q12 -24 20.5 -67.5t8.5 -105.5zM368 473l-1 10l-1 23q-4 42 -15 68l-2 -7l-5 -13q-3 -11 -5 -14.5t-3 -5.5l-31 -20q-33 -23 -62.5 -73t-38.5 -91.5t-11.5 -62t-2.5 -34.5q0 -32 11 -56.5t39 -24.5q15 0 32.5 15.5t39.5 55t31.5 71.5t14 56t6.5 44zM582 823q1 -13 -4 -37
l-6 -14q-20 -40 -58 -46l-13 -1q-45 0 -49.5 24.5t-4.5 34.5q0 12 4 27.5t13 30t16.5 19t20 9t19.5 5.5t13 1q49 0 49 -53zM377 823q1 -13 -4 -37l-6 -14q-20 -40 -58 -46l-13 -1q-45 0 -49.5 24.5t-4.5 34.5q0 12 4 27.5t13 30t16.5 19t20 9t19.5 5.5t13 1q49 0 49 -53z
" />
    <glyph glyph-name="Udieresis" unicode="&#xdc;" horiz-adv-x="589" 
d="M594 612l-18 -79l-7 -26l-14 -53l-16 -59l-4 -18l-23 -78l-18 -60l-5 -17q-10 -36 -22.5 -65t-53 -99t-160.5 -70q-20 0 -30 1t-32.5 6t-35.5 10t-46.5 26t-54.5 53t-27 85l-2 26q0 10 1 22t5 30l5 37l3 13l4 17l17 70l57 233l14 58q6 14 25.5 20.5t52.5 6.5l12 -2l33 -4
q33 -5 44.5 -12t11.5 -24q0 -11 -3.5 -24.5t-5.5 -23.5l-5 -22l-8 -29l-14 -50l-11 -44l-9 -36l-10 -42l-14 -57l-4 -19l-8 -38q-10 -47 -10 -57q0 -8 6.5 -25t33.5 -17q6 0 21.5 2t29.5 27t41 119l14 52l4 17l3 11l13 53l42 152l5 23l4 12q1 3 1.5 5t12 22.5t45.5 20.5
q8 -1 12 -1l20 -2l15 -2q37 -4 52.5 -13.5t15.5 -30.5q0 -11 -5 -31zM576 823q1 -13 -4 -37l-6 -14q-20 -40 -58 -46l-13 -1q-45 0 -49.5 24.5t-4.5 34.5q0 12 4 27.5t13 30t16.5 19t20 9t19.5 5.5t13 1q49 0 49 -53zM371 823q1 -13 -4 -37l-6 -14q-20 -40 -58 -46l-13 -1
q-45 0 -49.5 24.5t-4.5 34.5q0 12 4 27.5t13 30t16.5 19t20 9t19.5 5.5t13 1q49 0 49 -53z" />
    <glyph glyph-name="aacute" unicode="&#xe1;" horiz-adv-x="538" 
d="M444 395q0 -46 -3.5 -140.5t-3.5 -134.5l-3 -46l-1 -14l-1 -26v-10q0 -11 -13 -21.5t-35 -10.5l-34 -2h-16q-16 0 -32 5t-24 17.5t-8 36.5l2 60l1 23l1 17l1 30v26l1 20l-3 -6l-10 -20q-13 -24 -26.5 -32t-43.5 -8q-15 0 -21 2l-10 -21l-11 -27l-19 -40l-4 -9
q-17 -43 -28.5 -57t-31.5 -14q-10 0 -16 1t-17 4t-17 4.5t-15 6.5q-16 4 -24 11q-32 18 -32 36q0 9 8 31l15 35l6 12l8 24q-11 2 -15.5 6.5t-4.5 17.5q0 18 12 66l4 13l2 7l10 32q10 30 19.5 35.5t49.5 5.5h9l8 14l5 12l4 6l21 47l4 9l32 63l49 94q39 76 55.5 96.5
t42.5 20.5q6 0 22 -2l27 -4l11 -2q63 -8 76.5 -29t13.5 -116zM300 494l-11 -26l-2 -6l-34 -97l-2 -6l-7 -22h43l3 27l3 26l3 27l1 26l2 25zM451 839q14 -14 14 -25q0 -13 -16 -20l-17 -6l-26 -9l-11 -5l-27 -10l-10 -4l-38 -13l-20 -7l-15 -5q-27 -8 -38 -8q-4 0 -20.5 5.5
t-16.5 28.5q0 8 5 14.5t8 8.5t15 13t19.5 17t24 16.5t23.5 14.5l39 21q29 18 43 18q16 0 44 -26l7 -7z" />
    <glyph glyph-name="agrave" unicode="&#xe0;" horiz-adv-x="538" 
d="M444 395q0 -46 -3.5 -140.5t-3.5 -134.5l-3 -46l-1 -14l-1 -26v-10q0 -11 -13 -21.5t-35 -10.5l-34 -2h-16q-16 0 -32 5t-24 17.5t-8 36.5l2 60l1 23l1 17l1 30v26l1 20l-3 -6l-10 -20q-13 -24 -26.5 -32t-43.5 -8q-15 0 -21 2l-10 -21l-11 -27l-19 -40l-4 -9
q-17 -43 -28.5 -57t-31.5 -14q-10 0 -16 1t-17 4t-17 4.5t-15 6.5q-16 4 -24 11q-32 18 -32 36q0 9 8 31l15 35l6 12l8 24q-11 2 -15.5 6.5t-4.5 17.5q0 18 12 66l4 13l2 7l10 32q10 30 19.5 35.5t49.5 5.5h9l8 14l5 12l4 6l21 47l4 9l32 63l49 94q39 76 55.5 96.5
t42.5 20.5q6 0 22 -2l27 -4l11 -2q63 -8 76.5 -29t13.5 -116zM300 494l-11 -26l-2 -6l-34 -97l-2 -6l-7 -22h43l3 27l3 26l3 27l1 26l2 25zM449 774q4 -5 4 -14q0 -22 -16.5 -27.5t-21.5 -5.5q-9 0 -18.5 2.5t-18.5 5.5l-15 5l-20 7l-38 13l-10 4l-27 10l-11 5l-26 9l-17 6
q-16 7 -16 20q0 11 14 25l13 12l7 7q28 26 44 26q8 0 19 -5t24 -13l39 -21q12 -8 25.5 -16t31 -22.5t24.5 -22.5q4 -2 10 -10z" />
    <glyph glyph-name="acircumflex" unicode="&#xe2;" horiz-adv-x="538" 
d="M444 395q0 -46 -3.5 -140.5t-3.5 -134.5l-3 -46l-1 -14l-1 -26v-10q0 -11 -13 -21.5t-35 -10.5l-34 -2h-16q-16 0 -32 5t-24 17.5t-8 36.5l2 60l1 23l1 17l1 30v26l1 20l-3 -6l-10 -20q-13 -24 -26.5 -32t-43.5 -8q-15 0 -21 2l-10 -21l-11 -27l-19 -40l-4 -9
q-17 -43 -28.5 -57t-31.5 -14q-10 0 -16 1t-17 4t-17 4.5t-15 6.5q-16 4 -24 11q-32 18 -32 36q0 9 8 31l15 35l6 12l8 24q-11 2 -15.5 6.5t-4.5 17.5q0 18 12 66l4 13l2 7l10 32q10 30 19.5 35.5t49.5 5.5h9l8 14l5 12l4 6l21 47l4 9l32 63l49 94q39 76 55.5 96.5
t42.5 20.5q6 0 22 -2l27 -4l11 -2q63 -8 76.5 -29t13.5 -116zM300 494l-11 -26l-2 -6l-34 -97l-2 -6l-7 -22h43l3 27l3 26l3 27l1 26l2 25zM498 770q4 -5 4 -14q0 -22 -16.5 -27.5t-21.5 -5.5q-9 0 -18.5 2.5t-18.5 5.5l-15 5l-12 3l-30 21l-10 4l-17 6l-65 -17l-20 -7
l-15 -5q-22 -7 -31 -7q-7 2 -22.5 7t-15.5 28q0 8 5 14.5t9 8.5q2 3 10.5 12t16.5 15t23.5 13t24.5 13l39 21q29 17 43 17t30 -13l9 -4l35 -21q8 -5 13 -9l20.5 -16t22.5 -22l13 -18q4 -2 10 -10z" />
    <glyph glyph-name="adieresis" unicode="&#xe4;" horiz-adv-x="538" 
d="M444 395q0 -46 -3.5 -140.5t-3.5 -134.5l-3 -46l-1 -14l-1 -26v-10q0 -11 -13 -21.5t-35 -10.5l-34 -2h-16q-16 0 -32 5t-24 17.5t-8 36.5l2 60l1 23l1 17l1 30v26l1 20l-3 -6l-10 -20q-13 -24 -26.5 -32t-43.5 -8q-15 0 -21 2l-10 -21l-11 -27l-19 -40l-4 -9
q-17 -43 -28.5 -57t-31.5 -14q-10 0 -16 1t-17 4t-17 4.5t-15 6.5q-16 4 -24 11q-32 18 -32 36q0 9 8 31l15 35l6 12l8 24q-11 2 -15.5 6.5t-4.5 17.5q0 18 12 66l4 13l2 7l10 32q10 30 19.5 35.5t49.5 5.5h9l8 14l5 12l4 6l21 47l4 9l32 63l49 94q39 76 55.5 96.5
t42.5 20.5q6 0 22 -2l27 -4l11 -2q63 -8 76.5 -29t13.5 -116zM300 494l-11 -26l-2 -6l-34 -97l-2 -6l-7 -22h43l3 27l3 26l3 27l1 26l2 25zM516 823q1 -13 -4 -37l-6 -14q-20 -40 -58 -46l-13 -1q-45 0 -49.5 24.5t-4.5 34.5q0 12 4 27.5t13 30t16.5 19t20 9t19.5 5.5t13 1
q49 0 49 -53zM311 823q1 -13 -4 -37l-6 -14q-20 -40 -58 -46l-13 -1q-45 0 -49.5 24.5t-4.5 34.5q0 12 4 27.5t13 30t16.5 19t20 9t19.5 5.5t13 1q49 0 49 -53z" />
    <glyph glyph-name="atilde" unicode="&#xe3;" horiz-adv-x="538" 
d="M444 395q0 -46 -3.5 -140.5t-3.5 -134.5l-3 -46l-1 -14l-1 -26v-10q0 -11 -13 -21.5t-35 -10.5l-34 -2h-16q-16 0 -32 5t-24 17.5t-8 36.5l2 60l1 23l1 17l1 30v26l1 20l-3 -6l-10 -20q-13 -24 -26.5 -32t-43.5 -8q-15 0 -21 2l-10 -21l-11 -27l-19 -40l-4 -9
q-17 -43 -28.5 -57t-31.5 -14q-10 0 -16 1t-17 4t-17 4.5t-15 6.5q-16 4 -24 11q-32 18 -32 36q0 9 8 31l15 35l6 12l8 24q-11 2 -15.5 6.5t-4.5 17.5q0 18 12 66l4 13l2 7l10 32q10 30 19.5 35.5t49.5 5.5h9l8 14l5 12l4 6l21 47l4 9l32 63l49 94q39 76 55.5 96.5
t42.5 20.5q6 0 22 -2l27 -4l11 -2q63 -8 76.5 -29t13.5 -116zM300 494l-11 -26l-2 -6l-34 -97l-2 -6l-7 -22h43l3 27l3 26l3 27l1 26l2 25zM504 820q0 -14 -3.5 -20.5t-18.5 -21.5l-46 -40q-7 -7 -20 -10.5t-26 -3.5q-11 0 -28.5 6t-27.5 12l-20 12t-30 6q-7 0 -14 -4.5
t-21 -12.5t-20 -8q-6 1 -11 1q-11 0 -18 3.5t-17.5 14t-10.5 22.5q2 8 8.5 17t12 12t19 18.5t19.5 20t24.5 13.5t32.5 9q17 0 28 -3.5t21 -7.5t31 -14.5t28 -10.5q13 0 19.5 6l12.5 12l20 11.5t18 4.5q13 0 17.5 -3t11.5 -11.5t8 -13t1 -16.5z" />
    <glyph glyph-name="aring" unicode="&#xe5;" horiz-adv-x="538" 
d="M444 395q0 -46 -3.5 -140.5t-3.5 -134.5l-3 -46l-1 -14l-1 -26v-10q0 -11 -13 -21.5t-35 -10.5l-34 -2h-16q-16 0 -32 5t-24 17.5t-8 36.5l2 60l1 23l1 17l1 30v26l1 20l-3 -6l-10 -20q-13 -24 -26.5 -32t-43.5 -8q-15 0 -21 2l-10 -21l-11 -27l-19 -40l-4 -9
q-17 -43 -28.5 -57t-31.5 -14q-10 0 -16 1t-17 4t-17 4.5t-15 6.5q-16 4 -24 11q-32 18 -32 36q0 9 8 31l15 35l6 12l8 24q-11 2 -15.5 6.5t-4.5 17.5q0 18 12 66l4 13l2 7l10 32q10 30 19.5 35.5t49.5 5.5h9l8 14l5 12l4 6l21 47l4 9l32 63l49 94q39 76 55.5 96.5
t42.5 20.5q6 0 22 -2l27 -4l11 -2q63 -8 76.5 -29t13.5 -116zM300 494l-11 -26l-2 -6l-34 -97l-2 -6l-7 -22h43l3 27l3 26l3 27l1 26l2 25zM439 819v-22q0 -17 -2 -22.5l-7 -19.5q-12 -22 -36 -36.5t-48 -18.5q-15 1 -21 1q-54 0 -59.5 34.5t-7 45.5t-1.5 14q0 13 2.5 22.5
t12 25.5t24.5 26.5t31.5 16.5t32.5 6q33 0 56 -20t23 -53zM396 803q0 17 -12 27t-29 10q-4 0 -13 -3t-17.5 -8.5t-13.5 -15.5q-6 -8 -6 -24q0 -7 3.5 -26t30.5 -19l8 1q14 2 25.5 8.5t17.5 18.5l4 9q3 13 2 22z" />
    <glyph glyph-name="ccedilla" unicode="&#xe7;" horiz-adv-x="487" 
d="M496 571q0 -61 -16.5 -89t-50 -35.5t-53.5 -7.5q-47 0 -52 30l8 31q3 12 2 21q0 17 -17 19q-15 2 -31.5 -14t-39.5 -62l-17 -37q-13 -37 -20.5 -62.5t-10.5 -50.5q-12 -68 -12 -96q0 -17 7.5 -27.5t23.5 -10.5q9 0 15.5 5t12.5 13.5t23 42.5l5 14q8 17 21 24.5t36 7.5
q11 0 18 -1h9l30 -3q41 -4 41 -36q0 -11 -2 -18l-7 -28l-3 -9q-36 -128 -100.5 -161.5t-94.5 -39.5q9 -5 12.5 -14t3.5 -26q0 -19 -5.5 -49.5t-23 -56t-53 -42t-68.5 -27.5q-8 -4 -18 -4q-13 0 -22.5 7.5t-9.5 19.5v16q0 3 28.5 14t36.5 30t8 26q0 17 -7.5 33.5t-11.5 24.5
q-2 12 -2 16q0 29 33 37q-112 40 -112 271q5 53 21.5 116t34.5 104.5t83 131t193 89.5q73 0 113.5 -35.5t40.5 -101.5z" />
    <glyph glyph-name="eacute" unicode="&#xe9;" horiz-adv-x="492" 
d="M530 644l-3 -15l-7 -26l-3 -10l-11 -35q-11 -31 -20 -36t-54 -5l-31 1q-17 3 -48 3l-9 1h-38l-18 1l-27 1q-14 1 -49 -4l35 -14q35 -15 35 -31q0 -6 -3 -15l-6 -26l-5 -20l61 -1l57 -1q40 0 55.5 -6.5t15.5 -25.5q0 -12 -6 -32l-9 -32l-2 -10l-8 -21q-9 -28 -17.5 -34.5
t-41.5 -6.5h-43.5t-39.5 1h-17l-54 -1l-6 -16l-4 -12l-4 -12l-5 -21l-4 -20l-3 -10l31 -1h16h13h36t31 1q44 0 60.5 -6.5t16.5 -26.5q0 -10 -5 -28l-10 -41q-10 -37 -23.5 -48.5t-47.5 -11.5l-87 2h-87q-41 0 -57.5 6t-43 36.5t-26.5 70.5q0 25 9 61l10 37l10 38
q-34 0 -34 37q0 9 3 21l5 24l3 15q8 40 23 58t36 18q7 0 11 -1l13 34l5 15l5 21l5 21l4 14l-12 1q-43 6 -43 26q0 5 4 21l5 23l3 9l5 21q16 48 25 63.5t69 15.5h36h61h13l42 -1h32l36 -1l38 -1h7l44 -1q49 0 49 -33zM448 839q14 -14 14 -25q0 -13 -16 -20l-17 -6l-26 -9
l-11 -5l-27 -10l-10 -4l-38 -13l-20 -7l-15 -5q-27 -8 -38 -8q-4 0 -20.5 5.5t-16.5 28.5q0 8 5 14.5t8 8.5t15 13t19.5 17t24 16.5t23.5 14.5l39 21q29 18 43 18q16 0 44 -26l7 -7z" />
    <glyph glyph-name="egrave" unicode="&#xe8;" horiz-adv-x="492" 
d="M530 644l-3 -15l-7 -26l-3 -10l-11 -35q-11 -31 -20 -36t-54 -5l-31 1q-17 3 -48 3l-9 1h-38l-18 1l-27 1q-14 1 -49 -4l35 -14q35 -15 35 -31q0 -6 -3 -15l-6 -26l-5 -20l61 -1l57 -1q40 0 55.5 -6.5t15.5 -25.5q0 -12 -6 -32l-9 -32l-2 -10l-8 -21q-9 -28 -17.5 -34.5
t-41.5 -6.5h-43.5t-39.5 1h-17l-54 -1l-6 -16l-4 -12l-4 -12l-5 -21l-4 -20l-3 -10l31 -1h16h13h36t31 1q44 0 60.5 -6.5t16.5 -26.5q0 -10 -5 -28l-10 -41q-10 -37 -23.5 -48.5t-47.5 -11.5l-87 2h-87q-41 0 -57.5 6t-43 36.5t-26.5 70.5q0 25 9 61l10 37l10 38
q-34 0 -34 37q0 9 3 21l5 24l3 15q8 40 23 58t36 18q7 0 11 -1l13 34l5 15l5 21l5 21l4 14l-12 1q-43 6 -43 26q0 5 4 21l5 23l3 9l5 21q16 48 25 63.5t69 15.5h36h61h13l42 -1h32l36 -1l38 -1h7l44 -1q49 0 49 -33zM449 774q4 -5 4 -14q0 -22 -16.5 -27.5t-21.5 -5.5
q-9 0 -18.5 2.5t-18.5 5.5l-15 5l-20 7l-38 13l-10 4l-27 10l-11 5l-26 9l-17 6q-16 7 -16 20q0 11 14 25l13 12l7 7q28 26 44 26q8 0 19 -5t24 -13l39 -21q12 -8 25.5 -16t31 -22.5t24.5 -22.5q4 -2 10 -10z" />
    <glyph glyph-name="ecircumflex" unicode="&#xea;" horiz-adv-x="492" 
d="M530 644l-3 -15l-7 -26l-3 -10l-11 -35q-11 -31 -20 -36t-54 -5l-31 1q-17 3 -48 3l-9 1h-38l-18 1l-27 1q-14 1 -49 -4l35 -14q35 -15 35 -31q0 -6 -3 -15l-6 -26l-5 -20l61 -1l57 -1q40 0 55.5 -6.5t15.5 -25.5q0 -12 -6 -32l-9 -32l-2 -10l-8 -21q-9 -28 -17.5 -34.5
t-41.5 -6.5h-43.5t-39.5 1h-17l-54 -1l-6 -16l-4 -12l-4 -12l-5 -21l-4 -20l-3 -10l31 -1h16h13h36t31 1q44 0 60.5 -6.5t16.5 -26.5q0 -10 -5 -28l-10 -41q-10 -37 -23.5 -48.5t-47.5 -11.5l-87 2h-87q-41 0 -57.5 6t-43 36.5t-26.5 70.5q0 25 9 61l10 37l10 38
q-34 0 -34 37q0 9 3 21l5 24l3 15q8 40 23 58t36 18q7 0 11 -1l13 34l5 15l5 21l5 21l4 14l-12 1q-43 6 -43 26q0 5 4 21l5 23l3 9l5 21q16 48 25 63.5t69 15.5h36h61h13l42 -1h32l36 -1l38 -1h7l44 -1q49 0 49 -33zM478 770q4 -5 4 -14q0 -22 -16.5 -27.5t-21.5 -5.5
q-9 0 -18.5 2.5t-18.5 5.5l-15 5l-12 3l-30 21l-10 4l-17 6l-65 -17l-20 -7l-15 -5q-22 -7 -31 -7q-7 2 -22.5 7t-15.5 28q0 8 5 14.5t9 8.5q2 3 10.5 12t16.5 15t23.5 13t24.5 13l39 21q29 17 43 17t30 -13l9 -4l35 -21q8 -5 13 -9l20.5 -16t22.5 -22l13 -18q4 -2 10 -10z
" />
    <glyph glyph-name="edieresis" unicode="&#xeb;" horiz-adv-x="492" 
d="M530 644l-3 -15l-7 -26l-3 -10l-11 -35q-11 -31 -20 -36t-54 -5l-31 1q-17 3 -48 3l-9 1h-38l-18 1l-27 1q-14 1 -49 -4l35 -14q35 -15 35 -31q0 -6 -3 -15l-6 -26l-5 -20l61 -1l57 -1q40 0 55.5 -6.5t15.5 -25.5q0 -12 -6 -32l-9 -32l-2 -10l-8 -21q-9 -28 -17.5 -34.5
t-41.5 -6.5h-43.5t-39.5 1h-17l-54 -1l-6 -16l-4 -12l-4 -12l-5 -21l-4 -20l-3 -10l31 -1h16h13h36t31 1q44 0 60.5 -6.5t16.5 -26.5q0 -10 -5 -28l-10 -41q-10 -37 -23.5 -48.5t-47.5 -11.5l-87 2h-87q-41 0 -57.5 6t-43 36.5t-26.5 70.5q0 25 9 61l10 37l10 38
q-34 0 -34 37q0 9 3 21l5 24l3 15q8 40 23 58t36 18q7 0 11 -1l13 34l5 15l5 21l5 21l4 14l-12 1q-43 6 -43 26q0 5 4 21l5 23l3 9l5 21q16 48 25 63.5t69 15.5h36h61h13l42 -1h32l36 -1l38 -1h7l44 -1q49 0 49 -33zM501 823q1 -13 -4 -37l-6 -14q-20 -40 -58 -46l-13 -1
q-45 0 -49.5 24.5t-4.5 34.5q0 12 4 27.5t13 30t16.5 19t20 9t19.5 5.5t13 1q49 0 49 -53zM296 823q1 -13 -4 -37l-6 -14q-20 -40 -58 -46l-13 -1q-45 0 -49.5 24.5t-4.5 34.5q0 12 4 27.5t13 30t16.5 19t20 9t19.5 5.5t13 1q49 0 49 -53z" />
    <glyph glyph-name="iacute" unicode="&#xed;" horiz-adv-x="300" 
d="M311 594l-32 -109l-15 -55l-15 -54l-15 -57l-25 -101l-38 -151q-11 -45 -22 -58.5t-41 -13.5q-6 0 -25.5 2t-24.5 3t-32 9t-42 21t-15 36q0 6 1 12.5t5 18.5l19 74l21 77l30 103l14 50l14 49q16 61 28 101.5t24 75.5l3 9l9 26q9 22 19.5 30t35.5 8q17 0 44 -3l29 -5
q34 -8 46 -16.5t12 -28.5q0 -18 -12 -53zM361 839q14 -14 14 -25q0 -13 -16 -20l-17 -6l-26 -9l-11 -5l-27 -10l-10 -4l-38 -13l-20 -7l-15 -5q-27 -8 -38 -8q-4 0 -20.5 5.5t-16.5 28.5q0 8 5 14.5t8 8.5t15 13t19.5 17t24 16.5t23.5 14.5l39 21q29 18 43 18q16 0 44 -26
l7 -7z" />
    <glyph glyph-name="igrave" unicode="&#xec;" horiz-adv-x="300" 
d="M311 594l-32 -109l-15 -55l-15 -54l-15 -57l-25 -101l-38 -151q-11 -45 -22 -58.5t-41 -13.5q-6 0 -25.5 2t-24.5 3t-32 9t-42 21t-15 36q0 6 1 12.5t5 18.5l19 74l21 77l30 103l14 50l14 49q16 61 28 101.5t24 75.5l3 9l9 26q9 22 19.5 30t35.5 8q17 0 44 -3l29 -5
q34 -8 46 -16.5t12 -28.5q0 -18 -12 -53zM377 774q4 -5 4 -14q0 -22 -16.5 -27.5t-21.5 -5.5q-9 0 -18.5 2.5t-18.5 5.5l-15 5l-20 7l-38 13l-10 4l-27 10l-11 5l-26 9l-17 6q-16 7 -16 20q0 11 14 25l13 12l7 7q28 26 44 26q8 0 19 -5t24 -13l39 -21q12 -8 25.5 -16
t31 -22.5t24.5 -22.5q4 -2 10 -10z" />
    <glyph glyph-name="icircumflex" unicode="&#xee;" horiz-adv-x="300" 
d="M311 594l-32 -109l-15 -55l-15 -54l-15 -57l-25 -101l-38 -151q-11 -45 -22 -58.5t-41 -13.5q-6 0 -25.5 2t-24.5 3t-32 9t-42 21t-15 36q0 6 1 12.5t5 18.5l19 74l21 77l30 103l14 50l14 49q16 61 28 101.5t24 75.5l3 9l9 26q9 22 19.5 30t35.5 8q17 0 44 -3l29 -5
q34 -8 46 -16.5t12 -28.5q0 -18 -12 -53zM396 770q4 -5 4 -14q0 -22 -16.5 -27.5t-21.5 -5.5q-9 0 -18.5 2.5t-18.5 5.5l-15 5l-12 3l-30 21l-10 4l-17 6l-65 -17l-20 -7l-15 -5q-22 -7 -31 -7q-7 2 -22.5 7t-15.5 28q0 8 5 14.5t9 8.5q2 3 10.5 12t16.5 15t23.5 13t24.5 13
l39 21q29 17 43 17t30 -13l9 -4l35 -21q8 -5 13 -9l20.5 -16t22.5 -22l13 -18q4 -2 10 -10z" />
    <glyph glyph-name="idieresis" unicode="&#xef;" horiz-adv-x="300" 
d="M311 594l-32 -109l-15 -55l-15 -54l-15 -57l-25 -101l-38 -151q-11 -45 -22 -58.5t-41 -13.5q-6 0 -25.5 2t-24.5 3t-32 9t-42 21t-15 36q0 6 1 12.5t5 18.5l19 74l21 77l30 103l14 50l14 49q16 61 28 101.5t24 75.5l3 9l9 26q9 22 19.5 30t35.5 8q17 0 44 -3l29 -5
q34 -8 46 -16.5t12 -28.5q0 -18 -12 -53zM431 823q1 -13 -4 -37l-6 -14q-20 -40 -58 -46l-13 -1q-45 0 -49.5 24.5t-4.5 34.5q0 12 4 27.5t13 30t16.5 19t20 9t19.5 5.5t13 1q49 0 49 -53zM226 823q1 -13 -4 -37l-6 -14q-20 -40 -58 -46l-13 -1q-45 0 -49.5 24.5t-4.5 34.5
q0 12 4 27.5t13 30t16.5 19t20 9t19.5 5.5t13 1q49 0 49 -53z" />
    <glyph glyph-name="ntilde" unicode="&#xf1;" horiz-adv-x="615" 
d="M609 598l-25 -110l-26 -111l-11 -39l-19 -70l-32 -110q-22 -65 -27.5 -82.5t-4.5 -25.5v-5l4 -14q2 -8 2 -11q0 -24 -50 -24q-5 -1 -25 1q-12 0 -23.5 3t-18.5 5l-9 3l-18 6q-26 11 -34.5 27.5t-16.5 70.5l-3 23l-10 60l-7 36l-7 46l-7 42l-6 39l-4 23l-7 40l-4 -29
l-2 -17l-9 -55l-2 -14l-1 -6l-12 -62l-15 -62l-1 -7l-3 -14l-15 -56l-13 -54l-4 -12q-10 -38 -45 -38q-5 0 -41 5t-58 16.5t-22 35.5q0 14 8 41l1 3l11 38l37 150l35 137l11 44l38 139l9 30q7 22 15.5 45t27.5 23q9 0 37 -5l31 -8q49 -16 64 -26t25 -34l11 -27l6 -18l5 -14
q11 -28 15.5 -49t11.5 -69v-6l9 -72l1 -5l3 -22l2 24l1 19q5 38 13 74.5l12 55.5l22 83l20 73q10 22 38 22q13 0 29 -4l13 -4l32 -9q43 -14 43 -47q0 -11 -5 -36zM537 820q0 -14 -3.5 -20.5t-18.5 -21.5l-46 -40q-7 -7 -20 -10.5t-26 -3.5q-11 0 -28.5 6t-27.5 12l-20 12
t-30 6q-7 0 -14 -4.5t-21 -12.5t-20 -8q-6 1 -11 1q-11 0 -18 3.5t-17.5 14t-10.5 22.5q2 8 8.5 17t12 12t19 18.5t19.5 20t24.5 13.5t32.5 9q17 0 28 -3.5t21 -7.5t31 -14.5t28 -10.5q13 0 19.5 6l12.5 12l20 11.5t18 4.5q13 0 17.5 -3t11.5 -11.5t8 -13t1 -16.5z" />
    <glyph glyph-name="oacute" unicode="&#xf3;" horiz-adv-x="580" 
d="M555 493q0 -51 -6.5 -98t-24 -109.5t-45.5 -114.5t-72.5 -97t-87 -67.5t-89.5 -22.5q-17 0 -74 7.5t-101.5 84t-44.5 165.5q0 83 32 191l21 55q31 70 76 120.5t84 70t69 27.5t46 8q21 -2 27.5 -6.5t6.5 -20.5l-2 -24l-2 -37l42 35l10 9l20 16q23 19 41 19q23 0 45 -38
q12 -24 20.5 -67.5t8.5 -105.5zM368 473l-1 10l-1 23q-4 42 -15 68l-2 -7l-5 -13q-3 -11 -5 -14.5t-3 -5.5l-31 -20q-33 -23 -62.5 -73t-38.5 -91.5t-11.5 -62t-2.5 -34.5q0 -32 11 -56.5t39 -24.5q15 0 32.5 15.5t39.5 55t31.5 71.5t14 56t6.5 44zM517 839q14 -14 14 -25
q0 -13 -16 -20l-17 -6l-26 -9l-11 -5l-27 -10l-10 -4l-38 -13l-20 -7l-15 -5q-27 -8 -38 -8q-4 0 -20.5 5.5t-16.5 28.5q0 8 5 14.5t8 8.5t15 13t19.5 17t24 16.5t23.5 14.5l39 21q29 18 43 18q16 0 44 -26l7 -7z" />
    <glyph glyph-name="ograve" unicode="&#xf2;" horiz-adv-x="580" 
d="M555 493q0 -51 -6.5 -98t-24 -109.5t-45.5 -114.5t-72.5 -97t-87 -67.5t-89.5 -22.5q-17 0 -74 7.5t-101.5 84t-44.5 165.5q0 83 32 191l21 55q31 70 76 120.5t84 70t69 27.5t46 8q21 -2 27.5 -6.5t6.5 -20.5l-2 -24l-2 -37l42 35l10 9l20 16q23 19 41 19q23 0 45 -38
q12 -24 20.5 -67.5t8.5 -105.5zM368 473l-1 10l-1 23q-4 42 -15 68l-2 -7l-5 -13q-3 -11 -5 -14.5t-3 -5.5l-31 -20q-33 -23 -62.5 -73t-38.5 -91.5t-11.5 -62t-2.5 -34.5q0 -32 11 -56.5t39 -24.5q15 0 32.5 15.5t39.5 55t31.5 71.5t14 56t6.5 44zM536 774q4 -5 4 -14
q0 -22 -16.5 -27.5t-21.5 -5.5q-9 0 -18.5 2.5t-18.5 5.5l-15 5l-20 7l-38 13l-10 4l-27 10l-11 5l-26 9l-17 6q-16 7 -16 20q0 11 14 25l13 12l7 7q28 26 44 26q8 0 19 -5t24 -13l39 -21q12 -8 25.5 -16t31 -22.5t24.5 -22.5q4 -2 10 -10z" />
    <glyph glyph-name="ocircumflex" unicode="&#xf4;" horiz-adv-x="580" 
d="M555 493q0 -51 -6.5 -98t-24 -109.5t-45.5 -114.5t-72.5 -97t-87 -67.5t-89.5 -22.5q-17 0 -74 7.5t-101.5 84t-44.5 165.5q0 83 32 191l21 55q31 70 76 120.5t84 70t69 27.5t46 8q21 -2 27.5 -6.5t6.5 -20.5l-2 -24l-2 -37l42 35l10 9l20 16q23 19 41 19q23 0 45 -38
q12 -24 20.5 -67.5t8.5 -105.5zM368 473l-1 10l-1 23q-4 42 -15 68l-2 -7l-5 -13q-3 -11 -5 -14.5t-3 -5.5l-31 -20q-33 -23 -62.5 -73t-38.5 -91.5t-11.5 -62t-2.5 -34.5q0 -32 11 -56.5t39 -24.5q15 0 32.5 15.5t39.5 55t31.5 71.5t14 56t6.5 44zM576 770q4 -5 4 -14
q0 -22 -16.5 -27.5t-21.5 -5.5q-9 0 -18.5 2.5t-18.5 5.5l-15 5l-12 3l-30 21l-10 4l-17 6l-65 -17l-20 -7l-15 -5q-22 -7 -31 -7q-7 2 -22.5 7t-15.5 28q0 8 5 14.5t9 8.5q2 3 10.5 12t16.5 15t23.5 13t24.5 13l39 21q29 17 43 17t30 -13l9 -4l35 -21q8 -5 13 -9l20.5 -16
t22.5 -22l13 -18q4 -2 10 -10z" />
    <glyph glyph-name="odieresis" unicode="&#xf6;" horiz-adv-x="580" 
d="M555 493q0 -51 -6.5 -98t-24 -109.5t-45.5 -114.5t-72.5 -97t-87 -67.5t-89.5 -22.5q-17 0 -74 7.5t-101.5 84t-44.5 165.5q0 83 32 191l21 55q31 70 76 120.5t84 70t69 27.5t46 8q21 -2 27.5 -6.5t6.5 -20.5l-2 -24l-2 -37l42 35l10 9l20 16q23 19 41 19q23 0 45 -38
q12 -24 20.5 -67.5t8.5 -105.5zM368 473l-1 10l-1 23q-4 42 -15 68l-2 -7l-5 -13q-3 -11 -5 -14.5t-3 -5.5l-31 -20q-33 -23 -62.5 -73t-38.5 -91.5t-11.5 -62t-2.5 -34.5q0 -32 11 -56.5t39 -24.5q15 0 32.5 15.5t39.5 55t31.5 71.5t14 56t6.5 44zM582 823q1 -13 -4 -37
l-6 -14q-20 -40 -58 -46l-13 -1q-45 0 -49.5 24.5t-4.5 34.5q0 12 4 27.5t13 30t16.5 19t20 9t19.5 5.5t13 1q49 0 49 -53zM377 823q1 -13 -4 -37l-6 -14q-20 -40 -58 -46l-13 -1q-45 0 -49.5 24.5t-4.5 34.5q0 12 4 27.5t13 30t16.5 19t20 9t19.5 5.5t13 1q49 0 49 -53z
" />
    <glyph glyph-name="otilde" unicode="&#xf5;" horiz-adv-x="580" 
d="M555 493q0 -51 -6.5 -98t-24 -109.5t-45.5 -114.5t-72.5 -97t-87 -67.5t-89.5 -22.5q-17 0 -74 7.5t-101.5 84t-44.5 165.5q0 83 32 191l21 55q31 70 76 120.5t84 70t69 27.5t46 8q21 -2 27.5 -6.5t6.5 -20.5l-2 -24l-2 -37l42 35l10 9l20 16q23 19 41 19q23 0 45 -38
q12 -24 20.5 -67.5t8.5 -105.5zM368 473l-1 10l-1 23q-4 42 -15 68l-2 -7l-5 -13q-3 -11 -5 -14.5t-3 -5.5l-31 -20q-33 -23 -62.5 -73t-38.5 -91.5t-11.5 -62t-2.5 -34.5q0 -32 11 -56.5t39 -24.5q15 0 32.5 15.5t39.5 55t31.5 71.5t14 56t6.5 44zM570 820
q0 -14 -3.5 -20.5t-18.5 -21.5l-46 -40q-7 -7 -20 -10.5t-26 -3.5q-11 0 -28.5 6t-27.5 12l-20 12t-30 6q-7 0 -14 -4.5t-21 -12.5t-20 -8q-6 1 -11 1q-11 0 -18 3.5t-17.5 14t-10.5 22.5q2 8 8.5 17t12 12t19 18.5t19.5 20t24.5 13.5t32.5 9q17 0 28 -3.5t21 -7.5t31 -14.5
t28 -10.5q13 0 19.5 6l12.5 12l20 11.5t18 4.5q13 0 17.5 -3t11.5 -11.5t8 -13t1 -16.5z" />
    <glyph glyph-name="uacute" unicode="&#xfa;" horiz-adv-x="589" 
d="M594 612l-18 -79l-7 -26l-14 -53l-16 -59l-4 -18l-23 -78l-18 -60l-5 -17q-10 -36 -22.5 -65t-53 -99t-160.5 -70q-20 0 -30 1t-32.5 6t-35.5 10t-46.5 26t-54.5 53t-27 85l-2 26q0 10 1 22t5 30l5 37l3 13l4 17l17 70l57 233l14 58q6 14 25.5 20.5t52.5 6.5l12 -2l33 -4
q33 -5 44.5 -12t11.5 -24q0 -11 -3.5 -24.5t-5.5 -23.5l-5 -22l-8 -29l-14 -50l-11 -44l-9 -36l-10 -42l-14 -57l-4 -19l-8 -38q-10 -47 -10 -57q0 -8 6.5 -25t33.5 -17q6 0 21.5 2t29.5 27t41 119l14 52l4 17l3 11l13 53l42 152l5 23l4 12q1 3 1.5 5t12 22.5t45.5 20.5
q8 -1 12 -1l20 -2l15 -2q37 -4 52.5 -13.5t15.5 -30.5q0 -11 -5 -31zM499 839q14 -14 14 -25q0 -13 -16 -20l-17 -6l-26 -9l-11 -5l-27 -10l-10 -4l-38 -13l-20 -7l-15 -5q-27 -8 -38 -8q-4 0 -20.5 5.5t-16.5 28.5q0 8 5 14.5t8 8.5t15 13t19.5 17t24 16.5t23.5 14.5l39 21
q29 18 43 18q16 0 44 -26l7 -7z" />
    <glyph glyph-name="ugrave" unicode="&#xf9;" horiz-adv-x="589" 
d="M594 612l-18 -79l-7 -26l-14 -53l-16 -59l-4 -18l-23 -78l-18 -60l-5 -17q-10 -36 -22.5 -65t-53 -99t-160.5 -70q-20 0 -30 1t-32.5 6t-35.5 10t-46.5 26t-54.5 53t-27 85l-2 26q0 10 1 22t5 30l5 37l3 13l4 17l17 70l57 233l14 58q6 14 25.5 20.5t52.5 6.5l12 -2l33 -4
q33 -5 44.5 -12t11.5 -24q0 -11 -3.5 -24.5t-5.5 -23.5l-5 -22l-8 -29l-14 -50l-11 -44l-9 -36l-10 -42l-14 -57l-4 -19l-8 -38q-10 -47 -10 -57q0 -8 6.5 -25t33.5 -17q6 0 21.5 2t29.5 27t41 119l14 52l4 17l3 11l13 53l42 152l5 23l4 12q1 3 1.5 5t12 22.5t45.5 20.5
q8 -1 12 -1l20 -2l15 -2q37 -4 52.5 -13.5t15.5 -30.5q0 -11 -5 -31zM491 774q4 -5 4 -14q0 -22 -16.5 -27.5t-21.5 -5.5q-9 0 -18.5 2.5t-18.5 5.5l-15 5l-20 7l-38 13l-10 4l-27 10l-11 5l-26 9l-17 6q-16 7 -16 20q0 11 14 25l13 12l7 7q28 26 44 26q8 0 19 -5t24 -13
l39 -21q12 -8 25.5 -16t31 -22.5t24.5 -22.5q4 -2 10 -10z" />
    <glyph glyph-name="ucircumflex" unicode="&#xfb;" horiz-adv-x="589" 
d="M594 612l-18 -79l-7 -26l-14 -53l-16 -59l-4 -18l-23 -78l-18 -60l-5 -17q-10 -36 -22.5 -65t-53 -99t-160.5 -70q-20 0 -30 1t-32.5 6t-35.5 10t-46.5 26t-54.5 53t-27 85l-2 26q0 10 1 22t5 30l5 37l3 13l4 17l17 70l57 233l14 58q6 14 25.5 20.5t52.5 6.5l12 -2l33 -4
q33 -5 44.5 -12t11.5 -24q0 -11 -3.5 -24.5t-5.5 -23.5l-5 -22l-8 -29l-14 -50l-11 -44l-9 -36l-10 -42l-14 -57l-4 -19l-8 -38q-10 -47 -10 -57q0 -8 6.5 -25t33.5 -17q6 0 21.5 2t29.5 27t41 119l14 52l4 17l3 11l13 53l42 152l5 23l4 12q1 3 1.5 5t12 22.5t45.5 20.5
q8 -1 12 -1l20 -2l15 -2q37 -4 52.5 -13.5t15.5 -30.5q0 -11 -5 -31zM531 770q4 -5 4 -14q0 -22 -16.5 -27.5t-21.5 -5.5q-9 0 -18.5 2.5t-18.5 5.5l-15 5l-12 3l-30 21l-10 4l-17 6l-65 -17l-20 -7l-15 -5q-22 -7 -31 -7q-7 2 -22.5 7t-15.5 28q0 8 5 14.5t9 8.5
q2 3 10.5 12t16.5 15t23.5 13t24.5 13l39 21q29 17 43 17t30 -13l9 -4l35 -21q8 -5 13 -9l20.5 -16t22.5 -22l13 -18q4 -2 10 -10z" />
    <glyph glyph-name="udieresis" unicode="&#xfc;" horiz-adv-x="589" 
d="M594 612l-18 -79l-7 -26l-14 -53l-16 -59l-4 -18l-23 -78l-18 -60l-5 -17q-10 -36 -22.5 -65t-53 -99t-160.5 -70q-20 0 -30 1t-32.5 6t-35.5 10t-46.5 26t-54.5 53t-27 85l-2 26q0 10 1 22t5 30l5 37l3 13l4 17l17 70l57 233l14 58q6 14 25.5 20.5t52.5 6.5l12 -2l33 -4
q33 -5 44.5 -12t11.5 -24q0 -11 -3.5 -24.5t-5.5 -23.5l-5 -22l-8 -29l-14 -50l-11 -44l-9 -36l-10 -42l-14 -57l-4 -19l-8 -38q-10 -47 -10 -57q0 -8 6.5 -25t33.5 -17q6 0 21.5 2t29.5 27t41 119l14 52l4 17l3 11l13 53l42 152l5 23l4 12q1 3 1.5 5t12 22.5t45.5 20.5
q8 -1 12 -1l20 -2l15 -2q37 -4 52.5 -13.5t15.5 -30.5q0 -11 -5 -31zM576 823q1 -13 -4 -37l-6 -14q-20 -40 -58 -46l-13 -1q-45 0 -49.5 24.5t-4.5 34.5q0 12 4 27.5t13 30t16.5 19t20 9t19.5 5.5t13 1q49 0 49 -53zM371 823q1 -13 -4 -37l-6 -14q-20 -40 -58 -46l-13 -1
q-45 0 -49.5 24.5t-4.5 34.5q0 12 4 27.5t13 30t16.5 19t20 9t19.5 5.5t13 1q49 0 49 -53z" />
    <glyph glyph-name="dagger" unicode="&#x2020;" 
 />
    <glyph glyph-name="degree" unicode="&#xb0;" 
 />
    <glyph glyph-name="cent" unicode="&#xa2;" horiz-adv-x="408" 
d="M381 498q0 -54 -19 -78t-57 -24q-27 0 -36.5 4.5t-9.5 17.5q0 4 1.5 10t3.5 13t1 15q-2 16 -18 14q-11 0 -20 -8.5t-21 -32.5l-15 -31l-4 -6q-16 -37 -26 -81l-3 -14l-5 -28l-1 -10l-2 -26q0 -4 2 -12q7 -15 23 -10q12 4 16.5 10t14 24t14.5 23t15 9l13 5q20 3 33 3
q40 0 40 -30q0 -7 -1 -14t-3 -14.5t-13.5 -35.5t-30 -51.5t-45.5 -40.5l-17 -9l-9 -24l-2 -8l-10 -28l-2 -5q-6 -16 -19 -22t-41 -6l-14 1l-22 2q-49 0 -49 38q0 5 1.5 14t5.5 22l10 34l-22.5 39t-16.5 73q0 15 3 37.5t7.5 46.5t8.5 37.5t20 62.5t51 95.5t88 73.5l3 15
q16 38 31 45t72 7q48 0 48 -41l-2 -18l-2 -10l11 -12q21 -30 21 -61z" />
    <glyph glyph-name="sterling" unicode="&#xa3;" horiz-adv-x="513" 
d="M519 593l-15 -19l-6 -7l-12 -16l-9 -11q-27 -34 -43 -34q-14 0 -37 20l-13 11q-23 16 -40 20t-27 4q-25 0 -40.5 -16.5t-15.5 -42.5q2 -16 9 -32l7 -17l6 -11q8 -17 13.5 -31t9.5 -42l2 -13l28 -3h4l27 1q20 0 25.5 -4t4.5 -19l-3 -15v-5l-2 -11q-6 -23 -11.5 -27.5
t-29.5 -4.5h-22q-5 1 -37 -2q-13 -28 -33.5 -50.5t-59.5 -52.5l-19 -12q15 -7 28.5 -9t48.5 -2q32 0 53 7l34 11q6 3 15 -3.5t17 -24.5l1 -3l8 -25l3 -6l8 -21l3 -10q3 -14 3 -22q0 -23 -19 -32.5t-51 -14.5t-47 -5q-29 0 -74 9l-26 6l-40 10l-11 3q-8 3 -19 3
q-4 0 -16.5 -2.5t-34 -15t-27.5 -12.5t-13.5 8.5t-21.5 30.5l-3 5l-16 34q-14 31 -14 42q0 15 22 28l31 20l18 11l16 10q34 23 48.5 40.5l20 24.5t12.5 21l-33 1h-9l-19 -1q-33 0 -33 19q0 10 6 34.5t31 32.5h32q10 0 30 5q-4 16 -12 30t-18 29t-13.5 44.5t-3.5 37v11.5
q0 85 61.5 140t165.5 55h19t33.5 -3t91 -30t66.5 -52q0 -9 -13 -27z" />
    <glyph glyph-name="section" unicode="&#xa7;" horiz-adv-x="439" 
d="M421 618l-7 -30q-7 -32 -16 -41.5t-36 -13.5l-35 -1q-44 0 -44 16q0 4 3 12h-12q-36 -5 -36 -31q0 -7 3 -15q63 -34 108.5 -78t45.5 -97q0 -41 -42.5 -85.5t-76.5 -73.5q19 -14 31 -30t12 -34q0 -31 -24 -69l-13 -19q-25 -32 -58.5 -51t-64.5 -25.5t-51 -7.5t-43 -1
q-48 4 -65 12.5t-17 32.5v12t4 21v5l7 30q7 32 16 41.5t36 13.5l35 1q44 0 44 -16q0 -4 -3 -12h12q36 5 36 31q0 7 -3 15q-63 34 -108.5 78t-45.5 97q0 41 42.5 85.5t76.5 73.5q-19 14 -31 30t-12 34q0 31 24 69l13 19q25 32 58.5 51t64.5 25.5t51 7.5t43 1q48 -4 65 -12.5
t17 -32.5v-15q-3 -12 -4 -18v-5zM252 340q0 19 -10 35.5t-29 32.5q-18 -22 -37.5 -54.5t-19.5 -49.5q0 -19 10 -35.5t29 -32.5q18 22 37.5 54.5t19.5 49.5z" />
    <glyph glyph-name="bullet" unicode="&#x2022;" horiz-adv-x="346" 
d="M317 350q0 -60 -42 -102t-102 -42t-102 42t-42 102t42 102t102 42t102 -42t42 -102z" />
    <glyph glyph-name="paragraph" unicode="&#xb6;" 
 />
    <glyph glyph-name="germandbls" unicode="&#xdf;" horiz-adv-x="878" 
d="M918 608l-1 -7l-8 -37q-8 -41 -19 -52.5t-46 -16.5l-44 -1q-55 0 -55 19q0 4 4 16h-15q-45 -6 -45 -39q0 -8 3.5 -19.5t7.5 -18l27 -43.5l13 -23q57 -103 57 -165q0 -21 -6 -57.5t-24 -68t-48 -55.5t-58 -34.5t-58 -14t-40.5 -3.5h-16.5q-13 0 -27 0.5t-28 0.5h-9l-6 1
l-33 5q-32 4 -42 19.5t-10 55.5l3 19l5 28l2 15l8 33q10 44 21 55t45 11h4l34 -2q29 0 37.5 -3.5t8.5 -19.5q0 -11 -3 -31l-3 -12q3 -1 7.5 -1.5t8.5 -0.5q54 0 54 41q0 13 -4 25l-9 27l-26 46l-21 37l-22 35l-6 9q-16 30 -24 54.5t-8 48.5q0 43 30 91l16 24
q30 37 73.5 62.5t83 33.5t57 9t43.5 1h14q59 0 81 -11.5t22 -44.5q0 -10 -1 -16.5t-4 -24.5zM479 608l-1 -7l-8 -37q-8 -41 -19 -52.5t-46 -16.5l-44 -1q-55 0 -55 19q0 4 4 16h-15q-45 -6 -45 -39q0 -8 3.5 -19.5t7.5 -18l27 -43.5l13 -23q57 -103 57 -165q0 -21 -6 -57.5
t-24 -68t-48 -55.5t-58 -34.5t-58 -14t-40.5 -3.5h-16.5q-13 0 -27 0.5t-28 0.5h-9l-6 1l-33 5q-32 4 -42 19.5t-10 55.5l3 19l5 28l2 15l8 33q10 44 21 55t45 11h4l34 -2q29 0 37.5 -3.5t8.5 -19.5q0 -11 -3 -31l-3 -12q3 -1 7.5 -1.5t8.5 -0.5q54 0 54 41q0 13 -4 25
l-9 27l-26 46l-21 37l-22 35l-6 9q-16 30 -24 54.5t-8 48.5q0 43 30 91l16 24q30 37 73.5 62.5t83 33.5t57 9t43.5 1h14q59 0 81 -11.5t22 -44.5q0 -10 -1 -16.5t-4 -24.5z" />
    <glyph glyph-name="registered" unicode="&#xae;" horiz-adv-x="758" 
d="M710 312q0 -137 -97 -234t-234 -97t-234 97t-97 234t97 234t234 97t234 -97t97 -234zM672 312q0 121 -86 207t-208 86q-120 0 -206 -86t-86 -208q0 -121 85.5 -206.5t207.5 -85.5t207.5 85.5t85.5 207.5zM573 145h-91l-128 170h-25v-125q0 -15 13 -21.5t32 -6.5v-17h-153
v17q21 0 34 6t13 19v277q0 20 -6 24t-36 4v18h160q14 0 33.5 -0.5t38 -8.5t31 -16t22.5 -25t10 -40q0 -22 -8.5 -40t-21.5 -30q-16 -12 -31 -19t-37 -7l116 -148q10 -14 34 -14v-17zM455 424q-3 33 -21 47.5t-35 14.5l-51 4q-7 0 -13.5 -5.5t-6.5 -14.5l1 -133h16q16 0 27 1
t26 7q58 18 58 67q0 8 -1 12z" />
    <glyph glyph-name="copyright" unicode="&#xa9;" horiz-adv-x="758" 
d="M711 317q0 -138 -96.5 -234.5t-234.5 -96.5q-137 0 -234 96t-97 235q0 137 97 234t234 97t234 -97t97 -234zM673 317q0 121 -86 207t-207 86t-207 -86t-86 -207t86 -207t207 -86t207 86t86 207zM528 194q-31 -32 -61 -51.5t-81 -19.5q-27 0 -74 12t-79 61.5t-32 112.5
q0 47 18.5 88t50 63.5t60 31t51.5 8.5q25 0 50 -6q28 -9 35 -10.5t15 -1.5q20 0 23 15h18l4 -123h-19q-4 23 -20.5 50t-35.5 35.5t-34 11.5t-25 3q-55 0 -92.5 -47.5t-37.5 -118.5q0 -61 30 -104.5t83 -43.5q49 0 74 7.5t57 34.5l11 9z" />
    <glyph glyph-name="trademark" unicode="&#x2122;" horiz-adv-x="854" 
d="M821 281h-154v18q27 0 38 5t11 21v266l-128 -310h-18l-138 295v-251q0 -15 12 -20.5t37 -5.5v-18h-124v18q27 0 38 5t11 21v270q0 21 -9 27.5t-28 6.5h-14v17h110l126 -276l121 276h108v-17q-24 0 -35.5 -3.5t-11.5 -20.5v-280q0 -15 11.5 -20.5t36.5 -5.5v-18zM327 553
l-17 -1q0 34 -17 53t-57 19l-35 1v-300q0 -15 11.5 -20.5t36.5 -5.5v-18h-154v18q27 0 38 5t11 21v300l-36 -1q-38 0 -55.5 -19t-17.5 -53l-18 1l3 93h304z" />
    <glyph glyph-name="acute" unicode="&#xb4;" horiz-adv-x="169" 
d="M268 839q14 -14 14 -25q0 -13 -16 -20l-17 -6l-26 -9l-11 -5l-27 -10l-10 -4l-38 -13l-20 -7l-15 -5q-27 -8 -38 -8q-4 0 -20.5 5.5t-16.5 28.5q0 8 5 14.5t8 8.5t15 13t19.5 17t24 16.5t23.5 14.5l39 21q29 18 43 18q16 0 44 -26l7 -7z" />
    <glyph glyph-name="dieresis" unicode="&#xa8;" horiz-adv-x="200" 
d="M411 823q1 -13 -4 -37l-6 -14q-20 -40 -58 -46l-13 -1q-45 0 -49.5 24.5t-4.5 34.5q0 12 4 27.5t13 30t16.5 19t20 9t19.5 5.5t13 1q49 0 49 -53zM206 823q1 -13 -4 -37l-6 -14q-20 -40 -58 -46l-13 -1q-45 0 -49.5 24.5t-4.5 34.5q0 12 4 27.5t13 30t16.5 19t20 9
t19.5 5.5t13 1q49 0 49 -53z" />
    <glyph glyph-name="notequal" unicode="&#x2260;" horiz-adv-x="487" 
d="M496 571q0 -61 -16.5 -89t-50 -35.5t-53.5 -7.5q-47 0 -52 30l8 31q3 12 2 21q0 17 -17 19q-15 2 -31.5 -14t-39.5 -62l-17 -37q-13 -37 -20.5 -62.5t-10.5 -50.5q-12 -68 -12 -96q0 -17 7.5 -27.5t23.5 -10.5q9 0 15.5 5t12.5 13.5t23 42.5l5 14q8 17 21 24.5t36 7.5
q11 0 18 -1h9l30 -3q41 -4 41 -36q0 -11 -2 -18l-7 -28l-3 -9q-36 -128 -99 -160.5t-90 -38.5t-51 -6q-80 0 -123 69.5t-43 210.5q5 53 21.5 116t34.5 104.5t83 131t193 89.5q73 0 113.5 -35.5t40.5 -101.5zM498 770q4 -5 4 -14q0 -22 -16.5 -27.5t-21.5 -5.5
q-9 0 -18.5 2.5t-18.5 5.5l-15 5l-12 3l-30 21l-10 4l-17 6l-65 -17l-20 -7l-15 -5q-22 -7 -31 -7q-7 2 -22.5 7t-15.5 28q0 8 5 14.5t9 8.5q2 3 10.5 12t16.5 15t23.5 13t24.5 13l39 21q29 17 43 17t30 -13l9 -4l35 -21q8 -5 13 -9l20.5 -16t22.5 -22l13 -18q4 -2 10 -10z
" />
    <glyph glyph-name="AE" unicode="&#xc6;" horiz-adv-x="694" 
d="M737 644l-2 -15l-5 -26l-3 -10l-9 -35q-9 -31 -18 -36t-54 -5l-31 1q-17 3 -48 3l-9 1h-38l-18 1l-27 1q-6 0 -8.5 -6t-4.5 -12q21 -9 28.5 -16t7.5 -18l-2 -12l-5 -26l-4 -20l61 -1l58 -1q41 0 56.5 -7t15.5 -28q0 -13 -4 -29l-7 -32l-2 -10l-7 -21q-6 -22 -12 -31.5
t-45 -9.5h-43t-40 1h-17l-54 -1l-5 -16l-3 -12l-4 -12l-3 -21l-3 -20l-3 -10l31 -1h16h13h36t31 1q44 0 61.5 -7.5t17.5 -28.5q0 -5 -4 -25l-8 -41q-8 -37 -20.5 -48.5t-46.5 -11.5l-88 2h-72.5t-81.5 -1q-39 0 -55.5 6t-16.5 35q0 10 1 16l11 60l4 23l3 17l5 30l4 26l4 20
l-4 -6l-13 -20q-16 -23 -30.5 -31.5t-44.5 -8.5q-15 0 -21 2l-13 -21l-15 -27l-24 -40l-6 -9q-22 -42 -36 -56.5t-34 -14.5q-10 0 -16.5 1t-17 4t-16 5t-12.5 6q-14 4 -23 11q-27 17 -27 31q0 13 13 36l19 35l8 12l12 24q-17 3 -17 18t21 72l6 13l3 7l14 32q14 29 25 35
t50 6h9l10 14l7 12l5 6l27 47l6 9l40 63l63 94q53 82 74 98.5t62 16.5l113 -2l43 -1h32l36 -1l38 -1h7l44 -1q29 0 39.5 -7.5t10.5 -29.5q0 -9 -1 -14zM333 494l-15 -26l-3 -6l-47 -97l-3 -6l-10 -22h43l6 27l7 26l7 27l5 26l5 25z" />
    <glyph glyph-name="Oslash" unicode="&#xd8;" horiz-adv-x="580" 
d="M591 657l-25 -28l-11 -16l-10 -11q10 -48 10 -109q0 -51 -6.5 -98t-24 -109.5t-45.5 -114.5t-72.5 -97t-87 -67.5t-89.5 -22.5q-17 0 -62.5 6t-93.5 62l-11 -13l-17 -18.5t-19 -9.5q-2 0 -16.5 2.5t-14.5 20.5q0 11 9 29l28 33l6 7q-29 56 -29 137q0 84 32 192l21 55
q31 70 76 120.5t84 70t69 27.5t46 8q21 -2 27.5 -6.5t6.5 -20.5l-2 -24l-2 -37l42 35l10 9l20 16q22 19 41 19q20 0 40 -30q25 29 37 37t20 3q25 -19 25 -31q0 -11 -12 -26zM367 491l-1 15q-4 42 -15 68l-2 -7l-5 -13q-3 -11 -5 -14.5t-3 -5.5l-31 -20q-33 -23 -62.5 -73
t-44.5 -117l-7 -40zM361 386l-161 -187q15 -27 39 -27q16 0 33.5 15.5t39.5 55t32.5 74t12 43z" />
    <glyph glyph-name="infinity" unicode="&#x221e;" horiz-adv-x="487" 
d="M496 571q0 -61 -16.5 -89t-50 -35.5t-53.5 -7.5q-47 0 -52 30l8 31q3 12 2 21q0 17 -17 19q-15 2 -31.5 -14t-39.5 -62l-17 -37q-13 -37 -20.5 -62.5t-10.5 -50.5q-12 -68 -12 -96q0 -17 7.5 -27.5t23.5 -10.5q9 0 15.5 5t12.5 13.5t23 42.5l5 14q8 17 21 24.5t36 7.5
q11 0 18 -1h9l30 -3q41 -4 41 -36q0 -11 -2 -18l-7 -28l-3 -9q-36 -128 -99 -160.5t-90 -38.5t-51 -6q-80 0 -123 69.5t-43 210.5q5 53 21.5 116t34.5 104.5t83 131t193 89.5q73 0 113.5 -35.5t40.5 -101.5zM498 770q4 -5 4 -14q0 -22 -16.5 -27.5t-21.5 -5.5
q-9 0 -18.5 2.5t-18.5 5.5l-15 5l-12 3l-30 21l-10 4l-17 6l-65 -17l-20 -7l-15 -5q-22 -7 -31 -7q-7 2 -22.5 7t-15.5 28q0 8 5 14.5t9 8.5q2 3 10.5 12t16.5 15t23.5 13t24.5 13l39 21q29 17 43 17t30 -13l9 -4l35 -21q8 -5 13 -9l20.5 -16t22.5 -22l13 -18q4 -2 10 -10z
" />
    <glyph glyph-name="plusminus" unicode="&#xb1;" 
 />
    <glyph glyph-name="lessequal" unicode="&#x2264;" horiz-adv-x="561" 
d="M543 545q0 -43 -12.5 -60t-53.5 -23l-35 -6l-18 -3q-20 -3 -33 -3q-40 0 -40 27q0 5 2 15l1 23q-2 25 -30 25q-11 0 -29.5 -7t-38 -34t-41.5 -79l-15 -38q-12 -42 -17.5 -75t-5.5 -59q0 -43 10.5 -66t31.5 -23q19 0 38.5 19.5t19.5 43.5q-8 -4 -13 -4q-35 0 -35 30
q0 10 3 22l6 26l2 8l8 34q4 18 12.5 25.5t32.5 12.5l15 3l28 6h4l75 7l32 1l7 1l37 -2q47 0 47 -29q0 -4 -2 -14l-8 -37l-8 -34q-12 -40 -51 -40q-3 -24 -7.5 -38t-17.5 -42t-21.5 -41t-34 -45t-73.5 -57.5t-101 -25.5h-14q-6 1 -9 1q-82 9 -131.5 70.5t-49.5 171.5
q0 29 4 64t9.5 59l9.5 40t12 36q17 51 31 81.5t35.5 62t48.5 56.5t60 41.5t56.5 23.5t48.5 9q188 0 215 -140zM518 770q4 -5 4 -14q0 -22 -16.5 -27.5t-21.5 -5.5q-9 0 -18.5 2.5t-18.5 5.5l-15 5l-12 3l-30 21l-10 4l-17 6l-65 -17l-20 -7l-15 -5q-22 -7 -31 -7
q-7 2 -22.5 7t-15.5 28q0 8 5 14.5t9 8.5q2 3 10.5 12t16.5 15t23.5 13t24.5 13l39 21q29 17 43 17t30 -13l9 -4l35 -21q8 -5 13 -9l20.5 -16t22.5 -22l13 -18q4 -2 10 -10z" />
    <glyph glyph-name="greaterequal" unicode="&#x2265;" horiz-adv-x="561" 
d="M543 545q0 -43 -12.5 -60t-53.5 -23l-35 -6l-18 -3q-20 -3 -33 -3q-40 0 -40 27q0 5 2 15l1 23q-2 25 -30 25q-11 0 -29.5 -7t-38 -34t-41.5 -79l-15 -38q-12 -42 -17.5 -75t-5.5 -59q0 -43 10.5 -66t31.5 -23q19 0 38.5 19.5t19.5 43.5q-8 -4 -13 -4q-35 0 -35 30
q0 10 3 22l6 26l2 8l8 34q4 18 12.5 25.5t32.5 12.5l15 3l28 6h4l75 7l32 1l7 1l37 -2q47 0 47 -29q0 -4 -2 -14l-8 -37l-8 -34q-12 -40 -51 -40q-3 -24 -7.5 -38t-17.5 -42t-21.5 -41t-34 -45t-73.5 -57.5t-101 -25.5h-14q-6 1 -9 1q-82 9 -131.5 70.5t-49.5 171.5
q0 29 4 64t9.5 59l9.5 40t12 36q17 51 31 81.5t35.5 62t48.5 56.5t60 41.5t56.5 23.5t48.5 9q188 0 215 -140zM518 770q4 -5 4 -14q0 -22 -16.5 -27.5t-21.5 -5.5q-9 0 -18.5 2.5t-18.5 5.5l-15 5l-12 3l-30 21l-10 4l-17 6l-65 -17l-20 -7l-15 -5q-22 -7 -31 -7
q-7 2 -22.5 7t-15.5 28q0 8 5 14.5t9 8.5q2 3 10.5 12t16.5 15t23.5 13t24.5 13l39 21q29 17 43 17t30 -13l9 -4l35 -21q8 -5 13 -9l20.5 -16t22.5 -22l13 -18q4 -2 10 -10z" />
    <glyph glyph-name="yen" unicode="&#xa5;" horiz-adv-x="459" 
d="M513 624l-6 -22l-115 -230h72q10 -7 10 -16q0 -5 -7 -19l-11 -25l-2 -3l-1 -4l-13 -22q-21 -37 -112 -37l-57 -114l-60 -116l-5 -5q-19 -22 -44 -22q-10 0 -25 3l-19 5l-24 7q-56 14 -56 39q0 11 8 29l13 28l2 4l9 16l14 26l20 42l8 18l17 35q-80 2 -94.5 5t-19.5 16
q-2 8 3 19l9 19l4 8l3 4l13 24q14 22 24 29t33 7v3l-8 47l-19 102l-4 23l-5 30q-9 51 -9 78q0 48 35 48q10 0 15 -1l21 -4l14 -2l21 -4l13 -2q31 -5 38.5 -15t12.5 -50l4 -28l2 -15l4 -31l2 -11l2 -44v-33q0 -13 -1 -20l26 62l29.5 68.5t26.5 56.5l16 28q15 25 25 33t29 8
q13 0 31 -3l24 -4l10 -2l12 -4q26 -9 36.5 -17.5t10.5 -20.5q0 -7 -5 -24z" />
    <glyph glyph-name="mu" unicode="&#xb5;" horiz-adv-x="785" 
d="M738 603l-8 -76l-1 -8l-5 -44l-7 -50l-10 -96l-9 -96l-3 -30l-7 -66q-7 -67 -9 -83.5t-8 -28.5t-17.5 -22.5t-45.5 -10.5q-7 0 -16 1t-30.5 3t-41.5 8t-20 39q0 17 5.5 51.5l8.5 52.5l1 5l7 45l15 86l3 17l7 26l7 43l-15 -25l-11 -21l-6 -12l-19 -38l-26 -47l-16 -30
l-32 -59l-46 -87q-19 -34 -33 -44.5t-40 -10.5q-72 0 -91 23t-19 96l3 73v4l2 16l3 28l3 78l1 5l3 31v34l-11 -38l-12 -41l-11 -39l-8 -33l-4 -16l-13 -56l-4 -14l-15 -57q-17 -60 -27 -76.5t-36 -16.5q-12 0 -21 2t-14 2l-16 4q-34 11 -44 18t-10 23t6 42q8 26 11 42l18 71
l3 11l25 81l21 74l24 80l20 65l7 21q9 33 29 84l4 10l10 24q15 35 26.5 42.5t49.5 7.5l33 -4q51 -6 71 -23t20 -52l4 -54l1 -15l2 -81v-26v-21v-17v-14v-12q0 -19 -1 -37t-4 -33l-2 -17l-3 -20l34 71l23 49l8 16l32 64l11 19l26 45l25 43l11 19l5 9l13 21l2 4l18 26
q22 36 55 36q13 0 38 -5l28 -6l7 -1l14 -5q27 -11 36.5 -21.5t9.5 -31.5z" />
    <glyph glyph-name="partialdiff" unicode="&#x2202;" horiz-adv-x="603" 
d="M608 593l-9 -35l-11 -38l-28 -100l-56 -204l-13 -40l-18 -61l-32 -100q-8 -12 -20 -17.5t-33 -5.5q-8 1 -12 1l-32 2l-15 2q-22 4 -40 12t-18 28q0 7 3 18l17 54l15 56l31 111l7 24l10 30q-8 -9 -13 -17.5t-7 -12.5l-11 -17l-8 -15q-18 -31 -55 -31h-4h-27l-29 -1l-6 -23
l-5 -17l-21 -85l-11 -42q-11 -44 -23 -60t-37 -16q-5 0 -21 2l-14 2l-29 6q-24 5 -36 10t-17 20q-4 7 -4 16q0 11 10 45l12 43l10 40l15 59q-16 2 -27 12.5t-11 28.5q0 10 3 25l6 26l1 3l11 34q10 31 20 42t36 18l16 3l5 22l5 19l24 82l11 31l19 57q19 58 55 58
q11 0 46.5 -7t55.5 -18t20 -35q0 -19 -14 -61l-3 -7l-16 -49l-2 -4l-16 -52l-14 -44l44 -2l39 -1l37 -1l7 23l6 18l36 130l13 45q10 37 19 49.5t30 12.5q13 0 36 -6l34 -6l5 -2q53 -11 53 -54q0 -11 -5 -33zM543 770q4 -5 4 -14q0 -22 -16.5 -27.5t-21.5 -5.5
q-9 0 -18.5 2.5t-18.5 5.5l-15 5l-12 3l-30 21l-10 4l-17 6l-65 -17l-20 -7l-15 -5q-22 -7 -31 -7q-7 2 -22.5 7t-15.5 28q0 8 5 14.5t9 8.5q2 3 10.5 12t16.5 15t23.5 13t24.5 13l39 21q29 17 43 17t30 -13l9 -4l35 -21q8 -5 13 -9l20.5 -16t22.5 -22l13 -18q4 -2 10 -10z
" />
    <glyph glyph-name="summation" unicode="&#x3a3;" horiz-adv-x="603" 
d="M608 593l-9 -35l-11 -38l-28 -100l-56 -204l-13 -40l-18 -61l-32 -100q-8 -12 -20 -17.5t-33 -5.5q-8 1 -12 1l-32 2l-15 2q-22 4 -40 12t-18 28q0 7 3 18l17 54l15 56l31 111l7 24l10 30q-8 -9 -13 -17.5t-7 -12.5l-11 -17l-8 -15q-18 -31 -55 -31h-4h-27l-29 -1l-6 -23
l-5 -17l-21 -85l-11 -42q-11 -44 -23 -60t-37 -16q-5 0 -21 2l-14 2l-29 6q-24 5 -36 10t-17 20q-4 7 -4 16q0 11 10 45l12 43l10 40l15 59q-16 2 -27 12.5t-11 28.5q0 10 3 25l6 26l1 3l11 34q10 31 20 42t36 18l16 3l5 22l5 19l24 82l11 31l19 57q19 58 55 58
q11 0 46.5 -7t55.5 -18t20 -35q0 -19 -14 -61l-3 -7l-16 -49l-2 -4l-16 -52l-14 -44l44 -2l39 -1l37 -1l7 23l6 18l36 130l13 45q10 37 19 49.5t30 12.5q13 0 36 -6l34 -6l5 -2q53 -11 53 -54q0 -11 -5 -33zM543 770q4 -5 4 -14q0 -22 -16.5 -27.5t-21.5 -5.5
q-9 0 -18.5 2.5t-18.5 5.5l-15 5l-12 3l-30 21l-10 4l-17 6l-65 -17l-20 -7l-15 -5q-22 -7 -31 -7q-7 2 -22.5 7t-15.5 28q0 8 5 14.5t9 8.5q2 3 10.5 12t16.5 15t23.5 13t24.5 13l39 21q29 17 43 17t30 -13l9 -4l35 -21q8 -5 13 -9l20.5 -16t22.5 -22l13 -18q4 -2 10 -10z
" />
    <glyph glyph-name="product" unicode="&#x220f;" horiz-adv-x="473" 
d="M486 618l-23 -84l-3 -13l-27 -97l-21 -76l-8 -29l-16 -64l-11 -45q-27 -109 -77.5 -161.5t-132.5 -52.5q-30 0 -52.5 2t-87.5 24.5t-65 125.5q0 18 0.5 34t6.5 47l7 26q14 55 25 65.5t54 10.5h12l13 -2l21 -3l3 -1l20 -3q23 -4 23 -26q0 -8 -3 -19l-3 -11l-6 -21l-4 -14
l-3 -14l-2 -10q-2 -12 -2 -25q0 -7 2 -16.5t19 -9.5q7 0 18 6.5t18.5 19.5t17.5 51l9 35l9 34l7 30l11 39l16 60l21 76l5 18l13 49l7 32l4 14l4 16q13 38 26 51.5t39 13.5q12 0 27 -3l21 -4l22 -5q49 -8 49 -46q0 -11 -3 -25zM573 770q4 -5 4 -14q0 -22 -16.5 -27.5
t-21.5 -5.5q-9 0 -18.5 2.5t-18.5 5.5l-15 5l-12 3l-30 21l-10 4l-17 6l-65 -17l-20 -7l-15 -5q-22 -7 -31 -7q-7 2 -22.5 7t-15.5 28q0 8 5 14.5t9 8.5q2 3 10.5 12t16.5 15t23.5 13t24.5 13l39 21q29 17 43 17t30 -13l9 -4l35 -21q8 -5 13 -9l20.5 -16t22.5 -22l13 -18
q4 -2 10 -10z" />
    <glyph glyph-name="pi" unicode="&#x3c0;" horiz-adv-x="473" 
d="M486 618l-23 -84l-3 -13l-27 -97l-21 -76l-8 -29l-16 -64l-11 -45q-27 -109 -77.5 -161.5t-132.5 -52.5q-30 0 -52.5 2t-87.5 24.5t-65 125.5q0 18 0.5 34t6.5 47l7 26q14 55 25 65.5t54 10.5h12l13 -2l21 -3l3 -1l20 -3q23 -4 23 -26q0 -8 -3 -19l-3 -11l-6 -21l-4 -14
l-3 -14l-2 -10q-2 -12 -2 -25q0 -7 2 -16.5t19 -9.5q7 0 18 6.5t18.5 19.5t17.5 51l9 35l9 34l7 30l11 39l16 60l21 76l5 18l13 49l7 32l4 14l4 16q13 38 26 51.5t39 13.5q12 0 27 -3l21 -4l22 -5q49 -8 49 -46q0 -11 -3 -25zM573 770q4 -5 4 -14q0 -22 -16.5 -27.5
t-21.5 -5.5q-9 0 -18.5 2.5t-18.5 5.5l-15 5l-12 3l-30 21l-10 4l-17 6l-65 -17l-20 -7l-15 -5q-22 -7 -31 -7q-7 2 -22.5 7t-15.5 28q0 8 5 14.5t9 8.5q2 3 10.5 12t16.5 15t23.5 13t24.5 13l39 21q29 17 43 17t30 -13l9 -4l35 -21q8 -5 13 -9l20.5 -16t22.5 -22l13 -18
q4 -2 10 -10z" />
    <glyph glyph-name="integral" unicode="&#x222b;" horiz-adv-x="439" 
d="M479 608l-1 -7l-8 -37q-8 -41 -19 -52.5t-46 -16.5l-44 -1q-55 0 -55 19q0 4 4 16h-15q-45 -6 -45 -39q0 -8 3.5 -19.5t7.5 -18l27 -43.5l13 -23q57 -103 57 -165q0 -21 -6 -57.5t-24 -68t-48 -55.5t-58 -34.5t-58 -14t-40.5 -3.5h-16.5q-13 0 -27 0.5t-28 0.5h-9l-6 1
l-33 5q-32 4 -42 19.5t-10 55.5l3 19l5 28l2 15l8 33q10 44 21 55t45 11h4l34 -2q29 0 37.5 -3.5t8.5 -19.5q0 -11 -3 -31l-3 -12q3 -1 7.5 -1.5t8.5 -0.5q54 0 54 41q0 13 -4 25l-9 27l-26 46l-21 37l-22 35l-6 9q-16 30 -24 54.5t-8 48.5q0 43 30 91l16 24
q30 37 73.5 62.5t83 33.5t57 9t43.5 1h14q59 0 81 -11.5t22 -44.5q0 -10 -1 -16.5t-4 -24.5zM498 770q4 -5 4 -14q0 -22 -16.5 -27.5t-21.5 -5.5q-9 0 -18.5 2.5t-18.5 5.5l-15 5l-12 3l-30 21l-10 4l-17 6l-65 -17l-20 -7l-15 -5q-22 -7 -31 -7q-7 2 -22.5 7t-15.5 28
q0 8 5 14.5t9 8.5q2 3 10.5 12t16.5 15t23.5 13t24.5 13l39 21q29 17 43 17t30 -13l9 -4l35 -21q8 -5 13 -9l20.5 -16t22.5 -22l13 -18q4 -2 10 -10z" />
    <glyph glyph-name="ordfeminine" unicode="&#xaa;" horiz-adv-x="323" 
d="M284 521q0 -24 -2 -86.5t-2 -78.5l-2 -28v-8l-1 -16v-6q0 -7 -8 -13t-21 -6l-20 -1h-14q-4 0 -19 5t-15 30l1 36l1 14v10l1 18v16l1 12l-2 -4l-6 -12q-8 -15 -15.5 -19.5t-26.5 -4.5q-9 0 -13 2l-6 -13l-6 -16l-12 -24l-2 -6q-11 -26 -18 -34.5t-18 -8.5q-7 0 -24 5
l-15 5l-15 7q-19 12 -19 21q0 6 5 19l9 21l4 7l4 15q-11 1 -11 14q0 12 7 40l2 8l1 4l6 19q6 17 12.5 21t29.5 4h5l5 8l3 7l2 4l13 28l2 5l19 38l30 57q23 45 33.5 57.5t25.5 12.5q8 0 13 -1l16 -3l7 -1q37 -5 45.5 -18t8.5 -69zM198 580l-7 -15l-1 -4l-20 -58l-1 -4l-5 -13
h26l2 16l2 16l2 16v16l1 15z" />
    <glyph glyph-name="ordmasculine" unicode="&#xba;" horiz-adv-x="348" 
d="M362 596v-36q-3 -15 -4 -22l-12 -59q-25 -87 -62 -124.5t-63.5 -50.5t-54.5 -13q-13 0 -30.5 2.5t-40.5 18t-41.5 48.5t-18.5 86q0 49 19 113l13 33q17 41 44.5 72t52 43t41.5 16.5t27 4.5q21 -3 21 -16q0 -3 -2 -15l-1 -22l25 21l6 5l12 10q12 11 25 11q14 0 27 -22
q6 -13 11.5 -41.5t5.5 -62.5zM250 584l-1 6v14q-2 17 -3 23t-6 17l-2 -4l-3 -8l-4 -12q-4 -1 -21.5 -13.5t-35 -41.5t-24 -60.5t-7 -36t-0.5 -17.5q0 -15 6.5 -31.5t23.5 -16.5q10 0 20 9.5t23 32t19.5 44.5t9 33t2.5 26z" />
    <glyph glyph-name="Omega" unicode="&#x3a9;" horiz-adv-x="439" 
d="M479 608l-1 -7l-8 -37q-8 -41 -19 -52.5t-46 -16.5l-44 -1q-55 0 -55 19q0 4 4 16h-15q-45 -6 -45 -39q0 -8 3.5 -19.5t7.5 -18l27 -43.5l13 -23q57 -103 57 -165q0 -21 -6 -57.5t-24 -68t-48 -55.5t-58 -34.5t-58 -14t-40.5 -3.5h-16.5q-13 0 -27 0.5t-28 0.5h-9l-6 1
l-33 5q-32 4 -42 19.5t-10 55.5l3 19l5 28l2 15l8 33q10 44 21 55t45 11h4l34 -2q29 0 37.5 -3.5t8.5 -19.5q0 -11 -3 -31l-3 -12q3 -1 7.5 -1.5t8.5 -0.5q54 0 54 41q0 13 -4 25l-9 27l-26 46l-21 37l-22 35l-6 9q-16 30 -24 54.5t-8 48.5q0 43 30 91l16 24
q30 37 73.5 62.5t83 33.5t57 9t43.5 1h14q59 0 81 -11.5t22 -44.5q0 -10 -1 -16.5t-4 -24.5zM498 770q4 -5 4 -14q0 -22 -16.5 -27.5t-21.5 -5.5q-9 0 -18.5 2.5t-18.5 5.5l-15 5l-12 3l-30 21l-10 4l-17 6l-65 -17l-20 -7l-15 -5q-22 -7 -31 -7q-7 2 -22.5 7t-15.5 28
q0 8 5 14.5t9 8.5q2 3 10.5 12t16.5 15t23.5 13t24.5 13l39 21q29 17 43 17t30 -13l9 -4l35 -21q8 -5 13 -9l20.5 -16t22.5 -22l13 -18q4 -2 10 -10z" />
    <glyph glyph-name="ae" unicode="&#xe6;" horiz-adv-x="694" 
d="M737 644l-2 -15l-5 -26l-3 -10l-9 -35q-9 -31 -18 -36t-54 -5l-31 1q-17 3 -48 3l-9 1h-38l-18 1l-27 1q-6 0 -8.5 -6t-4.5 -12q21 -9 28.5 -16t7.5 -18l-2 -12l-5 -26l-4 -20l61 -1l58 -1q41 0 56.5 -7t15.5 -28q0 -13 -4 -29l-7 -32l-2 -10l-7 -21q-6 -22 -12 -31.5
t-45 -9.5h-43t-40 1h-17l-54 -1l-5 -16l-3 -12l-4 -12l-3 -21l-3 -20l-3 -10l31 -1h16h13h36t31 1q44 0 61.5 -7.5t17.5 -28.5q0 -5 -4 -25l-8 -41q-8 -37 -20.5 -48.5t-46.5 -11.5l-88 2h-72.5t-81.5 -1q-39 0 -55.5 6t-16.5 35q0 10 1 16l11 60l4 23l3 17l5 30l4 26l4 20
l-4 -6l-13 -20q-16 -23 -30.5 -31.5t-44.5 -8.5q-15 0 -21 2l-13 -21l-15 -27l-24 -40l-6 -9q-22 -42 -36 -56.5t-34 -14.5q-10 0 -16.5 1t-17 4t-16 5t-12.5 6q-14 4 -23 11q-27 17 -27 31q0 13 13 36l19 35l8 12l12 24q-17 3 -17 18t21 72l6 13l3 7l14 32q14 29 25 35
t50 6h9l10 14l7 12l5 6l27 47l6 9l40 63l63 94q53 82 74 98.5t62 16.5l113 -2l43 -1h32l36 -1l38 -1h7l44 -1q29 0 39.5 -7.5t10.5 -29.5q0 -9 -1 -14zM333 494l-15 -26l-3 -6l-47 -97l-3 -6l-10 -22h43l6 27l7 26l7 27l5 26l5 25z" />
    <glyph glyph-name="oslash" unicode="&#xf8;" horiz-adv-x="580" 
d="M591 657l-25 -28l-11 -16l-10 -11q10 -48 10 -109q0 -51 -6.5 -98t-24 -109.5t-45.5 -114.5t-72.5 -97t-87 -67.5t-89.5 -22.5q-17 0 -62.5 6t-93.5 62l-11 -13l-17 -18.5t-19 -9.5q-2 0 -16.5 2.5t-14.5 20.5q0 11 9 29l28 33l6 7q-29 56 -29 137q0 84 32 192l21 55
q31 70 76 120.5t84 70t69 27.5t46 8q21 -2 27.5 -6.5t6.5 -20.5l-2 -24l-2 -37l42 35l10 9l20 16q22 19 41 19q20 0 40 -30q25 29 37 37t20 3q25 -19 25 -31q0 -11 -12 -26zM367 491l-1 15q-4 42 -15 68l-2 -7l-5 -13q-3 -11 -5 -14.5t-3 -5.5l-31 -20q-33 -23 -62.5 -73
t-44.5 -117l-7 -40zM361 386l-161 -187q15 -27 39 -27q16 0 33.5 15.5t39.5 55t32.5 74t12 43z" />
    <glyph glyph-name="questiondown" unicode="&#xbf;" horiz-adv-x="485" 
d="M399 622l-3 -13q-10 -34 -36 -54t-55 -17q-34 3 -53 23.5t-19 54.5q0 13 13.5 53t73.5 40q36 0 58 -20t22 -53q0 -9 -1 -14zM406 193q0 -8 -3 -19.5t-10.5 -32t-15.5 -34t-28.5 -41t-60 -49t-93.5 -21.5q-102 0 -158 45t-56 121q0 14 4 29.5t13.5 40.5t18.5 38t34 38l4 4
l70 64l11 10q23 21 35 35.5t19 25.5l24 42q4 11 38 15l20 2l23 2l29 1q21 0 32 -11t9 -29q-3 -21 -20 -60t-49 -76t-110 -95q-27 -18 -30.5 -35t-3.5 -22q0 -33 36 -38h13q19 3 32 18t26 52l3 10q2 6 9 9.5t26 3.5l34 1q45 0 60 -9t15 -35z" />
    <glyph glyph-name="exclamdown" unicode="&#xa1;" horiz-adv-x="345" 
d="M308 631l-3 -21q-7 -33 -24.5 -54.5t-36 -27t-29.5 -5.5q-29 0 -48.5 20.5t-19.5 55.5l2 19q5 32 17.5 51.5t32.5 30.5q7 5 19 8t21 3q25 0 43.5 -14t23.5 -39zM258 427l-7 -42l-29 -167l-8 -46l-4 -16l-20.5 -92.5t-8.5 -47.5q-1 -10 -21.5 -16t-45.5 -6h-34h-5h-20h-20
q-15 0 -29 0.5t-21 10.5q-6 6 -6 15q0 13 15 46l18 49l3 8l14 42l1 7l18 49l16 44l5 13l8 24l13 31l11 27l12 28q19 46 23 53t11.5 11t12.5 5t21 1h10l31 -1q25 0 30.5 -4.5t5.5 -25.5z" />
    <glyph glyph-name="logicalnot" unicode="&#xac;" 
 />
    <glyph glyph-name="radical" unicode="&#x221a;" 
 />
    <glyph glyph-name="florin" unicode="&#x192;" 
 />
    <glyph glyph-name="approxequal" unicode="&#x2248;" horiz-adv-x="589" 
d="M594 612l-18 -79l-7 -26l-14 -53l-16 -59l-4 -18l-23 -78l-18 -60l-5 -17q-10 -36 -22.5 -65t-53 -99t-160.5 -70q-20 0 -30 1t-32.5 6t-35.5 10t-46.5 26t-54.5 53t-27 85l-2 26q0 10 1 22t5 30l5 37l3 13l4 17l17 70l57 233l14 58q6 14 25.5 20.5t52.5 6.5l12 -2l33 -4
q33 -5 44.5 -12t11.5 -24q0 -11 -3.5 -24.5t-5.5 -23.5l-5 -22l-8 -29l-14 -50l-11 -44l-9 -36l-10 -42l-14 -57l-4 -19l-8 -38q-10 -47 -10 -57q0 -8 6.5 -25t33.5 -17q6 0 21.5 2t29.5 27t41 119l14 52l4 17l3 11l13 53l42 152l5 23l4 12q1 3 1.5 5t12 22.5t45.5 20.5
q8 -1 12 -1l20 -2l15 -2q37 -4 52.5 -13.5t15.5 -30.5q0 -11 -5 -31zM551 828q-6 -8 -10 -10q-2 -3 -10.5 -12t-17 -15.5t-35 -20l-51.5 -26.5q-26 -16 -49 -16q-18 0 -30 10l-9 4l-39 21l-26 20l-27 21t-15 15l-11 15q-4 2 -9 8.5t-5 15.5q0 22 19.5 28t23.5 6q9 0 14 -1.5
t18 -7.5q24 -16 52 -31.5t48 -15.5q29 0 50.5 9t38.5 19l15 5q22 7 31 7q7 -2 22.5 -7t15.5 -28q0 -8 -4 -13z" />
    <glyph glyph-name="Delta" unicode="&#x2206;" horiz-adv-x="589" 
d="M594 612l-18 -79l-7 -26l-14 -53l-16 -59l-4 -18l-23 -78l-18 -60l-5 -17q-10 -36 -22.5 -65t-53 -99t-160.5 -70q-20 0 -30 1t-32.5 6t-35.5 10t-46.5 26t-54.5 53t-27 85l-2 26q0 10 1 22t5 30l5 37l3 13l4 17l17 70l57 233l14 58q6 14 25.5 20.5t52.5 6.5l12 -2l33 -4
q33 -5 44.5 -12t11.5 -24q0 -11 -3.5 -24.5t-5.5 -23.5l-5 -22l-8 -29l-14 -50l-11 -44l-9 -36l-10 -42l-14 -57l-4 -19l-8 -38q-10 -47 -10 -57q0 -8 6.5 -25t33.5 -17q6 0 21.5 2t29.5 27t41 119l14 52l4 17l3 11l13 53l42 152l5 23l4 12q1 3 1.5 5t12 22.5t45.5 20.5
q8 -1 12 -1l20 -2l15 -2q37 -4 52.5 -13.5t15.5 -30.5q0 -11 -5 -31zM551 828q-6 -8 -10 -10q-2 -3 -10.5 -12t-17 -15.5t-35 -20l-51.5 -26.5q-26 -16 -49 -16q-18 0 -30 10l-9 4l-39 21l-26 20l-27 21t-15 15l-11 15q-4 2 -9 8.5t-5 15.5q0 22 19.5 28t23.5 6q9 0 14 -1.5
t18 -7.5q24 -16 52 -31.5t48 -15.5q29 0 50.5 9t38.5 19l15 5q22 7 31 7q7 -2 22.5 -7t15.5 -28q0 -8 -4 -13z" />
    <glyph glyph-name="guillemotleft" unicode="&#xab;" 
 />
    <glyph glyph-name="guillemotright" unicode="&#xbb;" 
 />
    <glyph glyph-name="ellipsis" unicode="&#x2026;" horiz-adv-x="600" 
d="M508 105q0 -16 -2 -26l-3 -15l-6 -16q-23 -45 -65 -51l-14 -1q-50 0 -55 27t-5 37q0 33 19 64q20 36 40 42t31 6q27 0 43.5 -17.5t16.5 -49.5zM308 105q0 -16 -2 -26l-3 -15l-6 -16q-23 -45 -65 -51l-14 -1q-50 0 -55 27t-5 37q0 33 19 64q20 36 40 42t31 6
q27 0 43.5 -17.5t16.5 -49.5zM108 105q0 -16 -2 -26l-3 -15l-6 -16q-23 -45 -65 -51l-14 -1q-50 0 -55 27t-5 37q0 33 19 64q20 36 40 42t31 6q27 0 43.5 -17.5t16.5 -49.5z" />
    <glyph glyph-name="nonbreakingspace" unicode="&#xa0;" horiz-adv-x="278" 
 />
    <glyph glyph-name="Agrave" unicode="&#xc0;" horiz-adv-x="538" 
d="M444 395q0 -46 -3.5 -140.5t-3.5 -134.5l-3 -46l-1 -14l-1 -26v-10q0 -11 -13 -21.5t-35 -10.5l-34 -2h-16q-16 0 -32 5t-24 17.5t-8 36.5l2 60l1 23l1 17l1 30v26l1 20l-3 -6l-10 -20q-13 -24 -26.5 -32t-43.5 -8q-15 0 -21 2l-10 -21l-11 -27l-19 -40l-4 -9
q-17 -43 -28.5 -57t-31.5 -14q-10 0 -16 1t-17 4t-17 4.5t-15 6.5q-16 4 -24 11q-32 18 -32 36q0 9 8 31l15 35l6 12l8 24q-11 2 -15.5 6.5t-4.5 17.5q0 18 12 66l4 13l2 7l10 32q10 30 19.5 35.5t49.5 5.5h9l8 14l5 12l4 6l21 47l4 9l32 63l49 94q39 76 55.5 96.5
t42.5 20.5q6 0 22 -2l27 -4l11 -2q63 -8 76.5 -29t13.5 -116zM300 494l-11 -26l-2 -6l-34 -97l-2 -6l-7 -22h43l3 27l3 26l3 27l1 26l2 25zM449 774q4 -5 4 -14q0 -22 -16.5 -27.5t-21.5 -5.5q-9 0 -18.5 2.5t-18.5 5.5l-15 5l-20 7l-38 13l-10 4l-27 10l-11 5l-26 9l-17 6
q-16 7 -16 20q0 11 14 25l13 12l7 7q28 26 44 26q8 0 19 -5t24 -13l39 -21q12 -8 25.5 -16t31 -22.5t24.5 -22.5q4 -2 10 -10z" />
    <glyph glyph-name="Atilde" unicode="&#xc3;" horiz-adv-x="538" 
d="M444 395q0 -46 -3.5 -140.5t-3.5 -134.5l-3 -46l-1 -14l-1 -26v-10q0 -11 -13 -21.5t-35 -10.5l-34 -2h-16q-16 0 -32 5t-24 17.5t-8 36.5l2 60l1 23l1 17l1 30v26l1 20l-3 -6l-10 -20q-13 -24 -26.5 -32t-43.5 -8q-15 0 -21 2l-10 -21l-11 -27l-19 -40l-4 -9
q-17 -43 -28.5 -57t-31.5 -14q-10 0 -16 1t-17 4t-17 4.5t-15 6.5q-16 4 -24 11q-32 18 -32 36q0 9 8 31l15 35l6 12l8 24q-11 2 -15.5 6.5t-4.5 17.5q0 18 12 66l4 13l2 7l10 32q10 30 19.5 35.5t49.5 5.5h9l8 14l5 12l4 6l21 47l4 9l32 63l49 94q39 76 55.5 96.5
t42.5 20.5q6 0 22 -2l27 -4l11 -2q63 -8 76.5 -29t13.5 -116zM300 494l-11 -26l-2 -6l-34 -97l-2 -6l-7 -22h43l3 27l3 26l3 27l1 26l2 25zM504 820q0 -14 -3.5 -20.5t-18.5 -21.5l-46 -40q-7 -7 -20 -10.5t-26 -3.5q-11 0 -28.5 6t-27.5 12l-20 12t-30 6q-7 0 -14 -4.5
t-21 -12.5t-20 -8q-6 1 -11 1q-11 0 -18 3.5t-17.5 14t-10.5 22.5q2 8 8.5 17t12 12t19 18.5t19.5 20t24.5 13.5t32.5 9q17 0 28 -3.5t21 -7.5t31 -14.5t28 -10.5q13 0 19.5 6l12.5 12l20 11.5t18 4.5q13 0 17.5 -3t11.5 -11.5t8 -13t1 -16.5z" />
    <glyph glyph-name="Otilde" unicode="&#xd5;" horiz-adv-x="580" 
d="M555 493q0 -51 -6.5 -98t-24 -109.5t-45.5 -114.5t-72.5 -97t-87 -67.5t-89.5 -22.5q-17 0 -74 7.5t-101.5 84t-44.5 165.5q0 83 32 191l21 55q31 70 76 120.5t84 70t69 27.5t46 8q21 -2 27.5 -6.5t6.5 -20.5l-2 -24l-2 -37l42 35l10 9l20 16q23 19 41 19q23 0 45 -38
q12 -24 20.5 -67.5t8.5 -105.5zM368 473l-1 10l-1 23q-4 42 -15 68l-2 -7l-5 -13q-3 -11 -5 -14.5t-3 -5.5l-31 -20q-33 -23 -62.5 -73t-38.5 -91.5t-11.5 -62t-2.5 -34.5q0 -32 11 -56.5t39 -24.5q15 0 32.5 15.5t39.5 55t31.5 71.5t14 56t6.5 44zM570 820
q0 -14 -3.5 -20.5t-18.5 -21.5l-46 -40q-7 -7 -20 -10.5t-26 -3.5q-11 0 -28.5 6t-27.5 12l-20 12t-30 6q-7 0 -14 -4.5t-21 -12.5t-20 -8q-6 1 -11 1q-11 0 -18 3.5t-17.5 14t-10.5 22.5q2 8 8.5 17t12 12t19 18.5t19.5 20t24.5 13.5t32.5 9q17 0 28 -3.5t21 -7.5t31 -14.5
t28 -10.5q13 0 19.5 6l12.5 12l20 11.5t18 4.5q13 0 17.5 -3t11.5 -11.5t8 -13t1 -16.5z" />
    <glyph glyph-name="OE" unicode="&#x152;" horiz-adv-x="750" 
d="M776 644l-2 -15l-5 -26l-3 -10l-9 -35q-9 -31 -18 -36t-54 -5l-31 1q-17 3 -48 3l-9 1h-38l-18 1l-27 1q-6 0 -8.5 -6t-4.5 -12q-1 -11 18 -22t16 -24l-5 -26l-4 -20l61 -1l58 -1q41 0 56.5 -7t15.5 -28q0 -13 -4 -29l-7 -32l-2 -10l-7 -21q-6 -22 -12 -31.5t-45 -9.5
h-43t-40 1h-17l-54 -1l-5 -16l-3 -12l-4 -12l-3 -21l-3 -20l-3 -10l31 -1h16h13h36t31 1q44 0 61.5 -7.5t17.5 -28.5q0 -5 -4 -25l-8 -41q-8 -37 -20.5 -48.5t-46.5 -11.5l-88 2h-87q-22 0 -52.5 3.5t-36.5 3.5q-19 0 -44.5 -8t-53.5 -8q-17 0 -74 7.5t-101.5 84
t-44.5 165.5q0 83 32 191l21 55q31 70 76 120.5t84 70t69 27.5t46 8q21 -2 27.5 -6.5t6.5 -20.5l-2 -24l-2 -37l42 35l10 9l20 16q20 16 40 16l90 -3h32l36 -1l38 -1h7l44 -1q29 0 39.5 -7.5t10.5 -29.5q0 -9 -1 -14zM368 473l-1 10l-1 23q-4 42 -15 68l-2 -7l-5 -13
q-3 -11 -5 -14.5t-3 -5.5l-31 -20q-33 -23 -62.5 -73t-38.5 -91.5t-11.5 -62t-2.5 -34.5q0 -32 11 -56.5t39 -24.5q15 0 32.5 15.5t39.5 55t31.5 71.5t14 56t6.5 44z" />
    <glyph glyph-name="oe" unicode="&#x153;" horiz-adv-x="750" 
d="M776 644l-2 -15l-5 -26l-3 -10l-9 -35q-9 -31 -18 -36t-54 -5l-31 1q-17 3 -48 3l-9 1h-38l-18 1l-27 1q-6 0 -8.5 -6t-4.5 -12q-1 -11 18 -22t16 -24l-5 -26l-4 -20l61 -1l58 -1q41 0 56.5 -7t15.5 -28q0 -13 -4 -29l-7 -32l-2 -10l-7 -21q-6 -22 -12 -31.5t-45 -9.5
h-43t-40 1h-17l-54 -1l-5 -16l-3 -12l-4 -12l-3 -21l-3 -20l-3 -10l31 -1h16h13h36t31 1q44 0 61.5 -7.5t17.5 -28.5q0 -5 -4 -25l-8 -41q-8 -37 -20.5 -48.5t-46.5 -11.5l-88 2h-87q-22 0 -52.5 3.5t-36.5 3.5q-19 0 -44.5 -8t-53.5 -8q-17 0 -74 7.5t-101.5 84
t-44.5 165.5q0 83 32 191l21 55q31 70 76 120.5t84 70t69 27.5t46 8q21 -2 27.5 -6.5t6.5 -20.5l-2 -24l-2 -37l42 35l10 9l20 16q20 16 40 16l90 -3h32l36 -1l38 -1h7l44 -1q29 0 39.5 -7.5t10.5 -29.5q0 -9 -1 -14zM368 473l-1 10l-1 23q-4 42 -15 68l-2 -7l-5 -13
q-3 -11 -5 -14.5t-3 -5.5l-31 -20q-33 -23 -62.5 -73t-38.5 -91.5t-11.5 -62t-2.5 -34.5q0 -32 11 -56.5t39 -24.5q15 0 32.5 15.5t39.5 55t31.5 71.5t14 56t6.5 44z" />
    <glyph glyph-name="endash" unicode="&#x2013;" horiz-adv-x="400" 
d="M400 242h-400v104h400v-104z" />
    <glyph glyph-name="emdash" unicode="&#x2014;" horiz-adv-x="800" 
d="M800 242h-800v104h800v-104z" />
    <glyph glyph-name="quotedblleft" unicode="&#x201c;" horiz-adv-x="404" 
d="M456 668l-1 -16l-3 -24q-7 -49 -27 -100l-18 -52q-15 -41 -30.5 -51t-59.5 -10l-13 1l-23 1q-37 4 -37 28q0 6 1.5 11.5t12.5 25.5l18 30l6 13l19 31l6 11l26 43l15 23l11 18q13 21 22.5 31t18 13.5t19.5 3.5q15 0 26 -9t11 -22zM256 668l-1 -16l-3 -24q-7 -49 -27 -100
l-18 -52q-15 -41 -30.5 -51t-59.5 -10l-13 1l-23 1q-37 4 -37 28q0 6 1.5 11.5t12.5 25.5l18 30l6 13l19 31l6 11l26 43l15 23l11 18q13 21 22.5 31t18 13.5t19.5 3.5q15 0 26 -9t11 -22z" />
    <glyph glyph-name="quotedblright" unicode="&#x201d;" horiz-adv-x="411" 
d="M467 651l-11 -20l-17 -30l-7 -13l-18 -31l-7 -12l-26 -42l-13 -23l-12 -18q-16 -25 -23.5 -33.5t-16.5 -10.5q-9 -4 -21 -4q-16 0 -26 8t-10 21v18l3 21.5t7.5 36.5l7.5 30t12 36l19 51q15 41 30.5 51.5t59.5 10.5l13 -1l22 -1q39 -3 39 -27q0 -8 -5 -18zM267 651
l-11 -20l-17 -30l-7 -13l-18 -31l-7 -12l-26 -42l-13 -23l-12 -18q-16 -25 -23.5 -33.5t-16.5 -10.5q-9 -4 -21 -4q-16 0 -26 8t-10 21v18l3 21.5t7.5 36.5l7.5 30t12 36l19 51q15 41 30.5 51.5t59.5 10.5l13 -1l22 -1q39 -3 39 -27q0 -8 -5 -18z" />
    <glyph glyph-name="quoteleft" unicode="&#x2018;" horiz-adv-x="204" 
d="M256 668l-1 -16l-3 -24q-7 -49 -27 -100l-18 -52q-15 -41 -30.5 -51t-59.5 -10l-13 1l-23 1q-37 4 -37 28q0 6 1.5 11.5t12.5 25.5l18 30l6 13l19 31l6 11l26 43l15 23l11 18q13 21 22.5 31t18 13.5t19.5 3.5q15 0 26 -9t11 -22z" />
    <glyph glyph-name="quoteright" unicode="&#x2019;" horiz-adv-x="211" 
d="M267 651l-11 -20l-17 -30l-7 -13l-18 -31l-7 -12l-26 -42l-13 -23l-12 -18q-16 -25 -23.5 -33.5t-16.5 -10.5q-9 -4 -21 -4q-16 0 -26 8t-10 21v18l3 21.5t7.5 36.5l7.5 30t12 36l19 51q15 41 30.5 51.5t59.5 10.5l13 -1l22 -1q39 -3 39 -27q0 -8 -5 -18z" />
    <glyph glyph-name="divide" unicode="&#xf7;" 
 />
    <glyph glyph-name="lozenge" unicode="&#x25ca;" 
 />
    <glyph glyph-name="ydieresis" unicode="&#xff;" horiz-adv-x="459" 
d="M513 624l-6 -22l-236 -470l-60 -116l-5 -5q-19 -22 -44 -22q-10 0 -25 3l-19 5l-24 7q-56 14 -56 39q0 11 8 29l13 28l2 4l9 16l14 26l20 42l8 18l17 35l-3 21l-2 15l-20 96l-8 49l-19 102l-4 23l-5 30q-9 51 -9 78q0 48 35 48q10 0 15 -1l21 -4l14 -2l21 -4l13 -2
q31 -5 38.5 -15t12.5 -50l4 -28l2 -15l4 -31l2 -11l2 -44v-33q0 -13 -1 -20l26 62l29.5 68.5t26.5 56.5l16 28q15 25 25 33t29 8q13 0 31 -3l24 -4l10 -2l12 -4q26 -9 36.5 -17.5t10.5 -20.5q0 -7 -5 -24zM480 823q1 -13 -4 -37l-6 -14q-20 -40 -58 -46l-13 -1
q-45 0 -49.5 24.5t-4.5 34.5q0 12 4 27.5t13 30t16.5 19t20 9t19.5 5.5t13 1q49 0 49 -53zM275 823q1 -13 -4 -37l-6 -14q-20 -40 -58 -46l-13 -1q-45 0 -49.5 24.5t-4.5 34.5q0 12 4 27.5t13 30t16.5 19t20 9t19.5 5.5t13 1q49 0 49 -53z" />
    <glyph glyph-name="Ydieresis" unicode="&#x178;" horiz-adv-x="459" 
d="M513 624l-6 -22l-236 -470l-60 -116l-5 -5q-19 -22 -44 -22q-10 0 -25 3l-19 5l-24 7q-56 14 -56 39q0 11 8 29l13 28l2 4l9 16l14 26l20 42l8 18l17 35l-3 21l-2 15l-20 96l-8 49l-19 102l-4 23l-5 30q-9 51 -9 78q0 48 35 48q10 0 15 -1l21 -4l14 -2l21 -4l13 -2
q31 -5 38.5 -15t12.5 -50l4 -28l2 -15l4 -31l2 -11l2 -44v-33q0 -13 -1 -20l26 62l29.5 68.5t26.5 56.5l16 28q15 25 25 33t29 8q13 0 31 -3l24 -4l10 -2l12 -4q26 -9 36.5 -17.5t10.5 -20.5q0 -7 -5 -24zM480 823q1 -13 -4 -37l-6 -14q-20 -40 -58 -46l-13 -1
q-45 0 -49.5 24.5t-4.5 34.5q0 12 4 27.5t13 30t16.5 19t20 9t19.5 5.5t13 1q49 0 49 -53zM275 823q1 -13 -4 -37l-6 -14q-20 -40 -58 -46l-13 -1q-45 0 -49.5 24.5t-4.5 34.5q0 12 4 27.5t13 30t16.5 19t20 9t19.5 5.5t13 1q49 0 49 -53z" />
    <glyph glyph-name="fraction" unicode="&#x2215;" horiz-adv-x="305" 
d="M349 703l-306 -760l-75 46l306 762z" />
    <glyph glyph-name="currency" unicode="&#xa4;" horiz-adv-x="586" 
d="M541 182l-75 -78l-43 43q-33 -19 -62.5 -28.5t-63.5 -9.5q-72 0 -131 38l-43 -43l-77 78l43 43q-19 34 -27.5 61.5t-8.5 63.5q0 69 36 127l-43 42l77 78l43 -42q30 18 61.5 27.5t64.5 9.5q71 0 131 -37l43 42l75 -78l-43 -42q17 -28 27 -60.5t10 -66.5q0 -33 -9 -65.5
t-28 -59.5zM414 350q0 49 -35 85t-85 36t-85 -36t-35 -85t34.5 -84.5t85.5 -35.5q50 0 85 36t35 84z" />
    <glyph glyph-name="guilsinglleft" unicode="&#x2039;" 
 />
    <glyph glyph-name="guilsinglright" unicode="&#x203a;" 
 />
    <glyph glyph-name="fi" unicode="&#xf001;" 
 />
    <glyph glyph-name="fl" unicode="&#xf002;" 
 />
    <glyph glyph-name="daggerdbl" unicode="&#x2021;" 
 />
    <glyph glyph-name="periodcentered" unicode="&#xb7;" horiz-adv-x="200" 
d="M108 375q0 -16 -2 -26l-3 -15l-6 -16q-23 -45 -65 -51l-14 -1q-50 0 -55 27t-5 37q0 33 19 64q20 36 40 42t31 6q27 0 43.5 -17.5t16.5 -49.5z" />
    <glyph glyph-name="periodcentered" unicode="&#x2219;" horiz-adv-x="200" 
d="M108 375q0 -16 -2 -26l-3 -15l-6 -16q-23 -45 -65 -51l-14 -1q-50 0 -55 27t-5 37q0 33 19 64q20 36 40 42t31 6q27 0 43.5 -17.5t16.5 -49.5z" />
    <glyph glyph-name="quotesinglbase" unicode="&#x201a;" 
 />
    <glyph glyph-name="quotedblbase" unicode="&#x201e;" 
 />
    <glyph glyph-name="perthousand" unicode="&#x2030;" 
 />
    <glyph glyph-name="Acircumflex" unicode="&#xc2;" horiz-adv-x="538" 
d="M444 395q0 -46 -3.5 -140.5t-3.5 -134.5l-3 -46l-1 -14l-1 -26v-10q0 -11 -13 -21.5t-35 -10.5l-34 -2h-16q-16 0 -32 5t-24 17.5t-8 36.5l2 60l1 23l1 17l1 30v26l1 20l-3 -6l-10 -20q-13 -24 -26.5 -32t-43.5 -8q-15 0 -21 2l-10 -21l-11 -27l-19 -40l-4 -9
q-17 -43 -28.5 -57t-31.5 -14q-10 0 -16 1t-17 4t-17 4.5t-15 6.5q-16 4 -24 11q-32 18 -32 36q0 9 8 31l15 35l6 12l8 24q-11 2 -15.5 6.5t-4.5 17.5q0 18 12 66l4 13l2 7l10 32q10 30 19.5 35.5t49.5 5.5h9l8 14l5 12l4 6l21 47l4 9l32 63l49 94q39 76 55.5 96.5
t42.5 20.5q6 0 22 -2l27 -4l11 -2q63 -8 76.5 -29t13.5 -116zM300 494l-11 -26l-2 -6l-34 -97l-2 -6l-7 -22h43l3 27l3 26l3 27l1 26l2 25zM498 770q4 -5 4 -14q0 -22 -16.5 -27.5t-21.5 -5.5q-9 0 -18.5 2.5t-18.5 5.5l-15 5l-12 3l-30 21l-10 4l-17 6l-65 -17l-20 -7
l-15 -5q-22 -7 -31 -7q-7 2 -22.5 7t-15.5 28q0 8 5 14.5t9 8.5q2 3 10.5 12t16.5 15t23.5 13t24.5 13l39 21q29 17 43 17t30 -13l9 -4l35 -21q8 -5 13 -9l20.5 -16t22.5 -22l13 -18q4 -2 10 -10z" />
    <glyph glyph-name="Ecircumflex" unicode="&#xca;" horiz-adv-x="492" 
d="M530 644l-3 -15l-7 -26l-3 -10l-11 -35q-11 -31 -20 -36t-54 -5l-31 1q-17 3 -48 3l-9 1h-38l-18 1l-27 1q-14 1 -49 -4l35 -14q35 -15 35 -31q0 -6 -3 -15l-6 -26l-5 -20l61 -1l57 -1q40 0 55.5 -6.5t15.5 -25.5q0 -12 -6 -32l-9 -32l-2 -10l-8 -21q-9 -28 -17.5 -34.5
t-41.5 -6.5h-43.5t-39.5 1h-17l-54 -1l-6 -16l-4 -12l-4 -12l-5 -21l-4 -20l-3 -10l31 -1h16h13h36t31 1q44 0 60.5 -6.5t16.5 -26.5q0 -10 -5 -28l-10 -41q-10 -37 -23.5 -48.5t-47.5 -11.5l-87 2h-87q-41 0 -57.5 6t-43 36.5t-26.5 70.5q0 25 9 61l10 37l10 38
q-34 0 -34 37q0 9 3 21l5 24l3 15q8 40 23 58t36 18q7 0 11 -1l13 34l5 15l5 21l5 21l4 14l-12 1q-43 6 -43 26q0 5 4 21l5 23l3 9l5 21q16 48 25 63.5t69 15.5h36h61h13l42 -1h32l36 -1l38 -1h7l44 -1q49 0 49 -33zM478 770q4 -5 4 -14q0 -22 -16.5 -27.5t-21.5 -5.5
q-9 0 -18.5 2.5t-18.5 5.5l-15 5l-12 3l-30 21l-10 4l-17 6l-65 -17l-20 -7l-15 -5q-22 -7 -31 -7q-7 2 -22.5 7t-15.5 28q0 8 5 14.5t9 8.5q2 3 10.5 12t16.5 15t23.5 13t24.5 13l39 21q29 17 43 17t30 -13l9 -4l35 -21q8 -5 13 -9l20.5 -16t22.5 -22l13 -18q4 -2 10 -10z
" />
    <glyph glyph-name="Aacute" unicode="&#xc1;" horiz-adv-x="538" 
d="M444 395q0 -46 -3.5 -140.5t-3.5 -134.5l-3 -46l-1 -14l-1 -26v-10q0 -11 -13 -21.5t-35 -10.5l-34 -2h-16q-16 0 -32 5t-24 17.5t-8 36.5l2 60l1 23l1 17l1 30v26l1 20l-3 -6l-10 -20q-13 -24 -26.5 -32t-43.5 -8q-15 0 -21 2l-10 -21l-11 -27l-19 -40l-4 -9
q-17 -43 -28.5 -57t-31.5 -14q-10 0 -16 1t-17 4t-17 4.5t-15 6.5q-16 4 -24 11q-32 18 -32 36q0 9 8 31l15 35l6 12l8 24q-11 2 -15.5 6.5t-4.5 17.5q0 18 12 66l4 13l2 7l10 32q10 30 19.5 35.5t49.5 5.5h9l8 14l5 12l4 6l21 47l4 9l32 63l49 94q39 76 55.5 96.5
t42.5 20.5q6 0 22 -2l27 -4l11 -2q63 -8 76.5 -29t13.5 -116zM300 494l-11 -26l-2 -6l-34 -97l-2 -6l-7 -22h43l3 27l3 26l3 27l1 26l2 25zM451 839q14 -14 14 -25q0 -13 -16 -20l-17 -6l-26 -9l-11 -5l-27 -10l-10 -4l-38 -13l-20 -7l-15 -5q-27 -8 -38 -8q-4 0 -20.5 5.5
t-16.5 28.5q0 8 5 14.5t8 8.5t15 13t19.5 17t24 16.5t23.5 14.5l39 21q29 18 43 18q16 0 44 -26l7 -7z" />
    <glyph glyph-name="Edieresis" unicode="&#xcb;" horiz-adv-x="492" 
d="M530 644l-3 -15l-7 -26l-3 -10l-11 -35q-11 -31 -20 -36t-54 -5l-31 1q-17 3 -48 3l-9 1h-38l-18 1l-27 1q-14 1 -49 -4l35 -14q35 -15 35 -31q0 -6 -3 -15l-6 -26l-5 -20l61 -1l57 -1q40 0 55.5 -6.5t15.5 -25.5q0 -12 -6 -32l-9 -32l-2 -10l-8 -21q-9 -28 -17.5 -34.5
t-41.5 -6.5h-43.5t-39.5 1h-17l-54 -1l-6 -16l-4 -12l-4 -12l-5 -21l-4 -20l-3 -10l31 -1h16h13h36t31 1q44 0 60.5 -6.5t16.5 -26.5q0 -10 -5 -28l-10 -41q-10 -37 -23.5 -48.5t-47.5 -11.5l-87 2h-87q-41 0 -57.5 6t-43 36.5t-26.5 70.5q0 25 9 61l10 37l10 38
q-34 0 -34 37q0 9 3 21l5 24l3 15q8 40 23 58t36 18q7 0 11 -1l13 34l5 15l5 21l5 21l4 14l-12 1q-43 6 -43 26q0 5 4 21l5 23l3 9l5 21q16 48 25 63.5t69 15.5h36h61h13l42 -1h32l36 -1l38 -1h7l44 -1q49 0 49 -33zM501 823q1 -13 -4 -37l-6 -14q-20 -40 -58 -46l-13 -1
q-45 0 -49.5 24.5t-4.5 34.5q0 12 4 27.5t13 30t16.5 19t20 9t19.5 5.5t13 1q49 0 49 -53zM296 823q1 -13 -4 -37l-6 -14q-20 -40 -58 -46l-13 -1q-45 0 -49.5 24.5t-4.5 34.5q0 12 4 27.5t13 30t16.5 19t20 9t19.5 5.5t13 1q49 0 49 -53z" />
    <glyph glyph-name="Egrave" unicode="&#xc8;" horiz-adv-x="492" 
d="M530 644l-3 -15l-7 -26l-3 -10l-11 -35q-11 -31 -20 -36t-54 -5l-31 1q-17 3 -48 3l-9 1h-38l-18 1l-27 1q-14 1 -49 -4l35 -14q35 -15 35 -31q0 -6 -3 -15l-6 -26l-5 -20l61 -1l57 -1q40 0 55.5 -6.5t15.5 -25.5q0 -12 -6 -32l-9 -32l-2 -10l-8 -21q-9 -28 -17.5 -34.5
t-41.5 -6.5h-43.5t-39.5 1h-17l-54 -1l-6 -16l-4 -12l-4 -12l-5 -21l-4 -20l-3 -10l31 -1h16h13h36t31 1q44 0 60.5 -6.5t16.5 -26.5q0 -10 -5 -28l-10 -41q-10 -37 -23.5 -48.5t-47.5 -11.5l-87 2h-87q-41 0 -57.5 6t-43 36.5t-26.5 70.5q0 25 9 61l10 37l10 38
q-34 0 -34 37q0 9 3 21l5 24l3 15q8 40 23 58t36 18q7 0 11 -1l13 34l5 15l5 21l5 21l4 14l-12 1q-43 6 -43 26q0 5 4 21l5 23l3 9l5 21q16 48 25 63.5t69 15.5h36h61h13l42 -1h32l36 -1l38 -1h7l44 -1q49 0 49 -33zM449 774q4 -5 4 -14q0 -22 -16.5 -27.5t-21.5 -5.5
q-9 0 -18.5 2.5t-18.5 5.5l-15 5l-20 7l-38 13l-10 4l-27 10l-11 5l-26 9l-17 6q-16 7 -16 20q0 11 14 25l13 12l7 7q28 26 44 26q8 0 19 -5t24 -13l39 -21q12 -8 25.5 -16t31 -22.5t24.5 -22.5q4 -2 10 -10z" />
    <glyph glyph-name="Iacute" unicode="&#xcd;" horiz-adv-x="300" 
d="M311 594l-32 -109l-15 -55l-15 -54l-15 -57l-25 -101l-38 -151q-11 -45 -22 -58.5t-41 -13.5q-6 0 -25.5 2t-24.5 3t-32 9t-42 21t-15 36q0 6 1 12.5t5 18.5l19 74l21 77l30 103l14 50l14 49q16 61 28 101.5t24 75.5l3 9l9 26q9 22 19.5 30t35.5 8q17 0 44 -3l29 -5
q34 -8 46 -16.5t12 -28.5q0 -18 -12 -53zM361 839q14 -14 14 -25q0 -13 -16 -20l-17 -6l-26 -9l-11 -5l-27 -10l-10 -4l-38 -13l-20 -7l-15 -5q-27 -8 -38 -8q-4 0 -20.5 5.5t-16.5 28.5q0 8 5 14.5t8 8.5t15 13t19.5 17t24 16.5t23.5 14.5l39 21q29 18 43 18q16 0 44 -26
l7 -7z" />
    <glyph glyph-name="Icircumflex" unicode="&#xce;" horiz-adv-x="300" 
d="M311 594l-32 -109l-15 -55l-15 -54l-15 -57l-25 -101l-38 -151q-11 -45 -22 -58.5t-41 -13.5q-6 0 -25.5 2t-24.5 3t-32 9t-42 21t-15 36q0 6 1 12.5t5 18.5l19 74l21 77l30 103l14 50l14 49q16 61 28 101.5t24 75.5l3 9l9 26q9 22 19.5 30t35.5 8q17 0 44 -3l29 -5
q34 -8 46 -16.5t12 -28.5q0 -18 -12 -53zM396 770q4 -5 4 -14q0 -22 -16.5 -27.5t-21.5 -5.5q-9 0 -18.5 2.5t-18.5 5.5l-15 5l-12 3l-30 21l-10 4l-17 6l-65 -17l-20 -7l-15 -5q-22 -7 -31 -7q-7 2 -22.5 7t-15.5 28q0 8 5 14.5t9 8.5q2 3 10.5 12t16.5 15t23.5 13t24.5 13
l39 21q29 17 43 17t30 -13l9 -4l35 -21q8 -5 13 -9l20.5 -16t22.5 -22l13 -18q4 -2 10 -10z" />
    <glyph glyph-name="Idieresis" unicode="&#xcf;" horiz-adv-x="300" 
d="M311 594l-32 -109l-15 -55l-15 -54l-15 -57l-25 -101l-38 -151q-11 -45 -22 -58.5t-41 -13.5q-6 0 -25.5 2t-24.5 3t-32 9t-42 21t-15 36q0 6 1 12.5t5 18.5l19 74l21 77l30 103l14 50l14 49q16 61 28 101.5t24 75.5l3 9l9 26q9 22 19.5 30t35.5 8q17 0 44 -3l29 -5
q34 -8 46 -16.5t12 -28.5q0 -18 -12 -53zM431 823q1 -13 -4 -37l-6 -14q-20 -40 -58 -46l-13 -1q-45 0 -49.5 24.5t-4.5 34.5q0 12 4 27.5t13 30t16.5 19t20 9t19.5 5.5t13 1q49 0 49 -53zM226 823q1 -13 -4 -37l-6 -14q-20 -40 -58 -46l-13 -1q-45 0 -49.5 24.5t-4.5 34.5
q0 12 4 27.5t13 30t16.5 19t20 9t19.5 5.5t13 1q49 0 49 -53z" />
    <glyph glyph-name="Igrave" unicode="&#xcc;" horiz-adv-x="300" 
d="M311 594l-32 -109l-15 -55l-15 -54l-15 -57l-25 -101l-38 -151q-11 -45 -22 -58.5t-41 -13.5q-6 0 -25.5 2t-24.5 3t-32 9t-42 21t-15 36q0 6 1 12.5t5 18.5l19 74l21 77l30 103l14 50l14 49q16 61 28 101.5t24 75.5l3 9l9 26q9 22 19.5 30t35.5 8q17 0 44 -3l29 -5
q34 -8 46 -16.5t12 -28.5q0 -18 -12 -53zM377 774q4 -5 4 -14q0 -22 -16.5 -27.5t-21.5 -5.5q-9 0 -18.5 2.5t-18.5 5.5l-15 5l-20 7l-38 13l-10 4l-27 10l-11 5l-26 9l-17 6q-16 7 -16 20q0 11 14 25l13 12l7 7q28 26 44 26q8 0 19 -5t24 -13l39 -21q12 -8 25.5 -16
t31 -22.5t24.5 -22.5q4 -2 10 -10z" />
    <glyph glyph-name="Oacute" unicode="&#xd3;" horiz-adv-x="580" 
d="M555 493q0 -51 -6.5 -98t-24 -109.5t-45.5 -114.5t-72.5 -97t-87 -67.5t-89.5 -22.5q-17 0 -74 7.5t-101.5 84t-44.5 165.5q0 83 32 191l21 55q31 70 76 120.5t84 70t69 27.5t46 8q21 -2 27.5 -6.5t6.5 -20.5l-2 -24l-2 -37l42 35l10 9l20 16q23 19 41 19q23 0 45 -38
q12 -24 20.5 -67.5t8.5 -105.5zM368 473l-1 10l-1 23q-4 42 -15 68l-2 -7l-5 -13q-3 -11 -5 -14.5t-3 -5.5l-31 -20q-33 -23 -62.5 -73t-38.5 -91.5t-11.5 -62t-2.5 -34.5q0 -32 11 -56.5t39 -24.5q15 0 32.5 15.5t39.5 55t31.5 71.5t14 56t6.5 44zM517 839q14 -14 14 -25
q0 -13 -16 -20l-17 -6l-26 -9l-11 -5l-27 -10l-10 -4l-38 -13l-20 -7l-15 -5q-27 -8 -38 -8q-4 0 -20.5 5.5t-16.5 28.5q0 8 5 14.5t8 8.5t15 13t19.5 17t24 16.5t23.5 14.5l39 21q29 18 43 18q16 0 44 -26l7 -7z" />
    <glyph glyph-name="Ocircumflex" unicode="&#xd4;" horiz-adv-x="580" 
d="M555 493q0 -51 -6.5 -98t-24 -109.5t-45.5 -114.5t-72.5 -97t-87 -67.5t-89.5 -22.5q-17 0 -74 7.5t-101.5 84t-44.5 165.5q0 83 32 191l21 55q31 70 76 120.5t84 70t69 27.5t46 8q21 -2 27.5 -6.5t6.5 -20.5l-2 -24l-2 -37l42 35l10 9l20 16q23 19 41 19q23 0 45 -38
q12 -24 20.5 -67.5t8.5 -105.5zM368 473l-1 10l-1 23q-4 42 -15 68l-2 -7l-5 -13q-3 -11 -5 -14.5t-3 -5.5l-31 -20q-33 -23 -62.5 -73t-38.5 -91.5t-11.5 -62t-2.5 -34.5q0 -32 11 -56.5t39 -24.5q15 0 32.5 15.5t39.5 55t31.5 71.5t14 56t6.5 44zM576 770q4 -5 4 -14
q0 -22 -16.5 -27.5t-21.5 -5.5q-9 0 -18.5 2.5t-18.5 5.5l-15 5l-12 3l-30 21l-10 4l-17 6l-65 -17l-20 -7l-15 -5q-22 -7 -31 -7q-7 2 -22.5 7t-15.5 28q0 8 5 14.5t9 8.5q2 3 10.5 12t16.5 15t23.5 13t24.5 13l39 21q29 17 43 17t30 -13l9 -4l35 -21q8 -5 13 -9l20.5 -16
t22.5 -22l13 -18q4 -2 10 -10z" />
    <glyph glyph-name="apple" unicode="&#xf000;" horiz-adv-x="795" 
d="M760 0h-725v727h725v-727z" />
    <glyph glyph-name="Ograve" unicode="&#xd2;" horiz-adv-x="580" 
d="M555 493q0 -51 -6.5 -98t-24 -109.5t-45.5 -114.5t-72.5 -97t-87 -67.5t-89.5 -22.5q-17 0 -74 7.5t-101.5 84t-44.5 165.5q0 83 32 191l21 55q31 70 76 120.5t84 70t69 27.5t46 8q21 -2 27.5 -6.5t6.5 -20.5l-2 -24l-2 -37l42 35l10 9l20 16q23 19 41 19q23 0 45 -38
q12 -24 20.5 -67.5t8.5 -105.5zM368 473l-1 10l-1 23q-4 42 -15 68l-2 -7l-5 -13q-3 -11 -5 -14.5t-3 -5.5l-31 -20q-33 -23 -62.5 -73t-38.5 -91.5t-11.5 -62t-2.5 -34.5q0 -32 11 -56.5t39 -24.5q15 0 32.5 15.5t39.5 55t31.5 71.5t14 56t6.5 44zM536 774q4 -5 4 -14
q0 -22 -16.5 -27.5t-21.5 -5.5q-9 0 -18.5 2.5t-18.5 5.5l-15 5l-20 7l-38 13l-10 4l-27 10l-11 5l-26 9l-17 6q-16 7 -16 20q0 11 14 25l13 12l7 7q28 26 44 26q8 0 19 -5t24 -13l39 -21q12 -8 25.5 -16t31 -22.5t24.5 -22.5q4 -2 10 -10z" />
    <glyph glyph-name="Uacute" unicode="&#xda;" horiz-adv-x="589" 
d="M594 612l-18 -79l-7 -26l-14 -53l-16 -59l-4 -18l-23 -78l-18 -60l-5 -17q-10 -36 -22.5 -65t-53 -99t-160.5 -70q-20 0 -30 1t-32.5 6t-35.5 10t-46.5 26t-54.5 53t-27 85l-2 26q0 10 1 22t5 30l5 37l3 13l4 17l17 70l57 233l14 58q6 14 25.5 20.5t52.5 6.5l12 -2l33 -4
q33 -5 44.5 -12t11.5 -24q0 -11 -3.5 -24.5t-5.5 -23.5l-5 -22l-8 -29l-14 -50l-11 -44l-9 -36l-10 -42l-14 -57l-4 -19l-8 -38q-10 -47 -10 -57q0 -8 6.5 -25t33.5 -17q6 0 21.5 2t29.5 27t41 119l14 52l4 17l3 11l13 53l42 152l5 23l4 12q1 3 1.5 5t12 22.5t45.5 20.5
q8 -1 12 -1l20 -2l15 -2q37 -4 52.5 -13.5t15.5 -30.5q0 -11 -5 -31zM499 839q14 -14 14 -25q0 -13 -16 -20l-17 -6l-26 -9l-11 -5l-27 -10l-10 -4l-38 -13l-20 -7l-15 -5q-27 -8 -38 -8q-4 0 -20.5 5.5t-16.5 28.5q0 8 5 14.5t8 8.5t15 13t19.5 17t24 16.5t23.5 14.5l39 21
q29 18 43 18q16 0 44 -26l7 -7z" />
    <glyph glyph-name="Ucircumflex" unicode="&#xdb;" horiz-adv-x="589" 
d="M594 612l-18 -79l-7 -26l-14 -53l-16 -59l-4 -18l-23 -78l-18 -60l-5 -17q-10 -36 -22.5 -65t-53 -99t-160.5 -70q-20 0 -30 1t-32.5 6t-35.5 10t-46.5 26t-54.5 53t-27 85l-2 26q0 10 1 22t5 30l5 37l3 13l4 17l17 70l57 233l14 58q6 14 25.5 20.5t52.5 6.5l12 -2l33 -4
q33 -5 44.5 -12t11.5 -24q0 -11 -3.5 -24.5t-5.5 -23.5l-5 -22l-8 -29l-14 -50l-11 -44l-9 -36l-10 -42l-14 -57l-4 -19l-8 -38q-10 -47 -10 -57q0 -8 6.5 -25t33.5 -17q6 0 21.5 2t29.5 27t41 119l14 52l4 17l3 11l13 53l42 152l5 23l4 12q1 3 1.5 5t12 22.5t45.5 20.5
q8 -1 12 -1l20 -2l15 -2q37 -4 52.5 -13.5t15.5 -30.5q0 -11 -5 -31zM531 770q4 -5 4 -14q0 -22 -16.5 -27.5t-21.5 -5.5q-9 0 -18.5 2.5t-18.5 5.5l-15 5l-12 3l-30 21l-10 4l-17 6l-65 -17l-20 -7l-15 -5q-22 -7 -31 -7q-7 2 -22.5 7t-15.5 28q0 8 5 14.5t9 8.5
q2 3 10.5 12t16.5 15t23.5 13t24.5 13l39 21q29 17 43 17t30 -13l9 -4l35 -21q8 -5 13 -9l20.5 -16t22.5 -22l13 -18q4 -2 10 -10z" />
    <glyph glyph-name="Ugrave" unicode="&#xd9;" horiz-adv-x="589" 
d="M594 612l-18 -79l-7 -26l-14 -53l-16 -59l-4 -18l-23 -78l-18 -60l-5 -17q-10 -36 -22.5 -65t-53 -99t-160.5 -70q-20 0 -30 1t-32.5 6t-35.5 10t-46.5 26t-54.5 53t-27 85l-2 26q0 10 1 22t5 30l5 37l3 13l4 17l17 70l57 233l14 58q6 14 25.5 20.5t52.5 6.5l12 -2l33 -4
q33 -5 44.5 -12t11.5 -24q0 -11 -3.5 -24.5t-5.5 -23.5l-5 -22l-8 -29l-14 -50l-11 -44l-9 -36l-10 -42l-14 -57l-4 -19l-8 -38q-10 -47 -10 -57q0 -8 6.5 -25t33.5 -17q6 0 21.5 2t29.5 27t41 119l14 52l4 17l3 11l13 53l42 152l5 23l4 12q1 3 1.5 5t12 22.5t45.5 20.5
q8 -1 12 -1l20 -2l15 -2q37 -4 52.5 -13.5t15.5 -30.5q0 -11 -5 -31zM496 774q4 -5 4 -14q0 -22 -16.5 -27.5t-21.5 -5.5q-9 0 -18.5 2.5t-18.5 5.5l-15 5l-20 7l-38 13l-10 4l-27 10l-11 5l-26 9l-17 6q-16 7 -16 20q0 11 14 25l13 12l7 7q28 26 44 26q8 0 19 -5t24 -13
l39 -21q12 -8 25.5 -16t31 -22.5t24.5 -22.5q4 -2 10 -10z" />
    <glyph glyph-name="dotlessi" unicode="&#x131;" horiz-adv-x="300" 
d="M311 594l-32 -109l-15 -55l-15 -54l-15 -57l-25 -101l-38 -151q-11 -45 -22 -58.5t-41 -13.5q-6 0 -25.5 2t-24.5 3t-32 9t-42 21t-15 36q0 6 1 12.5t5 18.5l19 74l21 77l30 103l14 50l14 49q16 61 28 101.5t24 75.5l3 9l9 26q9 22 19.5 30t35.5 8q17 0 44 -3l29 -5
q34 -8 46 -16.5t12 -28.5q0 -18 -12 -53z" />
    <glyph glyph-name="circumflex" unicode="&#x2c6;" horiz-adv-x="169" 
d="M357 770q4 -5 4 -14q0 -22 -16.5 -27.5t-21.5 -5.5q-9 0 -18.5 2.5t-18.5 5.5l-15 5l-12 3l-30 21l-10 4l-17 6l-65 -17l-20 -7l-15 -5q-22 -7 -31 -7q-7 2 -22.5 7t-15.5 28q0 8 5 14.5t9 8.5q2 3 10.5 12t16.5 15t23.5 13t24.5 13l39 21q29 17 43 17t30 -13l9 -4
l35 -21q8 -5 13 -9l20.5 -16t22.5 -22l13 -18q4 -2 10 -10z" />
    <glyph glyph-name="tilde" unicode="&#x2dc;" horiz-adv-x="355" 
d="M364 820q0 -14 -3.5 -20.5t-18.5 -21.5l-46 -40q-7 -7 -20 -10.5t-26 -3.5q-11 0 -28.5 6t-27.5 12l-20 12t-30 6q-7 0 -14 -4.5t-21 -12.5t-20 -8q-6 1 -11 1q-11 0 -18 3.5t-17.5 14t-10.5 22.5q2 8 8.5 17t12 12t19 18.5t19.5 20t24.5 13.5t32.5 9q17 0 28 -3.5
t21 -7.5t31 -14.5t28 -10.5q13 0 19.5 6l12.5 12l20 11.5t18 4.5q13 0 17.5 -3t11.5 -11.5t8 -13t1 -16.5z" />
    <glyph glyph-name="macron" unicode="&#xaf;" horiz-adv-x="329" 
d="M340 827l-9 -25l-2 -3l-1 -4l-11 -22q-12 -28 -26.5 -33t-86.5 -5h-120q-50 0 -58.5 2t-11.5 15q-2 8 2 19l8 19l3 8l2 4l11 24q14 25 25.5 31t49.5 6h45l59 1l30 -1h32l13 -1h43q8 -6 8 -15q0 -10 -5 -20z" />
    <glyph glyph-name="macron" unicode="&#x2c9;" horiz-adv-x="329" 
d="M340 827l-9 -25l-2 -3l-1 -4l-11 -22q-12 -28 -26.5 -33t-86.5 -5h-120q-50 0 -58.5 2t-11.5 15q-2 8 2 19l8 19l3 8l2 4l11 24q14 25 25.5 31t49.5 6h45l59 1l30 -1h32l13 -1h43q8 -6 8 -15q0 -10 -5 -20z" />
    <glyph glyph-name="breve" unicode="&#x2d8;" horiz-adv-x="169" 
d="M377 828q-6 -8 -10 -10q-2 -3 -10.5 -12t-17 -15.5t-35 -20l-51.5 -26.5q-26 -16 -49 -16q-18 0 -30 10l-9 4l-39 21l-26 20l-27 21t-15 15l-11 15q-4 2 -9 8.5t-5 15.5q0 22 19.5 28t23.5 6q9 0 14 -1.5t18 -7.5q24 -16 52 -31.5t48 -15.5q29 0 50.5 9t38.5 19l15 5
q22 7 31 7q7 -2 22.5 -7t15.5 -28q0 -8 -4 -13z" />
    <glyph glyph-name="dotaccent" unicode="&#x2d9;" horiz-adv-x="200" 
d="M201 821q1 -13 -4 -37l-6 -14q-20 -40 -58 -46l-13 -1q-45 0 -49.5 24.5t-4.5 34.5q0 12 4 27.5t13 30t20.5 25t22.5 14t21 3.5q25 0 39.5 -16.5t14.5 -44.5z" />
    <glyph glyph-name="ring" unicode="&#x2da;" horiz-adv-x="200" 
d="M229 819v-22q0 -17 -2 -22.5l-7 -19.5q-12 -22 -36 -36.5t-48 -18.5q-15 1 -21 1q-54 0 -59.5 34.5t-7 45.5t-1.5 14q0 13 2.5 22.5t12 25.5t24.5 26.5t31.5 16.5t32.5 6q33 0 56 -20t23 -53zM186 803q0 17 -12 27t-29 10q-4 0 -13 -3t-17.5 -8.5t-13.5 -15.5
q-6 -8 -6 -24q0 -7 3.5 -26t30.5 -19l8 1q14 2 25.5 8.5t17.5 18.5l4 9q3 13 2 22z" />
    <glyph glyph-name="cedilla" unicode="&#xb8;" horiz-adv-x="204" 
d="M237 -49q0 -12 -7 -45.5t-22 -61t-48 -53t-63 -45.5q-8 -4 -18 -4q-13 0 -22.5 7.5t-9.5 19.5v16q9 6 25.5 24.5t27 43.5t10.5 32q0 17 -7.5 33.5t-11.5 24.5q-2 12 -2 15q0 25 21.5 33t60.5 8l12 -1l20 -2q21 -2 27.5 -13t6.5 -32z" />
    <glyph glyph-name="hungarumlaut" unicode="&#x2ba;" horiz-adv-x="411" 
d="M201 828l-10 -9l-16 -14l-8 -6l-17 -14l-7 -4l-24 -20l-11 -9l-11 -10q-24 -17 -32 -16q-15 0 -23 8t-5 18l4 10q5 10 7 14.5t10 16.5l27 35l21 25q20 26 36 26q10 0 29 -8l7 -4l13 -6q18 -8 18 -19q0 -6 -8 -14zM365 817q-7 -3 -11 -8l-18 -11l-7 -7l-18 -12l-8 -4
l-25 -17l-13 -9l-12 -7q-9 -7 -17.5 -11t-14.5 -2q-15 0 -23 8.5t-3 18.5q3 9 5 10l20 29l29 33l23 23q22 22 36 22q13 0 31 -11l7 -4l11 -7q16 -9 16 -19q0 -7 -8 -15z" />
    <glyph glyph-name="ogonek" unicode="&#x2db;" horiz-adv-x="204" 
d="M231 -231q0 -27 -33 -27q-5 0 -17 4q-30 19 -62.5 44t-45.5 49t-22.5 60.5t-9.5 51.5q0 22 6 32.5t28 12.5l20 2l12 1q42 0 62 -7.5t20 -33.5q0 -3 -2 -15q-6 -12 -12.5 -27.5t-6.5 -30.5q0 -9 10 -32t25.5 -39.5l27.5 -28.5v-16z" />
    <glyph glyph-name="caron" unicode="&#x2c7;" horiz-adv-x="169" 
d="M377 828q-6 -8 -10 -10q-2 -3 -10.5 -12t-16.5 -15t-23.5 -13t-24.5 -13l-39 -21q-29 -17 -43 -17t-30 13l-9 4l-39 21l-26 20l-35 27.5t-24 21.5q-4 2 -9 8.5t-5 15.5q0 22 16.5 27.5t21.5 5.5q4 0 9 -0.5t28 -7.5l15 -5l20 -7l42 -21l10 -4l17 -6l65 17l20 7l15 5
q22 7 31 7q7 -2 22.5 -7t15.5 -28q0 -8 -4 -13z" />
    <glyph glyph-name="Lslash" unicode="&#x141;" 
 />
    <glyph glyph-name="lslash" unicode="&#x142;" 
 />
    <glyph glyph-name="Scaron" unicode="&#x160;" 
 />
    <glyph glyph-name="scaron" unicode="&#x161;" 
 />
    <glyph glyph-name="Zcaron" unicode="&#x17d;" 
 />
    <glyph glyph-name="zcaron" unicode="&#x17f;" 
 />
    <glyph glyph-name="brokenbar" unicode="&#xa6;" 
 />
    <glyph glyph-name="Eth" unicode="&#xd0;" 
 />
    <glyph glyph-name="eth" unicode="&#xf0;" 
 />
    <glyph glyph-name="Yacute" unicode="&#xdd;" 
 />
    <glyph glyph-name="yacute" unicode="&#xfd;" 
 />
    <glyph glyph-name="Thorn" unicode="&#xde;" 
 />
    <glyph glyph-name="thorn" unicode="&#xfe;" 
 />
    <glyph glyph-name="minus" unicode="&#x2212;" 
 />
    <glyph glyph-name="multiply" unicode="&#xd7;" 
 />
    <glyph glyph-name="onesuperior" unicode="&#xb9;" 
 />
    <glyph glyph-name="twosuperior" unicode="&#xb2;" 
 />
    <glyph glyph-name="threesuperior" unicode="&#xb3;" 
 />
    <glyph glyph-name="onehalf" unicode="&#xbd;" 
 />
    <glyph glyph-name="onequarter" unicode="&#xbc;" 
 />
    <glyph glyph-name="threequarters" unicode="&#xbe;" 
 />
  </font>
</defs>
</svg>
